<?xml version="1.0" encoding="iso-8859-1"?>
<!-- Generator: Adobe Illustrator 16.0.4, SVG Export Plug-In . SVG Version: 6.00 Build 0)  -->
<!DOCTYPE svg PUBLIC "-//W3C//DTD SVG 1.1//EN" "http://www.w3.org/Graphics/SVG/1.1/DTD/svg11.dtd">
<svg version="1.1" xmlns="http://www.w3.org/2000/svg" xmlns:xlink="http://www.w3.org/1999/xlink" x="0px" y="0px" width="1920px"
	 height="1080px" viewBox="0 0 1920 1080" style="enable-background:new 0 0 1920 1080;" xml:space="preserve">
<g id="backdrop" style="display:none;">
	<rect style="display:inline;fill:#FF7B6A;" width="1920" height="1080"/>
	<rect y="1080" style="display:inline;fill:#47D681;" width="1920" height="1080"/>
	<g style="display:inline;">
		<polygon style="fill:#FFFFFF;" points="50,977.197 50,1014.551 75.095,1014.551 86.562,1027.064 86.562,1014.551 93.221,1014.551 
			93.221,977.197 		"/>
		<text transform="matrix(1 0 0 1 67.5903 1004.8594)" style="font-family:'LeagueGothic'; font-size:24;">3</text>
	</g>
	<rect y="-1080" style="display:inline;fill:#D8EFED;" width="1920" height="1080"/>
</g>
<g id="lines">
	<g>
		<path style="fill:#FFFFFF;" d="M1650.173,747.77h-464.162V283.606h464.162V747.77z M1214.642,719.139h406.9V312.237h-406.9
			V719.139z"/>
	</g>
	<g style="opacity:0.4;">
		<path style="fill:#FFFFFF;" d="M521.149,949.468c0-5.52-4.479-9.99-10-9.99c-5.52,0-10,4.47-10,9.99c0,5.53,4.48,10.01,10,10.01
			C516.67,959.478,521.149,954.998,521.149,949.468z"/>
		<path style="fill:#FFFFFF;" d="M761.149,949.468c0-5.52-4.479-9.99-10-9.99c-5.52,0-10,4.47-10,9.99c0,5.53,4.48,10.01,10,10.01
			C756.67,959.478,761.149,954.998,761.149,949.468z"/>
		<path style="fill:#FFFFFF;" d="M441.149,949.468c0-5.52-4.479-9.99-10-9.99c-5.52,0-10,4.47-10,9.99c0,5.53,4.48,10.01,10,10.01
			C436.67,959.478,441.149,954.998,441.149,949.468z"/>
		<path style="fill:#FFFFFF;" d="M561.149,949.468c0-5.52-4.479-9.99-10-9.99c-5.52,0-10,4.47-10,9.99c0,5.53,4.48,10.01,10,10.01
			C556.67,959.478,561.149,954.998,561.149,949.468z"/>
		<path style="fill:#FFFFFF;" d="M601.149,949.468c0-5.52-4.479-9.99-10-9.99c-5.52,0-10,4.47-10,9.99c0,5.53,4.48,10.01,10,10.01
			C596.67,959.478,601.149,954.998,601.149,949.468z"/>
		<path style="fill:#FFFFFF;" d="M401.149,949.468c0-5.52-4.479-9.99-10-9.99c-5.52,0-10,4.47-10,9.99c0,5.53,4.48,10.01,10,10.01
			C396.67,959.478,401.149,954.998,401.149,949.468z"/>
		<path style="fill:#FFFFFF;" d="M681.149,949.468c0-5.52-4.479-9.99-10-9.99c-5.52,0-10,4.47-10,9.99c0,5.53,4.48,10.01,10,10.01
			C676.67,959.478,681.149,954.998,681.149,949.468z"/>
		<path style="fill:#FFFFFF;" d="M721.149,949.468c0-5.52-4.479-9.99-10-9.99c-5.52,0-10,4.47-10,9.99c0,5.53,4.48,10.01,10,10.01
			C716.67,959.478,721.149,954.998,721.149,949.468z"/>
		<path style="fill:#FFFFFF;" d="M641.149,949.468c0-5.52-4.479-9.99-10-9.99c-5.52,0-10,4.47-10,9.99c0,5.53,4.48,10.01,10,10.01
			C636.67,959.478,641.149,954.998,641.149,949.468z"/>
		<path style="fill:#FFFFFF;" d="M481.149,949.468c0-5.52-4.479-9.99-10-9.99c-5.52,0-10,4.47-10,9.99c0,5.53,4.48,10.01,10,10.01
			C476.67,959.478,481.149,954.998,481.149,949.468z"/>
		<path style="fill:#FFFFFF;" d="M151.859,965.488c1.141,0,2.301-0.19,3.431-0.6c5.189-1.9,7.859-7.64,5.96-12.83
			c-1.891-5.19-7.641-7.86-12.83-5.96c-5.18,1.89-7.851,7.64-5.96,12.82C143.95,962.978,147.78,965.488,151.859,965.488z"/>
		<path style="fill:#FFFFFF;" d="M361.149,949.468c0-5.52-4.479-9.99-10-9.99c-5.52,0-10,4.47-10,9.99c0,5.53,4.48,10.01,10,10.01
			C356.67,959.478,361.149,954.998,361.149,949.468z"/>
		<path style="fill:#FFFFFF;" d="M124.8,983.588c4.05-3.76,4.28-10.08,0.52-14.13c-3.76-4.05-10.09-4.28-14.13-0.52
			c-4.05,3.76-4.29,10.09-0.52,14.13c1.97,2.12,4.64,3.2,7.32,3.2C120.43,986.268,122.87,985.378,124.8,983.588z"/>
		<path style="fill:#FFFFFF;" d="M90.649,1017.608c1.33,0.61,2.73,0.89,4.11,0.89c3.81,0,7.45-2.18,9.12-5.87
			c2.28-5.04,0.05-10.96-4.99-13.24c-5.03-2.28-10.95-0.04-13.229,4.98C83.38,1009.398,85.609,1015.328,90.649,1017.608z"/>
		<path style="fill:#FFFFFF;" d="M79.035,1080H92.84c-1.795-1.714-4.223-2.772-6.9-2.772
			C83.258,1077.228,80.83,1078.286,79.035,1080z"/>
		<path style="fill:#FFFFFF;" d="M321.149,949.468c0-5.52-4.479-9.99-10-9.99c-5.52,0-10,4.47-10,9.99c0,5.53,4.48,10.01,10,10.01
			C316.67,959.478,321.149,954.998,321.149,949.468z"/>
		<path style="fill:#FFFFFF;" d="M281.149,949.468c0-5.52-4.479-9.99-10-9.99c-5.52,0-10,4.47-10,9.99c0,5.53,4.48,10.01,10,10.01
			C276.67,959.478,281.149,954.998,281.149,949.468z"/>
		<path style="fill:#FFFFFF;" d="M241.149,949.468c0-5.52-4.479-9.99-10-9.99c-5.52,0-10,4.47-10,9.99c0,5.53,4.48,10.01,10,10.01
			C236.67,959.478,241.149,954.998,241.149,949.468z"/>
		<path style="fill:#FFFFFF;" d="M201.149,949.468c0-5.52-4.479-9.99-10-9.99c-5.52,0-10,4.47-10,9.99c0,5.53,4.48,10.01,10,10.01
			C196.67,959.478,201.149,954.998,201.149,949.468z"/>
		<path style="fill:#FFFFFF;" d="M75.96,1046.998h0.01c-0.13,5.52,4.25,10.1,9.771,10.22c0.069,0.01,0.149,0.01,0.229,0.01
			c5.42,0,9.87-4.33,9.99-9.78c0.12-5.52-4.25-10.1-9.771-10.22C80.66,1037.108,76.09,1041.478,75.96,1046.998z"/>
		<path style="fill:#FFFFFF;" d="M1321.149,949.468c0-5.52-4.479-9.99-10-9.99c-5.52,0-10,4.47-10,9.99c0,5.53,4.48,10.01,10,10.01
			C1316.67,959.478,1321.149,954.998,1321.149,949.468z"/>
		<path style="fill:#FFFFFF;" d="M801.149,949.468c0-5.52-4.479-9.99-10-9.99c-5.52,0-10,4.47-10,9.99c0,5.53,4.48,10.01,10,10.01
			C796.67,959.478,801.149,954.998,801.149,949.468z"/>
		<path style="fill:#FFFFFF;" d="M1391.43,931.298c4.11-3.69,4.46-10.01,0.771-14.12c-3.69-4.11-10.021-4.45-14.131-0.77
			c-4.109,3.69-4.449,10.02-0.76,14.13c1.98,2.2,4.71,3.32,7.45,3.32C1387.14,933.858,1389.52,933.008,1391.43,931.298z"/>
		<path style="fill:#FFFFFF;" d="M1241.149,949.468c0-5.52-4.479-9.99-10-9.99c-5.52,0-10,4.47-10,9.99c0,5.53,4.48,10.01,10,10.01
			C1236.67,959.478,1241.149,954.998,1241.149,949.468z"/>
		<path style="fill:#FFFFFF;" d="M1281.149,949.468c0-5.52-4.479-9.99-10-9.99c-5.52,0-10,4.47-10,9.99c0,5.53,4.48,10.01,10,10.01
			C1276.67,959.478,1281.149,954.998,1281.149,949.468z"/>
		<path style="fill:#FFFFFF;" d="M1418.09,763.458c-5.521,0-10,4.47-10,10c0,5.52,4.479,10,10,10c5.52,0,10-4.48,10-10
			C1428.09,767.928,1423.609,763.458,1418.09,763.458z"/>
		<path style="fill:#FFFFFF;" d="M1417.62,863.448c0.13,0,0.27,0,0.399,0c5.34,0,9.771-4.22,9.98-9.6
			c0.22-5.52-4.07-10.17-9.59-10.39c-5.521-0.22-10.17,4.08-10.391,9.6C1407.8,858.568,1412.1,863.228,1417.62,863.448z"/>
		<path style="fill:#FFFFFF;" d="M1399.49,887.738c-2.36,4.99-0.23,10.95,4.76,13.32c1.38,0.65,2.84,0.96,4.27,0.96
			c3.75,0,7.34-2.11,9.05-5.71c2.36-4.99,0.24-10.96-4.76-13.32C1407.819,880.618,1401.859,882.748,1399.49,887.738z"/>
		<path style="fill:#FFFFFF;" d="M1201.149,949.468c0-5.52-4.479-9.99-10-9.99c-5.52,0-10,4.47-10,9.99c0,5.53,4.48,10.01,10,10.01
			C1196.67,959.478,1201.149,954.998,1201.149,949.468z"/>
		<path style="fill:#FFFFFF;" d="M1428.09,813.458c0-5.53-4.48-10-10-10c-5.521,0-10,4.47-10,10c0,5.52,4.479,10,10,10
			C1423.609,823.458,1428.09,818.978,1428.09,813.458z"/>
		<path style="fill:#FFFFFF;" d="M1350.529,954.038c1.091,0,2.19-0.17,3.271-0.55c5.22-1.8,7.99-7.5,6.19-12.72
			c-1.811-5.21-7.5-7.99-12.721-6.18c-5.22,1.8-7.99,7.5-6.189,12.72C1342.51,951.448,1346.39,954.038,1350.529,954.038z"/>
		<path style="fill:#FFFFFF;" d="M881.149,949.468c0-5.52-4.479-9.99-10-9.99c-5.52,0-10,4.47-10,9.99c0,5.53,4.48,10.01,10,10.01
			C876.67,959.478,881.149,954.998,881.149,949.468z"/>
		<path style="fill:#FFFFFF;" d="M921.149,949.468c0-5.52-4.479-9.99-10-9.99c-5.52,0-10,4.47-10,9.99c0,5.53,4.48,10.01,10,10.01
			C916.67,959.478,921.149,954.998,921.149,949.468z"/>
		<path style="fill:#FFFFFF;" d="M1161.149,949.468c0-5.52-4.479-9.99-10-9.99c-5.52,0-10,4.47-10,9.99c0,5.53,4.48,10.01,10,10.01
			C1156.67,959.478,1161.149,954.998,1161.149,949.468z"/>
		<path style="fill:#FFFFFF;" d="M961.149,949.468c0-5.52-4.479-9.99-10-9.99c-5.52,0-10,4.47-10,9.99c0,5.53,4.48,10.01,10,10.01
			C956.67,959.478,961.149,954.998,961.149,949.468z"/>
		<path style="fill:#FFFFFF;" d="M841.149,949.468c0-5.52-4.479-9.99-10-9.99c-5.52,0-10,4.47-10,9.99c0,5.53,4.48,10.01,10,10.01
			C836.67,959.478,841.149,954.998,841.149,949.468z"/>
		<path style="fill:#FFFFFF;" d="M1001.149,949.468c0-5.52-4.479-9.99-10-9.99c-5.52,0-10,4.47-10,9.99c0,5.53,4.48,10.01,10,10.01
			C996.67,959.478,1001.149,954.998,1001.149,949.468z"/>
		<path style="fill:#FFFFFF;" d="M1121.149,949.468c0-5.52-4.479-9.99-10-9.99c-5.52,0-10,4.47-10,9.99c0,5.53,4.48,10.01,10,10.01
			C1116.67,959.478,1121.149,954.998,1121.149,949.468z"/>
		<path style="fill:#FFFFFF;" d="M1081.149,949.468c0-5.52-4.479-9.99-10-9.99c-5.52,0-10,4.47-10,9.99c0,5.53,4.48,10.01,10,10.01
			C1076.67,959.478,1081.149,954.998,1081.149,949.468z"/>
		<path style="fill:#FFFFFF;" d="M1041.149,949.468c0-5.52-4.479-9.99-10-9.99c-5.52,0-10,4.47-10,9.99c0,5.53,4.48,10.01,10,10.01
			C1036.67,959.478,1041.149,954.998,1041.149,949.468z"/>
	</g>
	<g style="opacity:0.4;">
		<path style="fill:#FFFFFF;" d="M75.939,1087.228c0,5.52,4.471,10,10,10c5.521,0,10-4.48,10-10c0-2.848-1.193-5.408-3.1-7.228
			H79.035C77.131,1081.82,75.939,1084.38,75.939,1087.228z"/>
	</g>
</g>
<g id="content" style="display:none;">
	<g style="display:inline;">
		<text transform="matrix(1 0 0 1 575.2368 443.4375)" style="fill:#1B2528; font-family:'LeagueGothic'; font-size:102.347;">We don&#x2019;t believe the hype</text>
		<rect x="524.414" y="498.783" style="fill:none;" width="871.172" height="226.564"/>
		<text transform="matrix(1 0 0 1 524.4146 527.0137)"><tspan x="0" y="0" style="fill:#1B2528; font-family:'PlayfairDisplay-Regular'; font-size:36;">We</tspan><tspan x="50.783" y="0" style="fill:#1B2528; font-family:'PlayfairDisplay-Regular'; font-size:36;"> </tspan><tspan x="60.069" y="0" style="fill:#1B2528; font-family:'PlayfairDisplay-Regular'; font-size:36;">pledge</tspan><tspan x="167.278" y="0" style="fill:#1B2528; font-family:'PlayfairDisplay-Regular'; font-size:36;"> </tspan><tspan x="176.563" y="0" style="fill:#1B2528; font-family:'PlayfairDisplay-Regular'; font-size:36;">to</tspan><tspan x="209.03" y="0" style="fill:#1B2528; font-family:'PlayfairDisplay-Regular'; font-size:36;"> </tspan><tspan x="218.315" y="0" style="fill:#1B2528; font-family:'PlayfairDisplay-Regular'; font-size:36;">be</tspan><tspan x="256.794" y="0" style="fill:#1B2528; font-family:'PlayfairDisplay-Regular'; font-size:36;"> </tspan><tspan x="266.08" y="0" style="fill:#1B2528; font-family:'PlayfairDisplay-Regular'; font-size:36;">skeptical</tspan><tspan x="410.062" y="0" style="fill:#1B2528; font-family:'PlayfairDisplay-Regular'; font-size:36;"> </tspan><tspan x="419.348" y="0" style="fill:#1B2528; font-family:'PlayfairDisplay-Regular'; font-size:36;">of</tspan><tspan x="451.023" y="0" style="fill:#1B2528; font-family:'PlayfairDisplay-Regular'; font-size:36;"> </tspan><tspan x="460.309" y="0" style="fill:#1B2528; font-family:'PlayfairDisplay-Regular'; font-size:36;">the</tspan><tspan x="512.428" y="0" style="fill:#1B2528; font-family:'PlayfairDisplay-Regular'; font-size:36;"> </tspan><tspan x="521.714" y="0" style="fill:#1B2528; font-family:'PlayfairDisplay-Regular'; font-size:36;">cult</tspan><tspan x="583.167" y="0" style="fill:#1B2528; font-family:'PlayfairDisplay-Regular'; font-size:36;"> </tspan><tspan x="592.453" y="0" style="fill:#1B2528; font-family:'PlayfairDisplay-Regular'; font-size:36;">of</tspan><tspan x="624.128" y="0" style="fill:#1B2528; font-family:'PlayfairDisplay-Regular'; font-size:36;"> </tspan><tspan x="633.414" y="0" style="fill:#1B2528; font-family:'PlayfairDisplay-Regular'; font-size:36;">the</tspan><tspan x="685.533" y="0" style="fill:#1B2528; font-family:'PlayfairDisplay-Regular'; font-size:36;"> </tspan><tspan x="694.818" y="0" style="fill:#1B2528; font-family:'PlayfairDisplay-Regular'; font-size:36;">new</tspan><tspan x="762.248" y="0" style="fill:#1B2528; font-family:'PlayfairDisplay-Regular'; font-size:36;"> </tspan><tspan x="771.534" y="0" style="fill:#1B2528; font-family:'PlayfairDisplay-Regular'; font-size:36;">&#x2014;</tspan><tspan x="802.559" y="0" style="fill:#1B2528; font-family:'PlayfairDisplay-Regular'; font-size:36;"> </tspan><tspan x="811.845" y="0" style="fill:#1B2528; font-family:'PlayfairDisplay-Regular'; font-size:36;">just </tspan><tspan x="0" y="46" style="fill:#1B2528; font-family:'PlayfairDisplay-Regular'; font-size:36;">slapping</tspan><tspan x="136.811" y="46" style="fill:#1B2528; font-family:'PlayfairDisplay-Regular'; font-size:36; letter-spacing:3;"> </tspan><tspan x="149.177" y="46" style="fill:#1B2528; font-family:'PlayfairDisplay-Regular'; font-size:36;">the</tspan><tspan x="201.296" y="46" style="fill:#1B2528; font-family:'PlayfairDisplay-Regular'; font-size:36; letter-spacing:3;"> </tspan><tspan x="213.662" y="46" style="fill:#1B2528; font-family:'PlayfairDisplay-Regular'; font-size:36;">Internet</tspan><tspan x="346.781" y="46" style="fill:#1B2528; font-family:'PlayfairDisplay-Regular'; font-size:36; letter-spacing:3;"> </tspan><tspan x="359.147" y="46" style="fill:#1B2528; font-family:'PlayfairDisplay-Regular'; font-size:36;">onto</tspan><tspan x="432.834" y="46" style="fill:#1B2528; font-family:'PlayfairDisplay-Regular'; font-size:36; letter-spacing:3;"> </tspan><tspan x="445.201" y="46" style="fill:#1B2528; font-family:'PlayfairDisplay-Regular'; font-size:36;">a</tspan><tspan x="463.13" y="46" style="fill:#1B2528; font-family:'PlayfairDisplay-Regular'; font-size:36; letter-spacing:3;"> </tspan><tspan x="475.497" y="46" style="fill:#1B2528; font-family:'PlayfairDisplay-Regular'; font-size:36;">product</tspan><tspan x="604.221" y="46" style="fill:#1B2528; font-family:'PlayfairDisplay-Regular'; font-size:36; letter-spacing:3;"> </tspan><tspan x="616.587" y="46" style="fill:#1B2528; font-family:'PlayfairDisplay-Regular'; font-size:36;">isn&#x2019;t</tspan><tspan x="686.249" y="46" style="fill:#1B2528; font-family:'PlayfairDisplay-Regular'; font-size:36; letter-spacing:3;"> </tspan><tspan x="698.615" y="46" style="fill:#1B2528; font-family:'PlayfairDisplay-Regular'; font-size:36;">always</tspan><tspan x="806.686" y="46" style="fill:#1B2528; font-family:'PlayfairDisplay-Regular'; font-size:36; letter-spacing:3;"> </tspan><tspan x="819.052" y="46" style="fill:#1B2528; font-family:'PlayfairDisplay-Regular'; font-size:36;">the </tspan><tspan x="0" y="92" style="fill:#1B2528; font-family:'PlayfairDisplay-Regular'; font-size:36;">answer.</tspan><tspan x="126.492" y="92" style="fill:#1B2528; font-family:'PlayfairDisplay-Regular'; font-size:36;"> </tspan><tspan x="135.94" y="92" style="fill:#1B2528; font-family:'PlayfairDisplay-Regular'; font-size:36;">Trying</tspan><tspan x="243.149" y="92" style="fill:#1B2528; font-family:'PlayfairDisplay-Regular'; font-size:36;"> </tspan><tspan x="252.597" y="92" style="fill:#1B2528; font-family:'PlayfairDisplay-Regular'; font-size:36;">to</tspan><tspan x="285.064" y="92" style="fill:#1B2528; font-family:'PlayfairDisplay-Regular'; font-size:36;"> </tspan><tspan x="294.512" y="92" style="fill:#1B2528; font-family:'PlayfairDisplay-Regular'; font-size:36;">monetize</tspan><tspan x="444.559" y="92" style="fill:#1B2528; font-family:'PlayfairDisplay-Regular'; font-size:36;"> </tspan><tspan x="454.007" y="92" style="fill:#1B2528; font-family:'PlayfairDisplay-Regular'; font-size:36;">only</tspan><tspan x="523.669" y="92" style="fill:#1B2528; font-family:'PlayfairDisplay-Regular'; font-size:36;"> </tspan><tspan x="533.117" y="92" style="fill:#1B2528; font-family:'PlayfairDisplay-Regular'; font-size:36;">through</tspan><tspan x="663.494" y="92" style="fill:#1B2528; font-family:'PlayfairDisplay-Regular'; font-size:36;"> </tspan><tspan x="672.942" y="92" style="fill:#1B2528; font-family:'PlayfairDisplay-Regular'; font-size:36;">connectivity </tspan><tspan x="0" y="138" style="fill:#1B2528; font-family:'PlayfairDisplay-Regular'; font-size:36;">rarely guarantees commercial profits. </tspan></text>
	</g>
	<g style="display:inline;">
		
			<rect x="1868.752" y="357.251" style="fill:#FFFFFF;stroke:#FFFFFF;stroke-width:2;stroke-miterlimit:10;" width="24.431" height="24.431"/>
		<circle style="fill:none;stroke:#FFFFFF;stroke-width:2;stroke-miterlimit:10;" cx="1880.968" cy="409.771" r="13.384"/>
		<path style="fill:none;stroke:#FFFFFF;stroke-width:2;stroke-miterlimit:10;" d="M1896.365,602.824
			c0-8.504-6.894-15.398-15.397-15.398c-8.505,0-15.398,6.894-15.398,15.398H1896.365z"/>
		
			<rect x="1870.782" y="658.253" transform="matrix(0.7071 0.7071 -0.7071 0.7071 1023.5495 -1134.2494)" style="fill:none;stroke:#FFFFFF;stroke-width:2;stroke-miterlimit:10;" width="20.372" height="20.372"/>
		<polygon style="fill:none;stroke:#FFFFFF;stroke-width:2;stroke-miterlimit:10;" points="1873.703,497.806 1866.439,485.224 
			1873.703,472.642 1888.231,472.642 1895.495,485.224 1888.231,497.806 		"/>
		
			<rect x="1873.89" y="512.511" style="fill:none;stroke:#FFFFFF;stroke-width:2;stroke-miterlimit:10;" width="14.156" height="25.164"/>
		<path style="fill:none;stroke:#FFFFFF;stroke-width:2;stroke-miterlimit:10;" d="M1875.421,572.72
			c-5.618,0-10.171-4.553-10.171-10.17c0-5.616,4.553-10.17,10.171-10.17h11.094c5.616,0,10.169,4.554,10.169,10.17
			c0,5.617-4.553,10.17-10.169,10.17H1875.421z"/>
		<polygon style="fill:none;stroke:#FFFFFF;stroke-width:2;stroke-miterlimit:10;" points="1868.382,639.328 1880.968,617.529 
			1893.552,639.328 		"/>
		<polygon style="fill:none;stroke:#FFFFFF;stroke-width:2;stroke-miterlimit:10;" points="1895.075,457.936 1866.859,457.936 
			1872.914,437.86 1889.021,437.86 		"/>
		<polygon style="fill:none;stroke:#FFFFFF;stroke-width:2;stroke-miterlimit:10;" points="1872.778,722.749 1867.718,707.173 
			1880.968,697.549 1894.218,707.173 1889.155,722.749 		"/>
	</g>
	<g style="display:inline;">
		<rect x="1805.452" y="50" style="fill:#FFFFFF;" width="61.826" height="61.828"/>
		<text transform="matrix(1 0 0 1 1832.1543 99.04)" style="fill:#FF7B6A; font-family:'LeagueGothic'; font-size:44.7768;">i</text>
	</g>
	<text transform="matrix(1 0 0 1 50 96.5034)" style="display:inline;fill:#FFFFFF; font-family:'LeagueGothic'; font-size:60;">iot design manifesto 1.0</text>
	
		<text transform="matrix(1 0 0 1 1749.8359 1027.0645)" style="display:inline;fill:#FFFFFF; font-family:'LeagueGothic'; font-size:36;">initiators?</text>
</g>
<g id="assets" style="display:none;">
</g>
</svg>
