<?xml version="1.0" encoding="iso-8859-1"?>
<!-- Generator: Adobe Illustrator 16.0.4, SVG Export Plug-In . SVG Version: 6.00 Build 0)  -->
<!DOCTYPE svg PUBLIC "-//W3C//DTD SVG 1.1//EN" "http://www.w3.org/Graphics/SVG/1.1/DTD/svg11.dtd">
<svg version="1.1" xmlns="http://www.w3.org/2000/svg" xmlns:xlink="http://www.w3.org/1999/xlink" x="0px" y="0px" width="1920px"
	 height="1080px" viewBox="0 0 1920 1080" style="enable-background:new 0 0 1920 1080;" xml:space="preserve">
<g id="backdrop" style="display:none;">
	<rect y="-1080" style="display:inline;fill:#F0C330;" width="1920" height="1080"/>
	<rect style="display:inline;fill:#C45FA0;" width="1920" height="1080"/>
</g>
<g id="lines">
	<g>
		<path style="fill:#FFFFFF;" d="M1579.562,877.198h-312.777l-96.644-297.444l253.032-183.803l253.036,183.803L1579.562,877.198z
			 M1287.586,848.567h271.176l83.79-257.876l-219.378-159.354L1203.8,590.691L1287.586,848.567z"/>
	</g>
	<g style="opacity:0.4;">
		<path style="fill:#FFFFFF;" d="M1066.68-11.472c-5.52,0-10,4.479-10,10c0,0.501,0.049,0.99,0.12,1.472h19.76
			c0.071-0.481,0.12-0.971,0.12-1.472C1076.68-6.992,1072.2-11.472,1066.68-11.472z"/>
	</g>
	<g style="opacity:0.4;">
		<path style="fill:#FFFFFF;" d="M1109.43,199.897c1.89,0,3.8-0.529,5.49-1.649c4.609-3.04,5.89-9.25,2.85-13.86
			c-3.04-4.609-9.25-5.88-13.859-2.84c-4.61,3.04-5.881,9.24-2.841,13.85C1102.99,198.318,1106.18,199.897,1109.43,199.897z"/>
		<path style="fill:#FFFFFF;" d="M1131.91,233.988c1.89,0,3.8-0.54,5.5-1.65c4.609-3.04,5.88-9.25,2.84-13.86
			c-3.04-4.609-9.24-5.88-13.851-2.84c-4.609,3.04-5.88,9.24-2.84,13.851C1125.479,232.408,1128.67,233.988,1131.91,233.988z"/>
		<path style="fill:#FFFFFF;" d="M1086.939,165.808c1.891,0,3.801-0.529,5.5-1.649c4.61-3.051,5.88-9.25,2.84-13.86
			c-3.039-4.61-9.239-5.88-13.85-2.84s-5.89,9.24-2.85,13.86C1080.51,164.228,1083.689,165.808,1086.939,165.808z"/>
		<path style="fill:#FFFFFF;" d="M1066.68,29.368c-5.52,0-10,4.479-10,10c0,5.529,4.48,10,10,10c5.521,0,10-4.471,10-10
			C1076.68,33.848,1072.2,29.368,1066.68,29.368z"/>
		<path style="fill:#FFFFFF;" d="M1154.399,268.078c1.891,0,3.801-0.54,5.5-1.65c4.61-3.04,5.88-9.25,2.841-13.859
			c-3.04-4.61-9.25-5.881-13.86-2.841s-5.88,9.25-2.84,13.86C1147.96,266.498,1151.149,268.078,1154.399,268.078z"/>
		<path style="fill:#FFFFFF;" d="M1066.68,131.048c5.521,0,10-4.479,10-10c0-5.52-4.479-10-10-10c-5.52,0-10,4.48-10,10
			C1056.68,126.568,1061.16,131.048,1066.68,131.048z"/>
		<path style="fill:#FFFFFF;" d="M1066.68,70.208c-5.52,0-10,4.479-10,10c0,5.53,4.48,10,10,10c5.521,0,10-4.47,10-10
			C1076.68,74.688,1072.2,70.208,1066.68,70.208z"/>
		<path style="fill:#FFFFFF;" d="M1244.34,404.438c1.89,0,3.81-0.54,5.5-1.649c4.61-3.05,5.88-9.25,2.84-13.86
			c-3.04-4.609-9.24-5.88-13.85-2.84c-4.61,3.04-5.88,9.24-2.84,13.85C1237.91,402.857,1241.1,404.438,1244.34,404.438z"/>
		<path style="fill:#FFFFFF;" d="M1066.68,8.528c5.02,0,9.167-3.7,9.88-8.528h-19.76C1057.513,4.828,1061.66,8.528,1066.68,8.528z"
			/>
		<path style="fill:#FFFFFF;" d="M1266.83,438.528c1.89,0,3.8-0.54,5.5-1.66c4.609-3.04,5.88-9.24,2.84-13.851
			c-3.04-4.609-9.24-5.88-13.851-2.84c-4.619,3.04-5.89,9.24-2.85,13.851C1260.399,436.948,1263.58,438.528,1266.83,438.528z"/>
		<path style="fill:#FFFFFF;" d="M1283.8,454.268c-4.61,3.04-5.88,9.24-2.84,13.851c1.92,2.92,5.109,4.5,8.35,4.5
			c1.891,0,3.811-0.54,5.5-1.66c4.61-3.04,5.891-9.24,2.851-13.851C1294.609,452.498,1288.41,451.228,1283.8,454.268z"/>
		<path style="fill:#FFFFFF;" d="M1221.859,370.348c1.891,0,3.801-0.529,5.5-1.649c4.61-3.04,5.87-9.25,2.83-13.86
			s-9.239-5.88-13.85-2.84s-5.88,9.24-2.84,13.85C1215.42,368.768,1218.609,370.348,1221.859,370.348z"/>
		<path style="fill:#FFFFFF;" d="M1199.37,336.258c1.89,0,3.8-0.53,5.5-1.65c4.609-3.05,5.88-9.25,2.84-13.859
			c-3.04-4.61-9.24-5.88-13.851-2.84c-4.619,3.04-5.88,9.239-2.84,13.85C1192.939,334.678,1196.12,336.258,1199.37,336.258z"/>
		<path style="fill:#FFFFFF;" d="M1176.88,302.168c1.89,0,3.81-0.54,5.5-1.66c4.61-3.04,5.88-9.24,2.84-13.85
			c-3.04-4.61-9.24-5.88-13.85-2.84c-4.61,3.039-5.88,9.25-2.841,13.859C1170.45,300.588,1173.64,302.168,1176.88,302.168z"/>
	</g>
</g>
<g id="content" style="display:none;">
	<g style="display:inline;">
		<text transform="matrix(1 0 0 1 471.5117 433.4854)" style="fill:#1B2528; font-family:'LeagueGothic'; font-size:102.347;">in the end, we are human beings</text>
		<rect x="495.089" y="488.831" style="fill:none;" width="871.171" height="374.052"/>
		<text transform="matrix(1 0 0 1 495.0889 517.0615)"><tspan x="0" y="0" style="fill:#1B2528; font-family:'PlayfairDisplay-Regular'; font-size:36;">Design</tspan><tspan x="110.988" y="0" style="fill:#1B2528; font-family:'PlayfairDisplay-Regular'; font-size:36;"> </tspan><tspan x="119.274" y="0" style="fill:#1B2528; font-family:'PlayfairDisplay-Regular'; font-size:36;">is</tspan><tspan x="145.87" y="0" style="fill:#1B2528; font-family:'PlayfairDisplay-Regular'; font-size:36;"> </tspan><tspan x="154.156" y="0" style="fill:#1B2528; font-family:'PlayfairDisplay-Regular'; font-size:36;">an</tspan><tspan x="193.584" y="0" style="fill:#1B2528; font-family:'PlayfairDisplay-Regular'; font-size:36;"> </tspan><tspan x="201.871" y="0" style="fill:#1B2528; font-family:'PlayfairDisplay-Regular'; font-size:36;">impactful</tspan><tspan x="356.646" y="0" style="fill:#1B2528; font-family:'PlayfairDisplay-Regular'; font-size:36;"> </tspan><tspan x="364.932" y="0" style="fill:#1B2528; font-family:'PlayfairDisplay-Regular'; font-size:36;">act.</tspan><tspan x="422.167" y="0" style="fill:#1B2528; font-family:'PlayfairDisplay-Regular'; font-size:36;"> </tspan><tspan x="430.453" y="0" style="fill:#1B2528; font-family:'PlayfairDisplay-Regular'; font-size:36;">With</tspan><tspan x="507.48" y="0" style="fill:#1B2528; font-family:'PlayfairDisplay-Regular'; font-size:36;"> </tspan><tspan x="515.766" y="0" style="fill:#1B2528; font-family:'PlayfairDisplay-Regular'; font-size:36;">our</tspan><tspan x="572.42" y="0" style="fill:#1B2528; font-family:'PlayfairDisplay-Regular'; font-size:36;"> </tspan><tspan x="580.707" y="0" style="fill:#1B2528; font-family:'PlayfairDisplay-Regular'; font-size:36;">work,</tspan><tspan x="673.361" y="0" style="fill:#1B2528; font-family:'PlayfairDisplay-Regular'; font-size:36;"> </tspan><tspan x="681.647" y="0" style="fill:#1B2528; font-family:'PlayfairDisplay-Regular'; font-size:36;">we</tspan><tspan x="727.579" y="0" style="fill:#1B2528; font-family:'PlayfairDisplay-Regular'; font-size:36;"> </tspan><tspan x="735.865" y="0" style="fill:#1B2528; font-family:'PlayfairDisplay-Regular'; font-size:36;">have</tspan><tspan x="810.766" y="0" style="fill:#1B2528; font-family:'PlayfairDisplay-Regular'; font-size:36;"> </tspan><tspan x="819.052" y="0" style="fill:#1B2528; font-family:'PlayfairDisplay-Regular'; font-size:36;">the </tspan><tspan x="0" y="46" style="fill:#1B2528; font-family:'PlayfairDisplay-Regular'; font-size:36;">power</tspan><tspan x="102.586" y="46" style="fill:#1B2528; font-family:'PlayfairDisplay-Regular'; font-size:36; letter-spacing:11;"> </tspan><tspan x="123.363" y="46" style="fill:#1B2528; font-family:'PlayfairDisplay-Regular'; font-size:36;">to</tspan><tspan x="155.83" y="46" style="fill:#1B2528; font-family:'PlayfairDisplay-Regular'; font-size:36; letter-spacing:11;"> </tspan><tspan x="176.607" y="46" style="fill:#1B2528; font-family:'PlayfairDisplay-Regular'; font-size:36;">shape</tspan><tspan x="270.878" y="46" style="fill:#1B2528; font-family:'PlayfairDisplay-Regular'; font-size:36; letter-spacing:11;"> </tspan><tspan x="291.656" y="46" style="fill:#1B2528; font-family:'PlayfairDisplay-Regular'; font-size:36;">relationships</tspan><tspan x="503.349" y="46" style="fill:#1B2528; font-family:'PlayfairDisplay-Regular'; font-size:36; letter-spacing:11;"> </tspan><tspan x="524.126" y="46" style="fill:#1B2528; font-family:'PlayfairDisplay-Regular'; font-size:36;">between</tspan><tspan x="660.99" y="46" style="fill:#1B2528; font-family:'PlayfairDisplay-Regular'; font-size:36; letter-spacing:11;"> </tspan><tspan x="681.767" y="46" style="fill:#1B2528; font-family:'PlayfairDisplay-Regular'; font-size:36;">people</tspan><tspan x="790.048" y="46" style="fill:#1B2528; font-family:'PlayfairDisplay-Regular'; font-size:36; letter-spacing:11;"> </tspan><tspan x="810.825" y="46" style="fill:#1B2528; font-family:'PlayfairDisplay-Regular'; font-size:36;">and </tspan><tspan x="0" y="92" style="fill:#1B2528; font-family:'PlayfairDisplay-Regular'; font-size:36;">technology,</tspan><tspan x="187.049" y="92" style="fill:#1B2528; font-family:'PlayfairDisplay-Regular'; font-size:36; letter-spacing:-1;"> </tspan><tspan x="194.282" y="92" style="fill:#1B2528; font-family:'PlayfairDisplay-Regular'; font-size:36;">as</tspan><tspan x="228.261" y="92" style="fill:#1B2528; font-family:'PlayfairDisplay-Regular'; font-size:36; letter-spacing:-1;"> </tspan><tspan x="235.494" y="92" style="fill:#1B2528; font-family:'PlayfairDisplay-Regular'; font-size:36;">well</tspan><tspan x="302.027" y="92" style="fill:#1B2528; font-family:'PlayfairDisplay-Regular'; font-size:36; letter-spacing:-1;"> </tspan><tspan x="309.26" y="92" style="fill:#1B2528; font-family:'PlayfairDisplay-Regular'; font-size:36;">as</tspan><tspan x="343.239" y="92" style="fill:#1B2528; font-family:'PlayfairDisplay-Regular'; font-size:36; letter-spacing:-1;"> </tspan><tspan x="350.472" y="92" style="fill:#1B2528; font-family:'PlayfairDisplay-Regular'; font-size:36;">among</tspan><tspan x="460.248" y="92" style="fill:#1B2528; font-family:'PlayfairDisplay-Regular'; font-size:36; letter-spacing:-1;"> </tspan><tspan x="467.481" y="92" style="fill:#1B2528; font-family:'PlayfairDisplay-Regular'; font-size:36;">people.</tspan><tspan x="584.833" y="92" style="fill:#1B2528; font-family:'PlayfairDisplay-Regular'; font-size:36; letter-spacing:-1;">  </tspan><tspan x="599.299" y="92" style="fill:#1B2528; font-family:'PlayfairDisplay-Regular'; font-size:36;">We</tspan><tspan x="650.083" y="92" style="fill:#1B2528; font-family:'PlayfairDisplay-Regular'; font-size:36; letter-spacing:-1;"> </tspan><tspan x="657.315" y="92" style="fill:#1B2528; font-family:'PlayfairDisplay-Regular'; font-size:36;">don&#x2019;t</tspan><tspan x="741.022" y="92" style="fill:#1B2528; font-family:'PlayfairDisplay-Regular'; font-size:36; letter-spacing:-1;"> </tspan><tspan x="748.256" y="92" style="fill:#1B2528; font-family:'PlayfairDisplay-Regular'; font-size:36;">use</tspan><tspan x="803.434" y="92" style="fill:#1B2528; font-family:'PlayfairDisplay-Regular'; font-size:36; letter-spacing:-1;"> </tspan><tspan x="810.667" y="92" style="fill:#1B2528; font-family:'PlayfairDisplay-Regular'; font-size:36;">this </tspan><tspan x="0" y="138" style="fill:#1B2528; font-family:'PlayfairDisplay-Regular'; font-size:36;">influence</tspan><tspan x="150.732" y="138" style="fill:#1B2528; font-family:'PlayfairDisplay-Regular'; font-size:36; letter-spacing:19;"> </tspan><tspan x="178.998" y="138" style="fill:#1B2528; font-family:'PlayfairDisplay-Regular'; font-size:36;">to</tspan><tspan x="211.465" y="138" style="fill:#1B2528; font-family:'PlayfairDisplay-Regular'; font-size:36; letter-spacing:19;"> </tspan><tspan x="239.73" y="138" style="fill:#1B2528; font-family:'PlayfairDisplay-Regular'; font-size:36;">only</tspan><tspan x="309.392" y="138" style="fill:#1B2528; font-family:'PlayfairDisplay-Regular'; font-size:36; letter-spacing:19;"> </tspan><tspan x="337.658" y="138" style="fill:#1B2528; font-family:'PlayfairDisplay-Regular'; font-size:36;">make</tspan><tspan x="425.566" y="138" style="fill:#1B2528; font-family:'PlayfairDisplay-Regular'; font-size:36; letter-spacing:19;"> </tspan><tspan x="453.832" y="138" style="fill:#1B2528; font-family:'PlayfairDisplay-Regular'; font-size:36;">profits</tspan><tspan x="561.568" y="138" style="fill:#1B2528; font-family:'PlayfairDisplay-Regular'; font-size:36; letter-spacing:19;"> </tspan><tspan x="589.833" y="138" style="fill:#1B2528; font-family:'PlayfairDisplay-Regular'; font-size:36;">or</tspan><tspan x="625.57" y="138" style="fill:#1B2528; font-family:'PlayfairDisplay-Regular'; font-size:36; letter-spacing:19;"> </tspan><tspan x="653.835" y="138" style="fill:#1B2528; font-family:'PlayfairDisplay-Regular'; font-size:36;">create</tspan><tspan x="754.435" y="138" style="fill:#1B2528; font-family:'PlayfairDisplay-Regular'; font-size:36; letter-spacing:19;"> </tspan><tspan x="782.7" y="138" style="fill:#1B2528; font-family:'PlayfairDisplay-Regular'; font-size:36;">robot </tspan><tspan x="0" y="184" style="fill:#1B2528; font-family:'PlayfairDisplay-Regular'; font-size:36;">overlords;</tspan><tspan x="164.812" y="184" style="fill:#1B2528; font-family:'PlayfairDisplay-Regular'; font-size:36; letter-spacing:-1;"> </tspan><tspan x="171.993" y="184" style="fill:#1B2528; font-family:'PlayfairDisplay-Regular'; font-size:36;">instead,</tspan><tspan x="299.294" y="184" style="fill:#1B2528; font-family:'PlayfairDisplay-Regular'; font-size:36; letter-spacing:-1;"> </tspan><tspan x="306.475" y="184" style="fill:#1B2528; font-family:'PlayfairDisplay-Regular'; font-size:36;">it</tspan><tspan x="329.766" y="184" style="fill:#1B2528; font-family:'PlayfairDisplay-Regular'; font-size:36; letter-spacing:-1;"> </tspan><tspan x="336.946" y="184" style="fill:#1B2528; font-family:'PlayfairDisplay-Regular'; font-size:36;">is</tspan><tspan x="363.542" y="184" style="fill:#1B2528; font-family:'PlayfairDisplay-Regular'; font-size:36; letter-spacing:-1;"> </tspan><tspan x="370.722" y="184" style="fill:#1B2528; font-family:'PlayfairDisplay-Regular'; font-size:36;">our</tspan><tspan x="427.376" y="184" style="fill:#1B2528; font-family:'PlayfairDisplay-Regular'; font-size:36; letter-spacing:-1;"> </tspan><tspan x="434.557" y="184" style="fill:#1B2528; font-family:'PlayfairDisplay-Regular'; font-size:36;">responsibility</tspan><tspan x="656.112" y="184" style="fill:#1B2528; font-family:'PlayfairDisplay-Regular'; font-size:36; letter-spacing:-1;"> </tspan><tspan x="663.292" y="184" style="fill:#1B2528; font-family:'PlayfairDisplay-Regular'; font-size:36;">to</tspan><tspan x="695.759" y="184" style="fill:#1B2528; font-family:'PlayfairDisplay-Regular'; font-size:36; letter-spacing:-1;"> </tspan><tspan x="702.939" y="184" style="fill:#1B2528; font-family:'PlayfairDisplay-Regular'; font-size:36;">use</tspan><tspan x="758.117" y="184" style="fill:#1B2528; font-family:'PlayfairDisplay-Regular'; font-size:36; letter-spacing:-1;"> </tspan><tspan x="765.298" y="184" style="fill:#1B2528; font-family:'PlayfairDisplay-Regular'; font-size:36;">design </tspan><tspan x="0" y="230" style="fill:#1B2528; font-family:'PlayfairDisplay-Regular'; font-size:36;">to help people thrive.</tspan></text>
	</g>
	
		<text transform="matrix(1 0 0 1 1749.8359 1027.0645)" style="display:inline;fill:#FFFFFF; font-family:'LeagueGothic'; font-size:36;">initiators?</text>
	<g style="display:inline;">
		<rect x="1808.174" y="50" style="fill:#FFFFFF;" width="61.826" height="61.828"/>
		<text transform="matrix(1 0 0 1 1831.0254 99.04)" style="fill:#C45FA0; font-family:'LeagueGothic'; font-size:44.7768;">x</text>
	</g>
	<g style="display:inline;">
		
			<rect x="1868.752" y="357.251" style="opacity:0.3;fill:none;stroke:#FFFFFF;stroke-width:2;stroke-miterlimit:10;" width="24.431" height="24.431"/>
		
			<circle style="opacity:0.3;fill:none;stroke:#FFFFFF;stroke-width:2;stroke-miterlimit:10;" cx="1880.968" cy="409.771" r="13.384"/>
		<path style="opacity:0.3;fill:none;stroke:#FFFFFF;stroke-width:2;stroke-miterlimit:10;" d="M1896.365,602.824
			c0-8.505-6.894-15.398-15.397-15.398c-8.505,0-15.398,6.894-15.398,15.398H1896.365z"/>
		
			<rect x="1870.782" y="658.252" transform="matrix(0.7071 0.7071 -0.7071 0.7071 1023.5801 -1134.2639)" style="opacity:0.3;fill:none;stroke:#FFFFFF;stroke-width:2;stroke-miterlimit:10;" width="20.372" height="20.372"/>
		<polygon style="opacity:0.3;fill:none;stroke:#FFFFFF;stroke-width:2;stroke-miterlimit:10;" points="1873.703,497.806 
			1866.439,485.224 1873.703,472.642 1888.231,472.642 1895.495,485.224 1888.231,497.806 		"/>
		
			<rect x="1873.89" y="512.512" style="opacity:0.3;fill:none;stroke:#FFFFFF;stroke-width:2;stroke-miterlimit:10;" width="14.156" height="25.163"/>
		<path style="opacity:0.3;fill:none;stroke:#FFFFFF;stroke-width:2;stroke-miterlimit:10;" d="M1875.421,572.721
			c-5.618,0-10.171-4.554-10.171-10.17c0-5.617,4.553-10.17,10.171-10.17h11.094c5.616,0,10.169,4.553,10.169,10.17
			c0,5.616-4.553,10.17-10.169,10.17H1875.421z"/>
		<polygon style="opacity:0.3;fill:none;stroke:#FFFFFF;stroke-width:2;stroke-miterlimit:10;" points="1868.382,639.328 
			1880.968,617.529 1893.552,639.328 		"/>
		<polygon style="opacity:0.3;fill:none;stroke:#FFFFFF;stroke-width:2;stroke-miterlimit:10;" points="1895.075,457.936 
			1866.859,457.936 1872.914,437.86 1889.021,437.86 		"/>
		<polygon style="fill:#FFFFFF;stroke:#FFFFFF;stroke-width:2;stroke-miterlimit:10;" points="1872.778,722.749 1867.718,707.174 
			1880.968,697.549 1894.218,707.174 1889.155,722.749 		"/>
	</g>
	<g style="display:inline;">
		<text transform="matrix(1 0 0 1 50 99.4395)" style="fill:#FFFFFF; font-family:'LeagueGothic'; font-size:60;">iot design manifesto 1.0</text>
	</g>
	<g style="display:inline;">
		<polygon style="fill:#FFFFFF;" points="50,980.133 50,1017.486 75.095,1017.486 86.562,1030 86.562,1017.486 93.221,1017.486 
			93.221,980.133 		"/>
		<text transform="matrix(1 0 0 1 67.5903 1007.7949)" style="font-family:'LeagueGothic'; font-size:24;">3</text>
	</g>
</g>
<g id="assets" style="display:none;">
</g>
</svg>
