<?xml version="1.0" encoding="iso-8859-1"?>
<!-- Generator: Adobe Illustrator 16.0.4, SVG Export Plug-In . SVG Version: 6.00 Build 0)  -->
<!DOCTYPE svg PUBLIC "-//W3C//DTD SVG 1.1//EN" "http://www.w3.org/Graphics/SVG/1.1/DTD/svg11.dtd">
<svg version="1.1" xmlns="http://www.w3.org/2000/svg" xmlns:xlink="http://www.w3.org/1999/xlink" x="0px" y="0px" width="1920px"
	 height="1080px" viewBox="0 0 1920 1080" style="enable-background:new 0 0 1920 1080;" xml:space="preserve">
<g id="backdrop" style="display:none;">
	<rect y="-1080" style="display:inline;fill:#FF7B6A;" width="1920" height="1080"/>
	<rect style="display:inline;fill:#47D681;" width="1920" height="1080"/>
	<rect y="1080" style="display:inline;fill:#4F97BF;" width="1920" height="1080"/>
	<g style="display:inline;">
		<polygon style="fill:#FFFFFF;" points="50,977.808 50,1015.161 75.095,1015.161 86.562,1027.675 86.562,1015.161 93.221,1015.161 
			93.221,977.808 		"/>
		<text transform="matrix(1 0 0 1 67.5903 1005.4697)" style="font-family:'LeagueGothic'; font-size:24;">3</text>
	</g>
</g>
<g id="lines">
	<g>
		<path style="fill:#FFFFFF;" d="M548.695,639.597c-67.557,0-131.068-26.308-178.836-74.076
			c-47.767-47.768-74.073-111.279-74.073-178.833c0-67.554,26.307-131.063,74.073-178.829
			c47.768-47.766,111.279-74.072,178.836-74.072c67.554,0,131.063,26.306,178.831,74.072
			c47.768,47.767,74.074,111.276,74.074,178.829c0,67.554-26.307,131.064-74.074,178.833S616.249,639.597,548.695,639.597z
			 M548.695,162.417c-59.909,0-116.231,23.328-158.591,65.687s-65.688,98.678-65.688,158.584
			c0,59.907,23.328,116.228,65.688,158.588c42.36,42.361,98.683,65.69,158.591,65.69c59.905,0,116.226-23.329,158.586-65.69
			c42.359-42.361,65.688-98.682,65.688-158.588c0-59.906-23.328-116.225-65.688-158.584
			C664.922,185.745,608.602,162.417,548.695,162.417z"/>
	</g>
	<g style="opacity:0.4;">
		<path style="fill:#FFFFFF;" d="M79.035,0H92.84c-1.795-1.714-4.223-2.772-6.9-2.772C83.258-2.772,80.83-1.714,79.035,0z"/>
	</g>
	<g style="opacity:0.4;">
		<path style="fill:#FFFFFF;" d="M939.02,937.118c-5.52,0-10,4.48-10,10s4.48,10,10,10c5.521,0,10-4.48,10-10
			S944.54,937.118,939.02,937.118z"/>
		<path style="fill:#FFFFFF;" d="M939.02,1057.118c-5.52,0-10,4.48-10,10s4.48,10,10,10c5.521,0,10-4.48,10-10
			S944.54,1057.118,939.02,1057.118z"/>
		<path style="fill:#FFFFFF;" d="M939.02,977.118c-5.52,0-10,4.48-10,10s4.48,10,10,10c5.521,0,10-4.48,10-10
			S944.54,977.118,939.02,977.118z"/>
		<path style="fill:#FFFFFF;" d="M939.02,897.118c-5.52,0-10,4.48-10,10s4.48,10,10,10c5.521,0,10-4.48,10-10
			S944.54,897.118,939.02,897.118z"/>
		<path style="fill:#FFFFFF;" d="M939.02,857.118c-5.52,0-10,4.48-10,10s4.48,10,10,10c5.521,0,10-4.48,10-10
			S944.54,857.118,939.02,857.118z"/>
		<path style="fill:#FFFFFF;" d="M867.34,391.838c5.189,0,9.58-4.02,9.96-9.28c0.4-5.51-3.74-10.3-9.25-10.7
			c-5.51-0.4-10.3,3.74-10.69,9.25c-0.409,5.51,3.74,10.3,9.25,10.7C866.85,391.828,867.1,391.838,867.34,391.838z"/>
		<path style="fill:#FFFFFF;" d="M939.02,1017.118c-5.52,0-10,4.48-10,10s4.48,10,10,10c5.521,0,10-4.48,10-10
			S944.54,1017.118,939.02,1017.118z"/>
		<path style="fill:#FFFFFF;" d="M939.02,817.118c-5.52,0-10,4.48-10,10s4.48,10,10,10c5.521,0,10-4.48,10-10
			S944.54,817.118,939.02,817.118z"/>
		<path style="fill:#FFFFFF;" d="M837.319,381.678c0-5.52-4.479-10-10-10c-5.52,0-10,4.48-10,10c0,5.53,4.48,10,10,10
			C832.84,391.678,837.319,387.208,837.319,381.678z"/>
		<path style="fill:#FFFFFF;" d="M903.54,407.138c2.859,0,5.71-1.22,7.68-3.59c3.54-4.24,2.98-10.54-1.26-14.08
			s-10.55-2.98-14.09,1.26c-3.54,4.24-2.971,10.55,1.27,14.09C899.01,406.378,901.279,407.138,903.54,407.138z"/>
		<path style="fill:#FFFFFF;" d="M939.02,497.118c-5.52,0-10,4.48-10,10s4.48,10,10,10c5.521,0,10-4.48,10-10
			S944.54,497.118,939.02,497.118z"/>
		<path style="fill:#FFFFFF;" d="M939.02,577.118c-5.52,0-10,4.48-10,10s4.48,10,10,10c5.521,0,10-4.48,10-10
			S944.54,577.118,939.02,577.118z"/>
		<path style="fill:#FFFFFF;" d="M939.02,537.118c-5.52,0-10,4.48-10,10s4.48,10,10,10c5.521,0,10-4.48,10-10
			S944.54,537.118,939.02,537.118z"/>
		<path style="fill:#FFFFFF;" d="M938.2,477.148c0.369,0,0.75-0.02,1.13-0.06c5.479-0.62,9.439-5.56,8.819-11.05
			c-0.609-5.49-5.56-9.44-11.04-8.83c-5.5,0.61-9.449,5.56-8.83,11.05C928.85,473.368,933.18,477.148,938.2,477.148z"/>
		<path style="fill:#FFFFFF;" d="M923.18,419.778c-4.99,2.38-7.11,8.34-4.74,13.33c1.721,3.6,5.301,5.7,9.04,5.7
			c1.44,0,2.9-0.31,4.29-0.97c4.99-2.37,7.101-8.34,4.73-13.33C934.13,419.528,928.16,417.408,923.18,419.778z"/>
		<path style="fill:#FFFFFF;" d="M939.02,697.118c-5.52,0-10,4.48-10,10s4.48,10,10,10c5.521,0,10-4.48,10-10
			S944.54,697.118,939.02,697.118z"/>
		<path style="fill:#FFFFFF;" d="M939.02,617.118c-5.52,0-10,4.48-10,10s4.48,10,10,10c5.521,0,10-4.48,10-10
			S944.54,617.118,939.02,617.118z"/>
		<path style="fill:#FFFFFF;" d="M939.02,777.118c-5.52,0-10,4.48-10,10s4.48,10,10,10c5.521,0,10-4.48,10-10
			S944.54,777.118,939.02,777.118z"/>
		<path style="fill:#FFFFFF;" d="M939.02,737.118c-5.52,0-10,4.48-10,10s4.48,10,10,10c5.521,0,10-4.48,10-10
			S944.54,737.118,939.02,737.118z"/>
		<path style="fill:#FFFFFF;" d="M939.02,657.118c-5.52,0-10,4.48-10,10s4.48,10,10,10c5.521,0,10-4.48,10-10
			S944.54,657.118,939.02,657.118z"/>
	</g>
	<g style="opacity:0.4;">
		<path style="fill:#FFFFFF;" d="M90.109,316.918c-5.069,2.19-7.399,8.08-5.21,13.15c1.631,3.78,5.311,6.03,9.181,6.03
			c1.33,0,2.67-0.26,3.96-0.82c5.069-2.19,7.41-8.08,5.21-13.15C101.06,317.058,95.18,314.728,90.109,316.918z"/>
		<path style="fill:#FFFFFF;" d="M85.939,217.228c5.521,0,10-4.48,10-10c0-5.53-4.479-10-10-10c-5.529,0-10,4.47-10,10
			C75.939,212.748,80.41,217.228,85.939,217.228z"/>
		<path style="fill:#FFFFFF;" d="M85.939,97.228c5.521,0,10-4.48,10-10c0-5.53-4.479-10-10-10c-5.529,0-10,4.47-10,10
			C75.939,92.748,80.41,97.228,85.939,97.228z"/>
		<path style="fill:#FFFFFF;" d="M85.939,137.228c5.521,0,10-4.48,10-10c0-5.53-4.479-10-10-10c-5.529,0-10,4.47-10,10
			C75.939,132.748,80.41,137.228,85.939,137.228z"/>
		<path style="fill:#FFFFFF;" d="M85.939,37.228c-5.529,0-10,4.48-10,10s4.471,10,10,10c5.521,0,10-4.48,10-10
			S91.46,37.228,85.939,37.228z"/>
		<path style="fill:#FFFFFF;" d="M85.939,177.228c5.521,0,10-4.48,10-10c0-5.53-4.479-10-10-10c-5.529,0-10,4.47-10,10
			C75.939,172.748,80.41,177.228,85.939,177.228z"/>
		<path style="fill:#FFFFFF;" d="M85.939,257.228c5.521,0,10-4.48,10-10c0-5.53-4.479-10-10-10c-5.529,0-10,4.47-10,10
			C75.939,252.748,80.41,257.228,85.939,257.228z"/>
		<path style="fill:#FFFFFF;" d="M85.939,297.228c0.021,0,0.03,0,0.051,0c5.52-0.03,9.979-4.53,9.949-10.05c0-0.01,0-0.01,0-0.01
			c-0.029-5.52-4.529-9.97-10.05-9.94c-5.53,0.03-9.979,4.53-9.95,10.05C75.97,292.778,80.439,297.228,85.939,297.228z"/>
		<path style="fill:#FFFFFF;" d="M239.43,386.688c0-5.52-4.479-10-10-10c-5.53,0-10,4.48-10,10s4.47,10,10,10
			C234.95,396.688,239.43,392.208,239.43,386.688z"/>
		<path style="fill:#FFFFFF;" d="M75.939,7.228c0,5.52,4.471,10,10,10c5.521,0,10-4.48,10-10c0-2.848-1.193-5.408-3.1-7.228H79.035
			C77.131,1.82,75.939,4.38,75.939,7.228z"/>
		<path style="fill:#FFFFFF;" d="M269.43,376.688c-5.53,0-10.01,4.48-10.01,10s4.479,10,10.01,10c5.521,0,10-4.48,10-10
			S274.95,376.688,269.43,376.688z"/>
		<path style="fill:#FFFFFF;" d="M123.96,365.658c3.83-3.99,3.7-10.32-0.28-14.14c-3.979-3.83-10.31-3.71-14.14,0.28
			c-3.83,3.98-3.7,10.31,0.279,14.14c1.94,1.86,4.44,2.79,6.931,2.79C119.37,368.728,122,367.698,123.96,365.658z"/>
		<path style="fill:#FFFFFF;" d="M150.25,390.078c4.01,0,7.8-2.44,9.33-6.41c1.989-5.16-0.58-10.94-5.73-12.93
			c-5.16-1.98-10.95,0.59-12.93,5.74c-1.99,5.15,0.58,10.94,5.74,12.93C147.84,389.858,149.05,390.078,150.25,390.078z"/>
		<path style="fill:#FFFFFF;" d="M199.43,386.688c0-5.52-4.479-10-10-10c-5.53,0-10,4.48-10,10s4.47,10,10,10
			C194.95,396.688,199.43,392.208,199.43,386.688z"/>
	</g>
</g>
<g id="content" style="display:none;">
	<g style="display:inline;">
		<text transform="matrix(1 0 0 1 591.561 443.4375)" style="fill:#1B2528; font-family:'LeagueGothic'; font-size:102.347;">We design useful things</text>
		<rect x="524.414" y="498.783" style="fill:none;" width="871.172" height="226.564"/>
		<text transform="matrix(1 0 0 1 524.4146 527.0137)"><tspan x="0" y="0" style="fill:#1B2528; font-family:'PlayfairDisplay-Regular'; font-size:36;">True</tspan><tspan x="77.502" y="0" style="fill:#1B2528; font-family:'PlayfairDisplay-Regular'; font-size:36; letter-spacing:2;"> </tspan><tspan x="88.802" y="0" style="fill:#1B2528; font-family:'PlayfairDisplay-Regular'; font-size:36;">value</tspan><tspan x="173.757" y="0" style="fill:#1B2528; font-family:'PlayfairDisplay-Regular'; font-size:36; letter-spacing:2;"> </tspan><tspan x="185.057" y="0" style="fill:#1B2528; font-family:'PlayfairDisplay-Regular'; font-size:36;">comes</tspan><tspan x="288.504" y="0" style="fill:#1B2528; font-family:'PlayfairDisplay-Regular'; font-size:36; letter-spacing:2;"> </tspan><tspan x="299.805" y="0" style="fill:#1B2528; font-family:'PlayfairDisplay-Regular'; font-size:36;">from</tspan><tspan x="379.469" y="0" style="fill:#1B2528; font-family:'PlayfairDisplay-Regular'; font-size:36; letter-spacing:2;"> </tspan><tspan x="390.769" y="0" style="fill:#1B2528; font-family:'PlayfairDisplay-Regular'; font-size:36;">products</tspan><tspan x="535.542" y="0" style="fill:#1B2528; font-family:'PlayfairDisplay-Regular'; font-size:36; letter-spacing:2;"> </tspan><tspan x="546.842" y="0" style="fill:#1B2528; font-family:'PlayfairDisplay-Regular'; font-size:36;">that</tspan><tspan x="611.424" y="0" style="fill:#1B2528; font-family:'PlayfairDisplay-Regular'; font-size:36; letter-spacing:2;"> </tspan><tspan x="622.724" y="0" style="fill:#1B2528; font-family:'PlayfairDisplay-Regular'; font-size:36;">are</tspan><tspan x="674.878" y="0" style="fill:#1B2528; font-family:'PlayfairDisplay-Regular'; font-size:36; letter-spacing:2;"> </tspan><tspan x="686.179" y="0" style="fill:#1B2528; font-family:'PlayfairDisplay-Regular'; font-size:36;">purposeful. </tspan><tspan x="0" y="46" style="fill:#1B2528; font-family:'PlayfairDisplay-Regular'; font-size:36;">Our</tspan><tspan x="63.615" y="46" style="fill:#1B2528; font-family:'PlayfairDisplay-Regular'; font-size:36; letter-spacing:5;"> </tspan><tspan x="77.735" y="46" style="fill:#1B2528; font-family:'PlayfairDisplay-Regular'; font-size:36;">commitment</tspan><tspan x="286.616" y="46" style="fill:#1B2528; font-family:'PlayfairDisplay-Regular'; font-size:36; letter-spacing:5;"> </tspan><tspan x="300.736" y="46" style="fill:#1B2528; font-family:'PlayfairDisplay-Regular'; font-size:36;">as</tspan><tspan x="334.715" y="46" style="fill:#1B2528; font-family:'PlayfairDisplay-Regular'; font-size:36; letter-spacing:5;"> </tspan><tspan x="348.835" y="46" style="fill:#1B2528; font-family:'PlayfairDisplay-Regular'; font-size:36;">designers</tspan><tspan x="504.981" y="46" style="fill:#1B2528; font-family:'PlayfairDisplay-Regular'; font-size:36; letter-spacing:5;"> </tspan><tspan x="519.102" y="46" style="fill:#1B2528; font-family:'PlayfairDisplay-Regular'; font-size:36;">is</tspan><tspan x="545.697" y="46" style="fill:#1B2528; font-family:'PlayfairDisplay-Regular'; font-size:36; letter-spacing:5;"> </tspan><tspan x="559.817" y="46" style="fill:#1B2528; font-family:'PlayfairDisplay-Regular'; font-size:36;">to</tspan><tspan x="592.284" y="46" style="fill:#1B2528; font-family:'PlayfairDisplay-Regular'; font-size:36; letter-spacing:5;"> </tspan><tspan x="606.404" y="46" style="fill:#1B2528; font-family:'PlayfairDisplay-Regular'; font-size:36;">design</tspan><tspan x="712.277" y="46" style="fill:#1B2528; font-family:'PlayfairDisplay-Regular'; font-size:36; letter-spacing:5;"> </tspan><tspan x="726.397" y="46" style="fill:#1B2528; font-family:'PlayfairDisplay-Regular'; font-size:36;">products </tspan><tspan x="0" y="92" style="fill:#1B2528; font-family:'PlayfairDisplay-Regular'; font-size:36;">that</tspan><tspan x="64.582" y="92" style="fill:#1B2528; font-family:'PlayfairDisplay-Regular'; font-size:36; letter-spacing:4;"> </tspan><tspan x="77.963" y="92" style="fill:#1B2528; font-family:'PlayfairDisplay-Regular'; font-size:36;">have</tspan><tspan x="152.864" y="92" style="fill:#1B2528; font-family:'PlayfairDisplay-Regular'; font-size:36; letter-spacing:4;"> </tspan><tspan x="166.245" y="92" style="fill:#1B2528; font-family:'PlayfairDisplay-Regular'; font-size:36;">a</tspan><tspan x="184.175" y="92" style="fill:#1B2528; font-family:'PlayfairDisplay-Regular'; font-size:36; letter-spacing:4;"> </tspan><tspan x="197.556" y="92" style="fill:#1B2528; font-family:'PlayfairDisplay-Regular'; font-size:36;">meaningful</tspan><tspan x="381.036" y="92" style="fill:#1B2528; font-family:'PlayfairDisplay-Regular'; font-size:36; letter-spacing:4;"> </tspan><tspan x="394.417" y="92" style="fill:#1B2528; font-family:'PlayfairDisplay-Regular'; font-size:36;">impact</tspan><tspan x="506.021" y="92" style="fill:#1B2528; font-family:'PlayfairDisplay-Regular'; font-size:36; letter-spacing:4;"> </tspan><tspan x="519.402" y="92" style="fill:#1B2528; font-family:'PlayfairDisplay-Regular'; font-size:36;">on</tspan><tspan x="560.623" y="92" style="fill:#1B2528; font-family:'PlayfairDisplay-Regular'; font-size:36; letter-spacing:4;"> </tspan><tspan x="574.004" y="92" style="fill:#1B2528; font-family:'PlayfairDisplay-Regular'; font-size:36;">people&#x2019;s</tspan><tspan x="707.158" y="92" style="fill:#1B2528; font-family:'PlayfairDisplay-Regular'; font-size:36; letter-spacing:4;"> </tspan><tspan x="720.54" y="92" style="fill:#1B2528; font-family:'PlayfairDisplay-Regular'; font-size:36;">lives;</tspan><tspan x="803.508" y="92" style="fill:#1B2528; font-family:'PlayfairDisplay-Regular'; font-size:36; letter-spacing:4;"> </tspan><tspan x="816.89" y="92" style="fill:#1B2528; font-family:'PlayfairDisplay-Regular'; font-size:36;">IoT </tspan><tspan x="0" y="138" style="fill:#1B2528; font-family:'PlayfairDisplay-Regular'; font-size:36;">technologies are merely tools to achieve that. </tspan></text>
	</g>
	<g style="display:inline;">
		
			<rect x="1868.752" y="357.251" style="opacity:0.3;fill:none;stroke:#FFFFFF;stroke-width:2;stroke-miterlimit:10;" width="24.431" height="24.431"/>
		<circle style="fill:#FFFFFF;stroke:#FFFFFF;stroke-width:2;stroke-miterlimit:10;" cx="1880.968" cy="409.771" r="13.384"/>
		<path style="fill:none;stroke:#FFFFFF;stroke-width:2;stroke-miterlimit:10;" d="M1896.365,602.824
			c0-8.504-6.894-15.398-15.397-15.398c-8.505,0-15.398,6.894-15.398,15.398H1896.365z"/>
		
			<rect x="1870.782" y="658.253" transform="matrix(0.7071 0.7071 -0.7071 0.7071 1023.5495 -1134.2494)" style="fill:none;stroke:#FFFFFF;stroke-width:2;stroke-miterlimit:10;" width="20.372" height="20.372"/>
		<polygon style="fill:none;stroke:#FFFFFF;stroke-width:2;stroke-miterlimit:10;" points="1873.703,497.806 1866.439,485.224 
			1873.703,472.642 1888.231,472.642 1895.495,485.224 1888.231,497.806 		"/>
		
			<rect x="1873.89" y="512.511" style="fill:none;stroke:#FFFFFF;stroke-width:2;stroke-miterlimit:10;" width="14.156" height="25.164"/>
		<path style="fill:none;stroke:#FFFFFF;stroke-width:2;stroke-miterlimit:10;" d="M1875.421,572.72
			c-5.618,0-10.171-4.553-10.171-10.17c0-5.616,4.553-10.17,10.171-10.17h11.094c5.616,0,10.169,4.554,10.169,10.17
			c0,5.617-4.553,10.17-10.169,10.17H1875.421z"/>
		<polygon style="fill:none;stroke:#FFFFFF;stroke-width:2;stroke-miterlimit:10;" points="1868.382,639.328 1880.968,617.529 
			1893.552,639.328 		"/>
		<polygon style="fill:none;stroke:#FFFFFF;stroke-width:2;stroke-miterlimit:10;" points="1895.075,457.936 1866.859,457.936 
			1872.914,437.86 1889.021,437.86 		"/>
		<polygon style="fill:none;stroke:#FFFFFF;stroke-width:2;stroke-miterlimit:10;" points="1872.778,722.749 1867.718,707.173 
			1880.968,697.549 1894.218,707.173 1889.155,722.749 		"/>
	</g>
	<g style="display:inline;">
		<rect x="1805.452" y="50" style="fill:#FFFFFF;" width="61.826" height="61.828"/>
		<text transform="matrix(1 0 0 1 1827.9453 99.04)" style="fill:#47D681; font-family:'LeagueGothic'; font-size:44.7768;">ii</text>
	</g>
	<text transform="matrix(1 0 0 1 50 97.1138)" style="display:inline;fill:#FFFFFF; font-family:'LeagueGothic'; font-size:60;">iot design manifesto 1.0</text>
	
		<text transform="matrix(1 0 0 1 1749.8359 1027.0645)" style="display:inline;fill:#FFFFFF; font-family:'LeagueGothic'; font-size:36;">initiators?</text>
</g>
<g id="assets" style="display:none;">
</g>
</svg>
