<?xml version="1.0" encoding="iso-8859-1"?>
<!-- Generator: Adobe Illustrator 16.0.4, SVG Export Plug-In . SVG Version: 6.00 Build 0)  -->
<!DOCTYPE svg PUBLIC "-//W3C//DTD SVG 1.1//EN" "http://www.w3.org/Graphics/SVG/1.1/DTD/svg11.dtd">
<svg version="1.1" xmlns="http://www.w3.org/2000/svg" xmlns:xlink="http://www.w3.org/1999/xlink" x="0px" y="0px" width="1920px"
	 height="1080px" viewBox="0 0 1920 1080" style="enable-background:new 0 0 1920 1080;" xml:space="preserve">
<g id="backdrop" style="display:none;">
	<rect y="-1080" style="display:inline;fill:#47D681;" width="1920" height="1080"/>
	<rect style="display:inline;fill:#4F97BF;" width="1920" height="1080"/>
	<rect y="1080" style="display:inline;fill:#F19B2B;" width="1920" height="1080"/>
	<g style="display:inline;">
		<polygon style="fill:#FFFFFF;" points="50,980.133 50,1017.486 75.095,1017.486 86.562,1030 86.562,1017.486 93.221,1017.486 
			93.221,980.133 		"/>
		<text transform="matrix(1 0 0 1 67.5903 1007.7949)" style="font-family:'LeagueGothic'; font-size:24;">3</text>
	</g>
</g>
<g id="lines">
	<g>
		<path style="fill:#FFFFFF;" d="M1209.791,478.342H668.252l116.572-386.52h308.398L1209.791,478.342z M706.791,449.711h464.461
			l-99.299-329.258H806.094L706.791,449.711z"/>
	</g>
	<g style="opacity:0.4;">
		<path style="fill:#FFFFFF;" d="M1566.479,1081.538c1.954,0,3.772-0.569,5.313-1.538h-10.627
			C1562.707,1080.969,1564.525,1081.538,1566.479,1081.538z"/>
	</g>
	<g style="opacity:0.4;">
		<path style="fill:#FFFFFF;" d="M949.02,67.118c0-5.52-4.479-10-10-10c-5.52,0-10,4.48-10,10s4.48,10,10,10
			C944.54,77.118,949.02,72.638,949.02,67.118z"/>
		<path style="fill:#FFFFFF;" d="M939.02,17.118c-5.52,0-10,4.48-10,10s4.48,10,10,10c5.521,0,10-4.48,10-10
			S944.54,17.118,939.02,17.118z"/>
	</g>
	<g style="opacity:0.4;">
		<path style="fill:#FFFFFF;" d="M1576.479,1071.538c0-5.52-4.479-9.99-10-9.99c-5.52,0-10,4.47-10,9.99
			c0,3.572,1.876,6.693,4.687,8.462h10.627C1574.604,1078.231,1576.479,1075.11,1576.479,1071.538z"/>
		<path style="fill:#FFFFFF;" d="M1498.31,285.078c0-5.52-4.47-9.99-10-9.99c-5.52,0-10,4.47-10,9.99c0,5.53,4.48,10,10,10
			C1493.84,295.078,1498.31,290.608,1498.31,285.078z"/>
		<path style="fill:#FFFFFF;" d="M1459.229,285.078c0-5.52-4.479-9.99-10-9.99c-5.52,0-10,4.47-10,9.99c0,5.53,4.48,10,10,10
			C1454.75,295.078,1459.229,290.608,1459.229,285.078z"/>
		<path style="fill:#FFFFFF;" d="M1537.39,285.078c0-5.52-4.47-9.99-9.99-9.99c-5.529,0-10,4.47-10,9.99c0,5.53,4.471,10,10,10
			C1532.92,295.078,1537.39,290.608,1537.39,285.078z"/>
		<path style="fill:#FFFFFF;" d="M1566.479,334.408c5.521,0,10-4.48,10-10s-4.479-10-10-10c-5.52,0-10,4.48-10,10
			S1560.96,334.408,1566.479,334.408z"/>
		<path style="fill:#FFFFFF;" d="M1566.479,452.378c5.521,0,10-4.48,10-10c0-5.53-4.479-10-10-10c-5.52,0-10,4.47-10,10
			C1556.479,447.898,1560.96,452.378,1566.479,452.378z"/>
		<path style="fill:#FFFFFF;" d="M1566.479,413.048c5.521,0,10-4.47,10-10c0-5.52-4.479-10-10-10c-5.52,0-10,4.48-10,10
			C1556.479,408.578,1560.96,413.048,1566.479,413.048z"/>
		<path style="fill:#FFFFFF;" d="M1224.72,285.078c0-5.52-4.479-9.99-10-9.99c-5.52,0-10,4.47-10,9.99c0,5.53,4.48,10,10,10
			C1220.24,295.078,1224.72,290.608,1224.72,285.078z"/>
		<path style="fill:#FFFFFF;" d="M1566.479,491.698c5.521,0,10-4.48,10-10s-4.479-10-10-10c-5.52,0-10,4.48-10,10
			S1560.96,491.698,1566.479,491.698z"/>
		<path style="fill:#FFFFFF;" d="M1185.64,285.078c0-5.52-4.479-9.99-10-9.99c-5.53,0-10,4.47-10,9.99c0,5.53,4.47,10,10,10
			C1181.16,295.078,1185.64,290.608,1185.64,285.078z"/>
		<path style="fill:#FFFFFF;" d="M1263.81,285.078c0-5.52-4.479-9.99-10-9.99c-5.53,0-10,4.47-10,9.99c0,5.53,4.47,10,10,10
			C1259.33,295.078,1263.81,290.608,1263.81,285.078z"/>
		<path style="fill:#FFFFFF;" d="M1341.979,285.078c0-5.52-4.479-9.99-10-9.99c-5.529,0-10,4.47-10,9.99c0,5.53,4.471,10,10,10
			C1337.5,295.078,1341.979,290.608,1341.979,285.078z"/>
		<path style="fill:#FFFFFF;" d="M1381.06,285.078c0-5.52-4.479-9.99-10-9.99c-5.53,0-10,4.47-10,9.99c0,5.53,4.47,10,10,10
			C1376.58,295.078,1381.06,290.608,1381.06,285.078z"/>
		<path style="fill:#FFFFFF;" d="M1420.14,285.078c0-5.52-4.47-9.99-10-9.99c-5.52,0-10,4.47-10,9.99c0,5.53,4.48,10,10,10
			C1415.67,295.078,1420.14,290.608,1420.14,285.078z"/>
		<path style="fill:#FFFFFF;" d="M1302.89,285.078c0-5.52-4.479-9.99-10-9.99c-5.52,0-10,4.47-10,9.99c0,5.53,4.48,10,10,10
			C1298.41,295.078,1302.89,290.608,1302.89,285.078z"/>
		<path style="fill:#FFFFFF;" d="M1566.479,373.728c5.521,0,10-4.48,10-10s-4.479-10-10-10c-5.52,0-10,4.48-10,10
			S1560.96,373.728,1566.479,373.728z"/>
		<path style="fill:#FFFFFF;" d="M1566.479,924.248c5.521,0,10-4.47,10-10c0-5.52-4.479-10-10-10c-5.52,0-10,4.48-10,10
			C1556.479,919.778,1560.96,924.248,1566.479,924.248z"/>
		<path style="fill:#FFFFFF;" d="M1566.479,531.018c5.521,0,10-4.48,10-10s-4.479-10-10-10c-5.52,0-10,4.48-10,10
			S1560.96,531.018,1566.479,531.018z"/>
		<path style="fill:#FFFFFF;" d="M1566.479,963.578c5.521,0,10-4.48,10-10c0-5.53-4.479-10-10-10c-5.52,0-10,4.47-10,10
			C1556.479,959.098,1560.96,963.578,1566.479,963.578z"/>
		<path style="fill:#FFFFFF;" d="M1566.479,1042.218c5.521,0,10-4.48,10-10c0-5.52-4.479-10-10-10c-5.52,0-10,4.48-10,10
			C1556.479,1037.738,1560.96,1042.218,1566.479,1042.218z"/>
		<path style="fill:#FFFFFF;" d="M1566.479,275.078c-2.63,0-5.21,1.07-7.069,2.93c-1.86,1.87-2.931,4.44-2.931,7.07
			s1.07,5.21,2.931,7.08c1.859,1.86,4.439,2.92,7.069,2.92s5.21-1.06,7.07-2.92c1.86-1.87,2.93-4.45,2.93-7.08s-1.069-5.2-2.93-7.07
			C1571.689,276.148,1569.109,275.078,1566.479,275.078z"/>
		<path style="fill:#FFFFFF;" d="M1566.479,845.608c5.521,0,10-4.48,10-10c0-5.53-4.479-10-10-10c-5.52,0-10,4.47-10,10
			C1556.479,841.128,1560.96,845.608,1566.479,845.608z"/>
		<path style="fill:#FFFFFF;" d="M1566.479,1002.898c5.521,0,10-4.48,10-10s-4.479-10-10-10c-5.52,0-10,4.48-10,10
			S1560.96,1002.898,1566.479,1002.898z"/>
		<path style="fill:#FFFFFF;" d="M1566.479,884.928c5.521,0,10-4.48,10-10s-4.479-10-10-10c-5.52,0-10,4.48-10,10
			S1560.96,884.928,1566.479,884.928z"/>
		<path style="fill:#FFFFFF;" d="M1566.479,609.668c5.521,0,10-4.48,10-10s-4.479-10-10-10c-5.52,0-10,4.48-10,10
			S1560.96,609.668,1566.479,609.668z"/>
		<path style="fill:#FFFFFF;" d="M1566.479,648.988c5.521,0,10-4.48,10-10c0-5.52-4.479-10-10-10c-5.52,0-10,4.48-10,10
			C1556.479,644.508,1560.96,648.988,1566.479,648.988z"/>
		<path style="fill:#FFFFFF;" d="M1566.479,570.338c5.521,0,10-4.47,10-9.99c0-5.53-4.479-10-10-10c-5.52,0-10,4.47-10,10
			C1556.479,565.868,1560.96,570.338,1566.479,570.338z"/>
		<path style="fill:#FFFFFF;" d="M1566.479,727.638c5.521,0,10-4.48,10-10c0-5.53-4.479-10-10-10c-5.52,0-10,4.47-10,10
			C1556.479,723.158,1560.96,727.638,1566.479,727.638z"/>
		<path style="fill:#FFFFFF;" d="M1566.479,766.958c5.521,0,10-4.48,10-10s-4.479-10-10-10c-5.52,0-10,4.48-10,10
			S1560.96,766.958,1566.479,766.958z"/>
		<path style="fill:#FFFFFF;" d="M1566.479,688.318c5.521,0,10-4.48,10-10.01c0-5.52-4.479-10-10-10c-5.52,0-10,4.48-10,10
			C1556.479,683.838,1560.96,688.318,1566.479,688.318z"/>
		<path style="fill:#FFFFFF;" d="M1566.479,806.278c5.521,0,10-4.47,10-10c0-5.52-4.479-10-10-10c-5.52,0-10,4.48-10,10
			C1556.479,801.808,1560.96,806.278,1566.479,806.278z"/>
	</g>
</g>
<g id="content" style="display:none;">
	<g style="display:inline;">
		<text transform="matrix(1 0 0 1 540.6436 443.4375)" style="fill:#1B2528; font-family:'LeagueGothic'; font-size:102.347;">we aim for the win-win-win</text>
		<rect x="524.414" y="498.783" style="fill:none;" width="871.172" height="226.564"/>
		<text transform="matrix(1 0 0 1 524.4146 527.0137)"><tspan x="0" y="0" style="fill:#1B2528; font-family:'PlayfairDisplay-Regular'; font-size:36;">A</tspan><tspan x="22.676" y="0" style="fill:#1B2528; font-family:'PlayfairDisplay-Regular'; font-size:36; letter-spacing:14;"> </tspan><tspan x="46.009" y="0" style="fill:#1B2528; font-family:'PlayfairDisplay-Regular'; font-size:36;">more</tspan><tspan x="131.931" y="0" style="fill:#1B2528; font-family:'PlayfairDisplay-Regular'; font-size:36; letter-spacing:14;"> </tspan><tspan x="155.265" y="0" style="fill:#1B2528; font-family:'PlayfairDisplay-Regular'; font-size:36;">complex</tspan><tspan x="292.567" y="0" style="fill:#1B2528; font-family:'PlayfairDisplay-Regular'; font-size:36; letter-spacing:14;"> </tspan><tspan x="315.901" y="0" style="fill:#1B2528; font-family:'PlayfairDisplay-Regular'; font-size:36;">web</tspan><tspan x="382.1" y="0" style="fill:#1B2528; font-family:'PlayfairDisplay-Regular'; font-size:36; letter-spacing:14;"> </tspan><tspan x="405.434" y="0" style="fill:#1B2528; font-family:'PlayfairDisplay-Regular'; font-size:36;">of</tspan><tspan x="437.11" y="0" style="fill:#1B2528; font-family:'PlayfairDisplay-Regular'; font-size:36; letter-spacing:14;"> </tspan><tspan x="460.443" y="0" style="fill:#1B2528; font-family:'PlayfairDisplay-Regular'; font-size:36;">stakeholders</tspan><tspan x="667.549" y="0" style="fill:#1B2528; font-family:'PlayfairDisplay-Regular'; font-size:36; letter-spacing:14;"> </tspan><tspan x="690.882" y="0" style="fill:#1B2528; font-family:'PlayfairDisplay-Regular'; font-size:36;">is</tspan><tspan x="717.478" y="0" style="fill:#1B2528; font-family:'PlayfairDisplay-Regular'; font-size:36; letter-spacing:14;"> </tspan><tspan x="740.812" y="0" style="fill:#1B2528; font-family:'PlayfairDisplay-Regular'; font-size:36;">forming </tspan><tspan x="0" y="46" style="fill:#1B2528; font-family:'PlayfairDisplay-Regular'; font-size:36;">around</tspan><tspan x="117" y="46" style="fill:#1B2528; font-family:'PlayfairDisplay-Regular'; font-size:36; letter-spacing:4;"> </tspan><tspan x="130.309" y="46" style="fill:#1B2528; font-family:'PlayfairDisplay-Regular'; font-size:36;">IoT</tspan><tspan x="184.59" y="46" style="fill:#1B2528; font-family:'PlayfairDisplay-Regular'; font-size:36; letter-spacing:4;"> </tspan><tspan x="197.899" y="46" style="fill:#1B2528; font-family:'PlayfairDisplay-Regular'; font-size:36;">products:</tspan><tspan x="352.253" y="46" style="fill:#1B2528; font-family:'PlayfairDisplay-Regular'; font-size:36; letter-spacing:4;"> </tspan><tspan x="365.562" y="46" style="fill:#1B2528; font-family:'PlayfairDisplay-Regular'; font-size:36;">from</tspan><tspan x="445.226" y="46" style="fill:#1B2528; font-family:'PlayfairDisplay-Regular'; font-size:36; letter-spacing:4;"> </tspan><tspan x="458.535" y="46" style="fill:#1B2528; font-family:'PlayfairDisplay-Regular'; font-size:36;">users,</tspan><tspan x="555.179" y="46" style="fill:#1B2528; font-family:'PlayfairDisplay-Regular'; font-size:36; letter-spacing:4;"> </tspan><tspan x="568.488" y="46" style="fill:#1B2528; font-family:'PlayfairDisplay-Regular'; font-size:36;">to</tspan><tspan x="600.955" y="46" style="fill:#1B2528; font-family:'PlayfairDisplay-Regular'; font-size:36; letter-spacing:4;"> </tspan><tspan x="614.264" y="46" style="fill:#1B2528; font-family:'PlayfairDisplay-Regular'; font-size:36;">businesses,</tspan><tspan x="797.516" y="46" style="fill:#1B2528; font-family:'PlayfairDisplay-Regular'; font-size:36; letter-spacing:4;"> </tspan><tspan x="810.825" y="46" style="fill:#1B2528; font-family:'PlayfairDisplay-Regular'; font-size:36;">and </tspan><tspan x="0" y="92" style="fill:#1B2528; font-family:'PlayfairDisplay-Regular'; font-size:36;">everyone</tspan><tspan x="147.604" y="92" style="fill:#1B2528; font-family:'PlayfairDisplay-Regular'; font-size:36; letter-spacing:1;"> </tspan><tspan x="157.707" y="92" style="fill:#1B2528; font-family:'PlayfairDisplay-Regular'; font-size:36;">in</tspan><tspan x="189.752" y="92" style="fill:#1B2528; font-family:'PlayfairDisplay-Regular'; font-size:36; letter-spacing:1;"> </tspan><tspan x="199.855" y="92" style="fill:#1B2528; font-family:'PlayfairDisplay-Regular'; font-size:36;">between.</tspan><tspan x="345.789" y="92" style="fill:#1B2528; font-family:'PlayfairDisplay-Regular'; font-size:36; letter-spacing:1;"> </tspan><tspan x="355.892" y="92" style="fill:#1B2528; font-family:'PlayfairDisplay-Regular'; font-size:36;">We</tspan><tspan x="406.675" y="92" style="fill:#1B2528; font-family:'PlayfairDisplay-Regular'; font-size:36; letter-spacing:1;"> </tspan><tspan x="416.779" y="92" style="fill:#1B2528; font-family:'PlayfairDisplay-Regular'; font-size:36;">need</tspan><tspan x="495.617" y="92" style="fill:#1B2528; font-family:'PlayfairDisplay-Regular'; font-size:36; letter-spacing:1;"> </tspan><tspan x="505.72" y="92" style="fill:#1B2528; font-family:'PlayfairDisplay-Regular'; font-size:36;">to</tspan><tspan x="538.187" y="92" style="fill:#1B2528; font-family:'PlayfairDisplay-Regular'; font-size:36; letter-spacing:1;"> </tspan><tspan x="548.291" y="92" style="fill:#1B2528; font-family:'PlayfairDisplay-Regular'; font-size:36;">design</tspan><tspan x="654.164" y="92" style="fill:#1B2528; font-family:'PlayfairDisplay-Regular'; font-size:36; letter-spacing:1;"> </tspan><tspan x="664.267" y="92" style="fill:#1B2528; font-family:'PlayfairDisplay-Regular'; font-size:36;">so</tspan><tspan x="700.038" y="92" style="fill:#1B2528; font-family:'PlayfairDisplay-Regular'; font-size:36; letter-spacing:1;"> </tspan><tspan x="710.142" y="92" style="fill:#1B2528; font-family:'PlayfairDisplay-Regular'; font-size:36;">that</tspan><tspan x="774.724" y="92" style="fill:#1B2528; font-family:'PlayfairDisplay-Regular'; font-size:36; letter-spacing:1;"> </tspan><tspan x="784.827" y="92" style="fill:#1B2528; font-family:'PlayfairDisplay-Regular'; font-size:36;">there </tspan><tspan x="0" y="138" style="fill:#1B2528; font-family:'PlayfairDisplay-Regular'; font-size:36;">is a win for everybody in this elaborate exchange. </tspan></text>
	</g>
	<g style="display:inline;">
		
			<rect x="1868.752" y="357.251" style="opacity:0.3;fill:none;stroke:#FFFFFF;stroke-width:2;stroke-miterlimit:10;" width="24.431" height="24.431"/>
		
			<circle style="opacity:0.3;fill:none;stroke:#FFFFFF;stroke-width:2;stroke-miterlimit:10;" cx="1880.968" cy="409.771" r="13.384"/>
		<path style="fill:none;stroke:#FFFFFF;stroke-width:2;stroke-miterlimit:10;" d="M1896.365,602.824
			c0-8.504-6.894-15.398-15.397-15.398c-8.505,0-15.398,6.894-15.398,15.398H1896.365z"/>
		
			<rect x="1870.782" y="658.253" transform="matrix(0.7071 0.7071 -0.7071 0.7071 1023.5495 -1134.2494)" style="fill:none;stroke:#FFFFFF;stroke-width:2;stroke-miterlimit:10;" width="20.372" height="20.372"/>
		<polygon style="fill:none;stroke:#FFFFFF;stroke-width:2;stroke-miterlimit:10;" points="1873.703,497.806 1866.439,485.224 
			1873.703,472.642 1888.231,472.642 1895.495,485.224 1888.231,497.806 		"/>
		
			<rect x="1873.89" y="512.511" style="fill:none;stroke:#FFFFFF;stroke-width:2;stroke-miterlimit:10;" width="14.156" height="25.164"/>
		<path style="fill:none;stroke:#FFFFFF;stroke-width:2;stroke-miterlimit:10;" d="M1875.421,572.72
			c-5.618,0-10.171-4.553-10.171-10.17c0-5.616,4.553-10.17,10.171-10.17h11.094c5.616,0,10.169,4.554,10.169,10.17
			c0,5.617-4.553,10.17-10.169,10.17H1875.421z"/>
		<polygon style="fill:none;stroke:#FFFFFF;stroke-width:2;stroke-miterlimit:10;" points="1868.382,639.328 1880.968,617.529 
			1893.552,639.328 		"/>
		<polygon style="fill:#FFFFFF;stroke:#FFFFFF;stroke-width:2;stroke-miterlimit:10;" points="1895.075,457.936 1866.859,457.936 
			1872.914,437.86 1889.021,437.86 		"/>
		<polygon style="fill:none;stroke:#FFFFFF;stroke-width:2;stroke-miterlimit:10;" points="1872.778,722.749 1867.718,707.173 
			1880.968,697.549 1894.218,707.173 1889.155,722.749 		"/>
	</g>
	<g style="display:inline;">
		<rect x="1805.452" y="50" style="fill:#FFFFFF;" width="61.826" height="61.828"/>
		<text transform="matrix(1 0 0 1 1823.7373 99.04)" style="fill:#4F97BF; font-family:'LeagueGothic'; font-size:44.7768;">iii</text>
	</g>
	<text transform="matrix(1 0 0 1 50 99.439)" style="display:inline;fill:#FFFFFF; font-family:'LeagueGothic'; font-size:60;">iot design manifesto 1.0</text>
	
		<text transform="matrix(1 0 0 1 1749.8359 1027.0645)" style="display:inline;fill:#FFFFFF; font-family:'LeagueGothic'; font-size:36;">initiators?</text>
</g>
<g id="assets" style="display:none;">
</g>
</svg>
