<?xml version="1.0" encoding="iso-8859-1"?>
<!-- Generator: Adobe Illustrator 16.0.4, SVG Export Plug-In . SVG Version: 6.00 Build 0)  -->
<!DOCTYPE svg PUBLIC "-//W3C//DTD SVG 1.1//EN" "http://www.w3.org/Graphics/SVG/1.1/DTD/svg11.dtd">
<svg version="1.1" xmlns="http://www.w3.org/2000/svg" xmlns:xlink="http://www.w3.org/1999/xlink" x="0px" y="0px" width="1920px"
	 height="1080px" viewBox="0 0 1920 1080" style="enable-background:new 0 0 1920 1080;" xml:space="preserve">
<g id="backdrop" style="display:none;">
	<rect y="-1080" style="display:inline;fill:#4F97BF;" width="1920" height="1080"/>
	<rect style="display:inline;fill:#F19B2B;" width="1920" height="1080"/>
	<rect y="1080" style="display:inline;fill:#229F86;" width="1920" height="1080"/>
	<g style="display:inline;">
		<polygon style="fill:#FFFFFF;" points="50,980.133 50,1017.486 75.094,1017.486 86.563,1030 86.563,1017.486 93.221,1017.486 
			93.221,980.133 		"/>
		<text transform="matrix(1 0 0 1 67.5903 1007.7949)" style="font-family:'LeagueGothic'; font-size:24;">3</text>
	</g>
</g>
<g id="lines">
	<g>
		<path style="fill:#FFFFFF;" d="M501.392,914.649H225.866L88.103,676.033l137.764-238.616h275.525l137.764,238.616L501.392,914.649
			z M242.396,886.019h242.465l121.233-209.985L484.861,466.048H242.396L121.163,676.033L242.396,886.019z"/>
	</g>
	<g style="opacity:0.4;">
		<path style="fill:#FFFFFF;" d="M1115.43,188.158c0,5.521,4.48,10,10.01,10c5.521,0,10-4.479,10-10s-4.479-10-10-10
			C1119.91,178.158,1115.43,182.638,1115.43,188.158z"/>
		<path style="fill:#FFFFFF;" d="M1075.34,188.158c0,5.521,4.479,10,10,10c5.52,0,10-4.479,10-10s-4.48-10-10-10
			C1079.819,178.158,1075.34,182.638,1075.34,188.158z"/>
		<path style="fill:#FFFFFF;" d="M1155.529,188.158c0,5.521,4.48,10,10,10c5.521,0,10-4.479,10-10s-4.479-10-10-10
			C1160.01,178.158,1155.529,182.638,1155.529,188.158z"/>
		<path style="fill:#FFFFFF;" d="M1195.62,188.158c0,5.521,4.479,10,10,10c5.529,0,10-4.479,10-10s-4.471-10-10-10
			C1200.1,178.158,1195.62,182.638,1195.62,188.158z"/>
		<path style="fill:#FFFFFF;" d="M995.149,188.158c0,5.521,4.471,10,10,10c5.521,0,10-4.479,10-10s-4.479-10-10-10
			C999.62,178.158,995.149,182.638,995.149,188.158z"/>
		<path style="fill:#FFFFFF;" d="M874.859,188.158c0,5.521,4.48,10,10,10c5.53,0,10-4.479,10-10s-4.47-10-10-10
			C879.34,178.158,874.859,182.638,874.859,188.158z"/>
		<path style="fill:#FFFFFF;" d="M955.05,188.158c0,5.521,4.479,10,10,10c5.52,0,10.01-4.479,10.01-10s-4.49-10-10.01-10
			C959.529,178.158,955.05,182.638,955.05,188.158z"/>
		<path style="fill:#FFFFFF;" d="M1035.24,188.158c0,5.521,4.479,10,10,10c5.529,0,10-4.479,10-10s-4.471-10-10-10
			C1039.72,178.158,1035.24,182.638,1035.24,188.158z"/>
		<path style="fill:#FFFFFF;" d="M1275.81,188.158c0,5.521,4.48,10,10.01,10c5.521,0,9.99-4.479,9.99-10s-4.47-10-9.99-10
			C1280.29,178.158,1275.81,182.638,1275.81,188.158z"/>
		<path style="fill:#FFFFFF;" d="M914.96,188.158c0,5.521,4.479,10,10,10c5.52,0,10-4.479,10-10s-4.48-10-10-10
			C919.439,178.158,914.96,182.638,914.96,188.158z"/>
		<path style="fill:#FFFFFF;" d="M1566.479,60.188c-5.52,0-10,4.48-10,10s4.48,10,10,10c5.521,0,10-4.48,10-10
			S1572,60.188,1566.479,60.188z"/>
		<path style="fill:#FFFFFF;" d="M1516.39,188.158c0,5.521,4.47,10,9.99,10c5.53,0,10-4.479,10-10s-4.47-10-10-10
			C1520.859,178.158,1516.39,182.638,1516.39,188.158z"/>
		<path style="fill:#FFFFFF;" d="M1566.479,99.508c-5.52,0-10,4.48-10,10c0,5.53,4.48,10,10,10c5.521,0,10-4.47,10-10
			C1576.479,103.988,1572,99.508,1566.479,99.508z"/>
		<path style="fill:#FFFFFF;" d="M1566.479,138.838c-5.52,0-10,4.47-10,10c0,5.521,4.48,10,10,10c5.521,0,10-4.479,10-10
			C1576.479,143.308,1572,138.838,1566.479,138.838z"/>
		<path style="fill:#FFFFFF;" d="M1559.41,181.088c-1.86,1.86-2.931,4.44-2.931,7.07s1.07,5.21,2.931,7.069
			c1.859,1.86,4.439,2.931,7.069,2.931s5.21-1.07,7.07-2.931c1.86-1.859,2.93-4.439,2.93-7.069s-1.069-5.21-2.93-7.07
			s-4.44-2.93-7.07-2.93S1561.27,179.228,1559.41,181.088z"/>
		<path style="fill:#FFFFFF;" d="M1436.189,188.158c0,5.521,4.48,10,10,10c5.53,0,10-4.479,10-10s-4.47-10-10-10
			C1440.67,178.158,1436.189,182.638,1436.189,188.158z"/>
		<path style="fill:#FFFFFF;" d="M1396.1,188.158c0,5.521,4.48,10,10,10c5.521,0,10-4.479,10-10s-4.479-10-10-10
			C1400.58,178.158,1396.1,182.638,1396.1,188.158z"/>
		<path style="fill:#FFFFFF;" d="M1356.01,188.158c0,5.521,4.47,10,9.99,10c5.529,0,10-4.479,10-10s-4.471-10-10-10
			C1360.479,178.158,1356.01,182.638,1356.01,188.158z"/>
		<path style="fill:#FFFFFF;" d="M1315.91,188.158c0,5.521,4.479,10,10,10c5.52,0,10-4.479,10-10s-4.48-10-10-10
			C1320.39,178.158,1315.91,182.638,1315.91,188.158z"/>
		<path style="fill:#FFFFFF;" d="M1476.29,188.158c0,5.521,4.479,10,10,10c5.52,0,10-4.479,10-10s-4.48-10-10-10
			C1480.77,178.158,1476.29,182.638,1476.29,188.158z"/>
		<path style="fill:#FFFFFF;" d="M1235.72,188.158c0,5.521,4.48,10,10,10c5.521,0,10-4.479,10-10s-4.479-10-10-10
			C1240.2,178.158,1235.72,182.638,1235.72,188.158z"/>
		<path style="fill:#FFFFFF;" d="M393.729,188.158c0,5.521,4.471,10,9.99,10c5.53,0,10-4.479,10-10s-4.47-10-10-10
			C398.2,178.158,393.729,182.638,393.729,188.158z"/>
		<path style="fill:#FFFFFF;" d="M363.63,292.508c-5.521,0-10,4.479-10,10s4.479,10,10,10c5.52,0,10-4.479,10-10
			S369.149,292.508,363.63,292.508z"/>
		<path style="fill:#FFFFFF;" d="M363.63,254.388c-5.521,0-10,4.48-10,10.01c0,5.521,4.479,9.99,10,9.99c5.52,0,10-4.47,10-9.99
			C373.63,258.868,369.149,254.388,363.63,254.388z"/>
		<path style="fill:#FFFFFF;" d="M363.63,330.628c-5.521,0-10,4.471-10,10c0,5.52,4.479,10,10,10c5.52,0,10-4.48,10-10
			C373.63,335.099,369.149,330.628,363.63,330.628z"/>
		<path style="fill:#FFFFFF;" d="M363.63,368.737c-5.521,0-10,4.48-10,10c0,5.531,4.479,10.011,10,10.011c5.52,0,10-4.479,10-10.011
			C373.63,373.218,369.149,368.737,363.63,368.737z"/>
		<path style="fill:#FFFFFF;" d="M363.63,216.278c-5.521,0-10,4.47-10,10c0,5.52,4.479,10,10,10c5.52,0,10-4.48,10-10
			C373.63,220.748,369.149,216.278,363.63,216.278z"/>
		<path style="fill:#FFFFFF;" d="M370.7,181.088c-1.86-1.86-4.44-2.93-7.07-2.93c-2.64,0-5.21,1.069-7.07,2.93
			c-1.859,1.86-2.93,4.44-2.93,7.07s1.07,5.21,2.93,7.069c1.86,1.86,4.44,2.931,7.07,2.931s5.21-1.07,7.07-2.931
			c1.859-1.859,2.93-4.439,2.93-7.069S372.56,182.948,370.7,181.088z"/>
		<path style="fill:#FFFFFF;" d="M1566.479,1.538c1.954,0,3.772-0.569,5.313-1.538h-10.627
			C1562.707,0.969,1564.525,1.538,1566.479,1.538z"/>
		<path style="fill:#FFFFFF;" d="M1566.479,20.868c-5.52,0-10,4.47-10,10c0,5.52,4.48,10,10,10c5.521,0,10-4.48,10-10
			C1576.479,25.338,1572,20.868,1566.479,20.868z"/>
		<path style="fill:#FFFFFF;" d="M363.63,426.858c2.63,0,5.21-1.07,7.07-2.93c1.859-1.861,2.93-4.441,2.93-7.07
			c0-2.631-1.07-5.2-2.93-7.07c-1.86-1.859-4.44-2.93-7.07-2.93s-5.21,1.07-7.07,2.93c-1.859,1.859-2.93,4.439-2.93,7.07
			c0,2.64,1.07,5.209,2.93,7.07C358.42,425.788,361,426.858,363.63,426.858z"/>
		<path style="fill:#FFFFFF;" d="M554.109,188.158c0,5.521,4.471,10,9.99,10c5.53,0,10-4.479,10-10s-4.47-10-10-10
			C558.58,178.158,554.109,182.638,554.109,188.158z"/>
		<path style="fill:#FFFFFF;" d="M634.29,188.158c0,5.521,4.479,10,10,10c5.529,0,10-4.479,10-10s-4.471-10-10-10
			C638.77,178.158,634.29,182.638,634.29,188.158z"/>
		<path style="fill:#FFFFFF;" d="M674.39,188.158c0,5.521,4.47,10,10,10c5.521,0,10-4.479,10-10s-4.479-10-10-10
			C678.859,178.158,674.39,182.638,674.39,188.158z"/>
		<path style="fill:#FFFFFF;" d="M433.819,188.158c0,5.521,4.48,10,10,10c5.521,0,10-4.479,10-10s-4.479-10-10-10
			C438.3,178.158,433.819,182.638,433.819,188.158z"/>
		<path style="fill:#FFFFFF;" d="M754.58,188.158c0,5.521,4.479,10,10,10c5.52,0,10-4.479,10-10s-4.48-10-10-10
			C759.06,178.158,754.58,182.638,754.58,188.158z"/>
		<path style="fill:#FFFFFF;" d="M794.67,188.158c0,5.521,4.479,10,10,10c5.52,0,10-4.479,10-10s-4.48-10-10-10
			C799.149,178.158,794.67,182.638,794.67,188.158z"/>
		<path style="fill:#FFFFFF;" d="M714.479,188.158c0,5.521,4.48,10,10,10c5.53,0,10-4.479,10-10s-4.47-10-10-10
			C718.96,178.158,714.479,182.638,714.479,188.158z"/>
		<path style="fill:#FFFFFF;" d="M473.91,188.158c0,5.521,4.479,10,10.01,10c5.52,0,9.99-4.479,9.99-10s-4.471-10-9.99-10
			C478.39,178.158,473.91,182.638,473.91,188.158z"/>
		<path style="fill:#FFFFFF;" d="M514.01,188.158c0,5.521,4.47,10,10,10c5.521,0,10-4.479,10-10s-4.479-10-10-10
			C518.479,178.158,514.01,182.638,514.01,188.158z"/>
		<path style="fill:#FFFFFF;" d="M594.2,188.158c0,5.521,4.479,10,10,10c5.52,0,10-4.479,10-10s-4.48-10-10-10
			C598.68,178.158,594.2,182.638,594.2,188.158z"/>
		<path style="fill:#FFFFFF;" d="M834.77,188.158c0,5.521,4.471,10,10,10c5.521,0,10-4.479,10-10s-4.479-10-10-10
			C839.24,178.158,834.77,182.638,834.77,188.158z"/>
	</g>
	<g style="opacity:0.4;">
		<path style="fill:#FFFFFF;" d="M363.63,1031.798c5.52,0,10-4.479,10-10c0-5.52-4.48-10-10-10c-5.521,0-10,4.48-10,10
			C353.63,1027.318,358.109,1031.798,363.63,1031.798z"/>
		<path style="fill:#FFFFFF;" d="M363.63,991.308c5.52,0,10-4.47,10-10c0-5.52-4.48-10-10-10c-5.521,0-10,4.48-10,10
			C353.63,986.838,358.109,991.308,363.63,991.308z"/>
		<path style="fill:#FFFFFF;" d="M363.63,930.818c-5.521,0-10,4.479-10,10c0,5.529,4.479,10,10,10c5.52,0,10-4.471,10-10
			C373.63,935.298,369.149,930.818,363.63,930.818z"/>
		<path style="fill:#FFFFFF;" d="M363.63,1072.288c5.52,0,10-4.48,10-10c0-5.521-4.48-10-10-10c-5.521,0-10,4.479-10,10
			C353.63,1067.808,358.109,1072.288,363.63,1072.288z"/>
	</g>
	<g style="opacity:0.4;">
		<path style="fill:#FFFFFF;" d="M1576.479-8.462c0-5.52-4.479-9.99-10-9.99c-5.52,0-10,4.47-10,9.99
			c0,3.572,1.876,6.693,4.687,8.462h10.627C1574.604-1.769,1576.479-4.89,1576.479-8.462z"/>
	</g>
</g>
<g id="content" style="display:none;">
	<g style="display:inline;">
		<text transform="matrix(1 0 0 1 686.791 384.2246)"><tspan x="0" y="0" style="fill:#1B2528; font-family:'LeagueGothic'; font-size:102.347;">We keep everyone </tspan><tspan x="-81.874" y="113.346" style="fill:#1B2528; font-family:'LeagueGothic'; font-size:102.347;">and every thing secure</tspan></text>
		<rect x="524.415" y="557.996" style="fill:none;" width="871.172" height="226.564"/>
		<text transform="matrix(1 0 0 1 524.4146 586.2266)"><tspan x="0" y="0" style="fill:#1B2528; font-family:'PlayfairDisplay-Regular'; font-size:36;">With</tspan><tspan x="77.027" y="0" style="fill:#1B2528; font-family:'PlayfairDisplay-Regular'; font-size:36; letter-spacing:10;"> </tspan><tspan x="96.103" y="0" style="fill:#1B2528; font-family:'PlayfairDisplay-Regular'; font-size:36;">connectivity</tspan><tspan x="294.331" y="0" style="fill:#1B2528; font-family:'PlayfairDisplay-Regular'; font-size:36; letter-spacing:10;"> </tspan><tspan x="313.406" y="0" style="fill:#1B2528; font-family:'PlayfairDisplay-Regular'; font-size:36;">comes</tspan><tspan x="416.853" y="0" style="fill:#1B2528; font-family:'PlayfairDisplay-Regular'; font-size:36; letter-spacing:10;"> </tspan><tspan x="435.928" y="0" style="fill:#1B2528; font-family:'PlayfairDisplay-Regular'; font-size:36;">the</tspan><tspan x="488.047" y="0" style="fill:#1B2528; font-family:'PlayfairDisplay-Regular'; font-size:36; letter-spacing:10;"> </tspan><tspan x="507.123" y="0" style="fill:#1B2528; font-family:'PlayfairDisplay-Regular'; font-size:36;">potential</tspan><tspan x="651.738" y="0" style="fill:#1B2528; font-family:'PlayfairDisplay-Regular'; font-size:36; letter-spacing:10;"> </tspan><tspan x="670.812" y="0" style="fill:#1B2528; font-family:'PlayfairDisplay-Regular'; font-size:36;">for</tspan><tspan x="718.502" y="0" style="fill:#1B2528; font-family:'PlayfairDisplay-Regular'; font-size:36; letter-spacing:10;"> </tspan><tspan x="737.577" y="0" style="fill:#1B2528; font-family:'PlayfairDisplay-Regular'; font-size:36;">external </tspan><tspan x="0" y="46" style="fill:#1B2528; font-family:'PlayfairDisplay-Regular'; font-size:36;">security</tspan><tspan x="130.113" y="46" style="fill:#1B2528; font-family:'PlayfairDisplay-Regular'; font-size:36; letter-spacing:-1;"> </tspan><tspan x="137.664" y="46" style="fill:#1B2528; font-family:'PlayfairDisplay-Regular'; font-size:36;">threats</tspan><tspan x="252.52" y="46" style="fill:#1B2528; font-family:'PlayfairDisplay-Regular'; font-size:36; letter-spacing:-1;"> </tspan><tspan x="260.071" y="46" style="fill:#1B2528; font-family:'PlayfairDisplay-Regular'; font-size:36;">that</tspan><tspan x="324.653" y="46" style="fill:#1B2528; font-family:'PlayfairDisplay-Regular'; font-size:36; letter-spacing:-1;"> </tspan><tspan x="332.204" y="46" style="fill:#1B2528; font-family:'PlayfairDisplay-Regular'; font-size:36;">are</tspan><tspan x="384.358" y="46" style="fill:#1B2528; font-family:'PlayfairDisplay-Regular'; font-size:36; letter-spacing:-1;"> </tspan><tspan x="391.909" y="46" style="fill:#1B2528; font-family:'PlayfairDisplay-Regular'; font-size:36;">executed</tspan><tspan x="537.297" y="46" style="fill:#1B2528; font-family:'PlayfairDisplay-Regular'; font-size:36; letter-spacing:-1;"> </tspan><tspan x="544.848" y="46" style="fill:#1B2528; font-family:'PlayfairDisplay-Regular'; font-size:36;">through</tspan><tspan x="675.225" y="46" style="fill:#1B2528; font-family:'PlayfairDisplay-Regular'; font-size:36; letter-spacing:-1;"> </tspan><tspan x="682.776" y="46" style="fill:#1B2528; font-family:'PlayfairDisplay-Regular'; font-size:36;">the</tspan><tspan x="734.896" y="46" style="fill:#1B2528; font-family:'PlayfairDisplay-Regular'; font-size:36; letter-spacing:-1;"> </tspan><tspan x="742.446" y="46" style="fill:#1B2528; font-family:'PlayfairDisplay-Regular'; font-size:36;">product </tspan><tspan x="0" y="92" style="fill:#1B2528; font-family:'PlayfairDisplay-Regular'; font-size:36;">itself</tspan><tspan x="79.805" y="92" style="fill:#1B2528; font-family:'PlayfairDisplay-Regular'; font-size:36; letter-spacing:-1;"> </tspan><tspan x="87.7" y="92" style="fill:#1B2528; font-family:'PlayfairDisplay-Regular'; font-size:36;">with</tspan><tspan x="159.875" y="92" style="fill:#1B2528; font-family:'PlayfairDisplay-Regular'; font-size:36; letter-spacing:-1;"> </tspan><tspan x="167.771" y="92" style="fill:#1B2528; font-family:'PlayfairDisplay-Regular'; font-size:36;">serious</tspan><tspan x="285.28" y="92" style="fill:#1B2528; font-family:'PlayfairDisplay-Regular'; font-size:36; letter-spacing:-1;"> </tspan><tspan x="293.175" y="92" style="fill:#1B2528; font-family:'PlayfairDisplay-Regular'; font-size:36;">consequences.</tspan><tspan x="527.861" y="92" style="fill:#1B2528; font-family:'PlayfairDisplay-Regular'; font-size:36; letter-spacing:-1;"> </tspan><tspan x="535.755" y="92" style="fill:#1B2528; font-family:'PlayfairDisplay-Regular'; font-size:36;">We</tspan><tspan x="586.539" y="92" style="fill:#1B2528; font-family:'PlayfairDisplay-Regular'; font-size:36; letter-spacing:-1;"> </tspan><tspan x="594.434" y="92" style="fill:#1B2528; font-family:'PlayfairDisplay-Regular'; font-size:36;">are</tspan><tspan x="646.588" y="92" style="fill:#1B2528; font-family:'PlayfairDisplay-Regular'; font-size:36; letter-spacing:-1;"> </tspan><tspan x="654.483" y="92" style="fill:#1B2528; font-family:'PlayfairDisplay-Regular'; font-size:36;">committed</tspan><tspan x="830.809" y="92" style="fill:#1B2528; font-family:'PlayfairDisplay-Regular'; font-size:36; letter-spacing:-1;"> </tspan><tspan x="838.704" y="92" style="fill:#1B2528; font-family:'PlayfairDisplay-Regular'; font-size:36;">to </tspan><tspan x="0" y="138" style="fill:#1B2528; font-family:'PlayfairDisplay-Regular'; font-size:36;">actively</tspan><tspan x="122.959" y="138" style="fill:#1B2528; font-family:'PlayfairDisplay-Regular'; font-size:36; letter-spacing:12;"> </tspan><tspan x="144.803" y="138" style="fill:#1B2528; font-family:'PlayfairDisplay-Regular'; font-size:36;">protecting</tspan><tspan x="313.342" y="138" style="fill:#1B2528; font-family:'PlayfairDisplay-Regular'; font-size:36; letter-spacing:12;"> </tspan><tspan x="335.185" y="138" style="fill:#1B2528; font-family:'PlayfairDisplay-Regular'; font-size:36;">our</tspan><tspan x="391.839" y="138" style="fill:#1B2528; font-family:'PlayfairDisplay-Regular'; font-size:36; letter-spacing:12;"> </tspan><tspan x="413.683" y="138" style="fill:#1B2528; font-family:'PlayfairDisplay-Regular'; font-size:36;">users</tspan><tspan x="500.923" y="138" style="fill:#1B2528; font-family:'PlayfairDisplay-Regular'; font-size:36; letter-spacing:12;"> </tspan><tspan x="522.767" y="138" style="fill:#1B2528; font-family:'PlayfairDisplay-Regular'; font-size:36;">from</tspan><tspan x="602.431" y="138" style="fill:#1B2528; font-family:'PlayfairDisplay-Regular'; font-size:36; letter-spacing:12;"> </tspan><tspan x="624.274" y="138" style="fill:#1B2528; font-family:'PlayfairDisplay-Regular'; font-size:36;">these</tspan><tspan x="710.653" y="138" style="fill:#1B2528; font-family:'PlayfairDisplay-Regular'; font-size:36; letter-spacing:12;"> </tspan><tspan x="732.497" y="138" style="fill:#1B2528; font-family:'PlayfairDisplay-Regular'; font-size:36;">dangers, </tspan><tspan x="0" y="184" style="fill:#1B2528; font-family:'PlayfairDisplay-Regular'; font-size:36;">whatever they may be. </tspan></text>
	</g>
	<g style="display:inline;">
		
			<rect x="1868.752" y="357.251" style="opacity:0.3;fill:none;stroke:#FFFFFF;stroke-width:2;stroke-miterlimit:10;" width="24.43" height="24.431"/>
		
			<circle style="opacity:0.3;fill:none;stroke:#FFFFFF;stroke-width:2;stroke-miterlimit:10;" cx="1880.968" cy="409.771" r="13.384"/>
		<path style="fill:none;stroke:#FFFFFF;stroke-width:2;stroke-miterlimit:10;" d="M1896.366,602.824
			c0-8.505-6.895-15.398-15.398-15.398s-15.398,6.894-15.398,15.398H1896.366z"/>
		
			<rect x="1870.782" y="658.253" transform="matrix(0.7071 0.7071 -0.7071 0.7071 1023.6411 -1134.2926)" style="fill:none;stroke:#FFFFFF;stroke-width:2;stroke-miterlimit:10;" width="20.371" height="20.371"/>
		<polygon style="fill:#FFFFFF;stroke:#FFFFFF;stroke-width:2;stroke-miterlimit:10;" points="1873.704,497.806 1866.44,485.224 
			1873.704,472.642 1888.231,472.642 1895.495,485.224 1888.231,497.806 		"/>
		
			<rect x="1873.889" y="512.511" style="fill:none;stroke:#FFFFFF;stroke-width:2;stroke-miterlimit:10;" width="14.156" height="25.164"/>
		<path style="fill:none;stroke:#FFFFFF;stroke-width:2;stroke-miterlimit:10;" d="M1875.42,572.721
			c-5.617,0-10.17-4.554-10.17-10.17c0-5.616,4.553-10.17,10.17-10.17h11.094c5.617,0,10.17,4.554,10.17,10.17
			c0,5.617-4.553,10.17-10.17,10.17H1875.42z"/>
		<polygon style="fill:none;stroke:#FFFFFF;stroke-width:2;stroke-miterlimit:10;" points="1868.381,639.328 1880.967,617.529 
			1893.551,639.328 		"/>
		<polygon style="opacity:0.3;fill:none;stroke:#FFFFFF;stroke-width:2;stroke-miterlimit:10;" points="1895.075,457.936 
			1866.86,457.936 1872.915,437.86 1889.02,437.86 		"/>
		<polygon style="fill:none;stroke:#FFFFFF;stroke-width:2;stroke-miterlimit:10;" points="1872.778,722.749 1867.717,707.174 
			1880.967,697.549 1894.217,707.174 1889.155,722.749 		"/>
	</g>
	<g style="display:inline;">
		<rect x="1805.452" y="50" style="fill:#FFFFFF;" width="61.826" height="61.828"/>
		<text transform="matrix(1 0 0 1 1824.3184 99.04)" style="fill:#F19B2B; font-family:'LeagueGothic'; font-size:44.7768;">iv</text>
	</g>
	<text transform="matrix(1 0 0 1 50 99.439)" style="display:inline;fill:#FFFFFF; font-family:'LeagueGothic'; font-size:60;">iot design manifesto 1.0</text>
	
		<text transform="matrix(1 0 0 1 1749.8359 1027.0645)" style="display:inline;fill:#FFFFFF; font-family:'LeagueGothic'; font-size:36;">initiators?</text>
</g>
<g id="assets" style="display:none;">
</g>
</svg>
