<?xml version="1.0" encoding="iso-8859-1"?>
<!-- Generator: Adobe Illustrator 16.0.4, SVG Export Plug-In . SVG Version: 6.00 Build 0)  -->
<!DOCTYPE svg PUBLIC "-//W3C//DTD SVG 1.1//EN" "http://www.w3.org/Graphics/SVG/1.1/DTD/svg11.dtd">
<svg version="1.1" xmlns="http://www.w3.org/2000/svg" xmlns:xlink="http://www.w3.org/1999/xlink" x="0px" y="0px" width="1920px"
	 height="1080px" viewBox="0 0 1920 1080" style="enable-background:new 0 0 1920 1080;" xml:space="preserve">
<g id="backdrop" style="display:none;">
	<rect y="-1080" style="display:inline;fill:#F19B2B;" width="1920" height="1080"/>
	<rect style="display:inline;fill:#229F86;" width="1920" height="1080"/>
	<rect y="1080" style="display:inline;fill:#A16FBC;" width="1920" height="1080"/>
</g>
<g id="lines">
	<g>
		<path style="fill:#FFFFFF;" d="M1600.585,634.132h-280.994v-477.23h280.994V634.132z M1348.222,605.501h223.732V185.532h-223.732
			V605.501z"/>
	</g>
	<g style="opacity:0.4;">
		<path style="fill:#FFFFFF;" d="M1722.49,964.248c-5.521,0-10,4.479-10,10c0,5.52,4.479,10,10,10c5.529,0,10-4.48,10-10
			C1732.49,968.728,1728.02,964.248,1722.49,964.248z"/>
		<path style="fill:#FFFFFF;" d="M1722.49,1004.248c-5.521,0-10,4.479-10,10c0,5.52,4.479,10,10,10c5.529,0,10-4.48,10-10
			C1732.49,1008.728,1728.02,1004.248,1722.49,1004.248z"/>
		<path style="fill:#FFFFFF;" d="M1722.49,1044.248c-5.521,0-10,4.479-10,10c0,5.52,4.479,10,10,10c5.529,0,10-4.48,10-10
			C1732.49,1048.728,1728.02,1044.248,1722.49,1044.248z"/>
		<path style="fill:#FFFFFF;" d="M1722.49,924.248c-5.521,0-10,4.479-10,10c0,5.52,4.479,10,10,10c5.529,0,10-4.48,10-10
			C1732.49,928.728,1728.02,924.248,1722.49,924.248z"/>
		<path style="fill:#FFFFFF;" d="M1692.21,411.608c-4.311,3.449-5.021,9.739-1.57,14.06c1.98,2.47,4.89,3.76,7.82,3.76
			c2.189,0,4.39-0.72,6.24-2.189c4.31-3.45,5.01-9.74,1.56-14.061c0.01,0,0.01,0,0.01,0
			C1702.819,408.868,1696.529,408.168,1692.21,411.608z"/>
		<path style="fill:#FFFFFF;" d="M1713.64,445.268c-5.28,1.61-8.25,7.2-6.64,12.49v-0.01c1.319,4.31,5.279,7.08,9.56,7.08
			c0.97,0,1.96-0.14,2.931-0.44c5.279-1.609,8.25-7.199,6.64-12.479c0-0.01,0-0.01,0-0.01
			C1724.51,446.618,1718.92,443.648,1713.64,445.268z"/>
		<path style="fill:#FFFFFF;" d="M1666.18,407.028c4.45,0,8.5-2.99,9.67-7.5c1.391-5.34-1.83-10.801-7.17-12.181
			c-0.01,0-0.01,0-0.01,0c-5.34-1.39-10.8,1.82-12.18,7.17c-1.391,5.351,1.829,10.801,7.18,12.19h-0.01
			C1664.5,406.928,1665.35,407.028,1666.18,407.028z"/>
		<path style="fill:#FFFFFF;" d="M1636.3,395.518c0-5.52-4.47-10-10-10c-5.521,0-10,4.48-10,10c0,5.521,4.479,10,10,10
			C1631.83,405.518,1636.3,401.038,1636.3,395.518z"/>
		<path style="fill:#FFFFFF;" d="M1722.49,884.248c-5.521,0-10,4.479-10,10c0,5.52,4.479,10,10,10c5.529,0,10-4.48,10-10
			C1732.49,888.728,1728.02,884.248,1722.49,884.248z"/>
		<path style="fill:#FFFFFF;" d="M1722.49,524.248c-5.521,0-10,4.479-10,10c0,5.52,4.479,10,10,10c5.529,0,10-4.48,10-10
			C1732.49,528.728,1728.02,524.248,1722.49,524.248z"/>
		<path style="fill:#FFFFFF;" d="M1722.49,644.248c-5.521,0-10,4.479-10,10c0,5.52,4.479,10,10,10c5.529,0,10-4.48,10-10
			C1732.49,648.728,1728.02,644.248,1722.49,644.248z"/>
		<path style="fill:#FFFFFF;" d="M1722.49,564.248c-5.521,0-10,4.479-10,10c0,5.52,4.479,10,10,10c5.529,0,10-4.48,10-10
			C1732.49,568.728,1728.02,564.248,1722.49,564.248z"/>
		<path style="fill:#FFFFFF;" d="M1722.49,604.248c-5.521,0-10,4.479-10,10c0,5.52,4.479,10,10,10c5.529,0,10-4.48,10-10
			C1732.49,608.728,1728.02,604.248,1722.49,604.248z"/>
		<path style="fill:#FFFFFF;" d="M1722.49,844.248c-5.521,0-10,4.479-10,10c0,5.52,4.479,10,10,10c5.529,0,10-4.48,10-10
			C1732.49,848.728,1728.02,844.248,1722.49,844.248z"/>
		<path style="fill:#FFFFFF;" d="M1722.399,484.248c-5.52,0.05-9.96,4.56-9.909,10.09c0.05,5.49,4.52,9.91,10,9.91
			c0.029,0,0.06,0,0.079,0c5.53-0.05,9.96-4.56,9.921-10.08C1732.439,488.638,1727.92,484.198,1722.399,484.248z"/>
		<path style="fill:#FFFFFF;" d="M1722.49,764.248c-5.521,0-10,4.479-10,10c0,5.52,4.479,10,10,10c5.529,0,10-4.48,10-10
			C1732.49,768.728,1728.02,764.248,1722.49,764.248z"/>
		<path style="fill:#FFFFFF;" d="M1722.49,804.248c-5.521,0-10,4.479-10,10c0,5.52,4.479,10,10,10c5.529,0,10-4.48,10-10
			C1732.49,808.728,1728.02,804.248,1722.49,804.248z"/>
		<path style="fill:#FFFFFF;" d="M1722.49,724.248c-5.521,0-10,4.479-10,10c0,5.52,4.479,10,10,10c5.529,0,10-4.48,10-10
			C1732.49,728.728,1728.02,724.248,1722.49,724.248z"/>
		<path style="fill:#FFFFFF;" d="M1722.49,684.248c-5.521,0-10,4.479-10,10c0,5.52,4.479,10,10,10c5.529,0,10-4.48,10-10
			C1732.49,688.728,1728.02,684.248,1722.49,684.248z"/>
	</g>
	<g style="opacity:0.4;">
		<path style="fill:#FFFFFF;" d="M470.87,352.748c3.899-3.9,3.899-10.23,0-14.14c-3.91-3.9-10.24-3.9-14.141,0
			c-3.91,3.909-3.91,10.239,0,14.14c1.95,1.96,4.511,2.93,7.07,2.93C466.35,355.678,468.91,354.708,470.87,352.748z"/>
		<path style="fill:#FFFFFF;" d="M442.24,324.128c3.899-3.91,3.899-10.24,0-14.15c-3.91-3.899-10.24-3.899-14.141,0
			c-3.91,3.91-3.91,10.24,0,14.15c1.95,1.95,4.51,2.93,7.07,2.93C437.72,327.058,440.28,326.078,442.24,324.128z"/>
		<path style="fill:#FFFFFF;" d="M499.49,381.388c3.909-3.91,3.909-10.239,0-14.149c-3.9-3.9-10.23-3.9-14.131,0
			c-3.909,3.91-3.909,10.239,0,14.149c1.95,1.95,4.511,2.92,7.07,2.92C494.979,384.308,497.54,383.338,499.49,381.388z"/>
		<path style="fill:#FFFFFF;" d="M534.13,395.518c0-5.529-4.48-10-10-10c-5.521,0-10,4.471-10,10c0,5.521,4.479,10,10,10
			C529.649,405.518,534.13,401.038,534.13,395.518z"/>
		<path style="fill:#FFFFFF;" d="M615.109,395.518c0-5.529-4.479-10-10-10c-5.52,0-10,4.471-10,10c0,5.521,4.48,10,10,10
			C610.63,405.518,615.109,401.038,615.109,395.518z"/>
		<path style="fill:#FFFFFF;" d="M574.62,395.518c0-5.529-4.48-10-10-10c-5.521,0-10,4.471-10,10c0,5.521,4.479,10,10,10
			C570.14,405.518,574.62,401.038,574.62,395.518z"/>
		<path style="fill:#FFFFFF;" d="M655.6,395.518c0-5.529-4.479-10-10-10c-5.52,0-10,4.471-10,10c0,5.521,4.48,10,10,10
			C651.12,405.518,655.6,401.038,655.6,395.518z"/>
		<path style="fill:#FFFFFF;" d="M413.609,295.498c3.9-3.91,3.9-10.24,0-14.14c-3.909-3.91-10.239-3.91-14.149,0
			c-3.9,3.899-3.9,10.229,0,14.14c1.96,1.95,4.52,2.93,7.08,2.93C409.1,298.428,411.649,297.448,413.609,295.498z"/>
		<path style="fill:#FFFFFF;" d="M363.63,32.778c5.52,0,10-4.48,10-10c0-5.521-4.48-10-10-10c-5.521,0-10,4.479-10,10
			C353.63,28.298,358.109,32.778,363.63,32.778z"/>
		<path style="fill:#FFFFFF;" d="M370.83,266.868c1.96,1.95,4.52,2.93,7.08,2.93c2.56,0,5.109-0.979,7.069-2.93
			c3.9-3.91,3.9-10.24,0-14.15c-3.91-3.899-10.239-3.899-14.149,0C366.93,256.628,366.93,262.958,370.83,266.868z"/>
		<path style="fill:#FFFFFF;" d="M363.63,73.268c5.52,0,10-4.479,10-10c0-5.529-4.48-10-10-10c-5.521,0-10,4.471-10,10
			C353.63,68.788,358.109,73.268,363.63,73.268z"/>
		<path style="fill:#FFFFFF;" d="M363.63,194.728c5.52,0,10-4.47,10-10c0-5.52-4.48-10-10-10c-5.521,0-10,4.48-10,10
			C353.63,190.258,358.109,194.728,363.63,194.728z"/>
		<path style="fill:#FFFFFF;" d="M363.63,235.218c5.52,0,10-4.479,10-10c0-5.52-4.48-10-10-10c-5.521,0-10,4.48-10,10
			C353.63,230.738,358.109,235.218,363.63,235.218z"/>
		<path style="fill:#FFFFFF;" d="M363.63,154.238c5.52,0,10-4.471,10-10c0-5.521-4.48-10-10-10c-5.521,0-10,4.479-10,10
			C353.63,149.768,358.109,154.238,363.63,154.238z"/>
		<path style="fill:#FFFFFF;" d="M363.63,113.758c5.52,0,10-4.479,10-10c0-5.53-4.48-10-10-10c-5.521,0-10,4.47-10,10
			C353.63,109.278,358.109,113.758,363.63,113.758z"/>
		<path style="fill:#FFFFFF;" d="M817.55,395.518c0-5.529-4.47-10-10-10c-5.521,0-10,4.471-10,10c0,5.521,4.479,10,10,10
			C813.08,405.518,817.55,401.038,817.55,395.518z"/>
		<path style="fill:#FFFFFF;" d="M1141.46,395.518c0-5.529-4.48-10-10-10c-5.521,0-10,4.471-10,10c0,5.521,4.479,10,10,10
			C1136.979,405.518,1141.46,401.038,1141.46,395.518z"/>
		<path style="fill:#FFFFFF;" d="M1181.95,395.518c0-5.529-4.48-10-10-10c-5.521,0-10,4.471-10,10c0,5.521,4.479,10,10,10
			C1177.47,405.518,1181.95,401.038,1181.95,395.518z"/>
		<path style="fill:#FFFFFF;" d="M1100.97,395.518c0-5.529-4.47-10-10-10c-5.52,0-10,4.471-10,10c0,5.521,4.48,10,10,10
			C1096.5,405.518,1100.97,401.038,1100.97,395.518z"/>
		<path style="fill:#FFFFFF;" d="M1293.42,385.518c-5.53,0-10,4.471-10,10c0,5.521,4.47,10,10,10c5.52,0,10-4.479,10-10
			C1303.42,389.988,1298.939,385.518,1293.42,385.518z"/>
		<path style="fill:#FFFFFF;" d="M1222.439,395.518c0-5.529-4.479-10-10-10c-5.529,0-10,4.471-10,10c0,5.521,4.471,10,10,10
			C1217.96,405.518,1222.439,401.038,1222.439,395.518z"/>
		<path style="fill:#FFFFFF;" d="M1060.479,395.518c0-5.529-4.47-10-10-10c-5.52,0-10,4.471-10,10c0,5.521,4.48,10,10,10
			C1056.01,405.518,1060.479,401.038,1060.479,395.518z"/>
		<path style="fill:#FFFFFF;" d="M1262.93,395.518c0-5.529-4.479-10-10-10c-5.52,0-10,4.471-10,10c0,5.521,4.48,10,10,10
			C1258.45,405.518,1262.93,401.038,1262.93,395.518z"/>
		<path style="fill:#FFFFFF;" d="M736.569,395.518c0-5.529-4.47-10-9.989-10c-5.53,0-10.011,4.471-10.011,10
			c0,5.521,4.48,10,10.011,10C732.1,405.518,736.569,401.038,736.569,395.518z"/>
		<path style="fill:#FFFFFF;" d="M858.04,395.518c0-5.529-4.48-10-10-10c-5.521,0-10,4.471-10,10c0,5.521,4.479,10,10,10
			C853.56,405.518,858.04,401.038,858.04,395.518z"/>
		<path style="fill:#FFFFFF;" d="M777.06,395.518c0-5.529-4.47-10-10-10c-5.52,0-10,4.471-10,10c0,5.521,4.48,10,10,10
			C772.59,405.518,777.06,401.038,777.06,395.518z"/>
		<path style="fill:#FFFFFF;" d="M696.09,395.518c0-5.529-4.48-10-10-10c-5.53,0-10,4.471-10,10c0,5.521,4.47,10,10,10
			C691.609,405.518,696.09,401.038,696.09,395.518z"/>
		<path style="fill:#FFFFFF;" d="M898.529,395.518c0-5.529-4.479-10-10-10c-5.52,0-10,4.471-10,10c0,5.521,4.48,10,10,10
			C894.05,405.518,898.529,401.038,898.529,395.518z"/>
		<path style="fill:#FFFFFF;" d="M1020,395.518c0-5.529-4.48-10-10-10c-5.53,0-10,4.471-10,10c0,5.521,4.47,10,10,10
			C1015.52,405.518,1020,401.038,1020,395.518z"/>
		<path style="fill:#FFFFFF;" d="M979.51,395.518c0-5.529-4.48-10-10-10c-5.53,0-10,4.471-10,10c0,5.521,4.47,10,10,10
			C975.029,405.518,979.51,401.038,979.51,395.518z"/>
		<path style="fill:#FFFFFF;" d="M939.02,395.518c0-5.529-4.479-10-10-10c-5.52,0-10,4.471-10,10c0,5.521,4.48,10,10,10
			C934.54,405.518,939.02,401.038,939.02,395.518z"/>
	</g>
</g>
<g id="content" style="display:none;">
	<g style="display:inline;">
		<g>
			<text transform="matrix(1 0 0 1 755.2588 385.7158)"><tspan x="0" y="0" style="fill:#1B2528; font-family:'LeagueGothic'; font-size:102.347;">we build and </tspan><tspan x="-247.775" y="113.346" style="fill:#1B2528; font-family:'LeagueGothic'; font-size:102.347;">promote a culture of privacy</tspan></text>
		</g>
		<rect x="524.414" y="556.505" style="fill:none;" width="871.171" height="226.564"/>
		<text transform="matrix(1 0 0 1 524.4141 584.7354)"><tspan x="0" y="0" style="fill:#1B2528; font-family:'PlayfairDisplay-Regular'; font-size:36;">Equally</tspan><tspan x="119.777" y="0" style="fill:#1B2528; font-family:'PlayfairDisplay-Regular'; font-size:36; letter-spacing:9;"> </tspan><tspan x="138.488" y="0" style="fill:#1B2528; font-family:'PlayfairDisplay-Regular'; font-size:36;">severe</tspan><tspan x="242.779" y="0" style="fill:#1B2528; font-family:'PlayfairDisplay-Regular'; font-size:36; letter-spacing:9;"> </tspan><tspan x="261.489" y="0" style="fill:#1B2528; font-family:'PlayfairDisplay-Regular'; font-size:36;">threats</tspan><tspan x="376.345" y="0" style="fill:#1B2528; font-family:'PlayfairDisplay-Regular'; font-size:36; letter-spacing:9;"> </tspan><tspan x="395.055" y="0" style="fill:#1B2528; font-family:'PlayfairDisplay-Regular'; font-size:36;">can</tspan><tspan x="451.973" y="0" style="fill:#1B2528; font-family:'PlayfairDisplay-Regular'; font-size:36; letter-spacing:9;"> </tspan><tspan x="470.684" y="0" style="fill:#1B2528; font-family:'PlayfairDisplay-Regular'; font-size:36;">also</tspan><tspan x="534.686" y="0" style="fill:#1B2528; font-family:'PlayfairDisplay-Regular'; font-size:36; letter-spacing:9;"> </tspan><tspan x="553.396" y="0" style="fill:#1B2528; font-family:'PlayfairDisplay-Regular'; font-size:36;">come</tspan><tspan x="640.795" y="0" style="fill:#1B2528; font-family:'PlayfairDisplay-Regular'; font-size:36; letter-spacing:9;"> </tspan><tspan x="659.505" y="0" style="fill:#1B2528; font-family:'PlayfairDisplay-Regular'; font-size:36;">from</tspan><tspan x="739.169" y="0" style="fill:#1B2528; font-family:'PlayfairDisplay-Regular'; font-size:36; letter-spacing:9;"> </tspan><tspan x="757.88" y="0" style="fill:#1B2528; font-family:'PlayfairDisplay-Regular'; font-size:36;">within. </tspan><tspan x="0" y="46" style="fill:#1B2528; font-family:'PlayfairDisplay-Regular'; font-size:36;">Trust</tspan><tspan x="88.084" y="46" style="fill:#1B2528; font-family:'PlayfairDisplay-Regular'; font-size:36;"> </tspan><tspan x="96.84" y="46" style="fill:#1B2528; font-family:'PlayfairDisplay-Regular'; font-size:36;">is</tspan><tspan x="123.436" y="46" style="fill:#1B2528; font-family:'PlayfairDisplay-Regular'; font-size:36;"> </tspan><tspan x="132.192" y="46" style="fill:#1B2528; font-family:'PlayfairDisplay-Regular'; font-size:36;">violated</tspan><tspan x="260.161" y="46" style="fill:#1B2528; font-family:'PlayfairDisplay-Regular'; font-size:36;"> </tspan><tspan x="268.917" y="46" style="fill:#1B2528; font-family:'PlayfairDisplay-Regular'; font-size:36;">when</tspan><tspan x="357.511" y="46" style="fill:#1B2528; font-family:'PlayfairDisplay-Regular'; font-size:36;"> </tspan><tspan x="366.267" y="46" style="fill:#1B2528; font-family:'PlayfairDisplay-Regular'; font-size:36;">personal</tspan><tspan x="506.91" y="46" style="fill:#1B2528; font-family:'PlayfairDisplay-Regular'; font-size:36;">  </tspan><tspan x="524.422" y="46" style="fill:#1B2528; font-family:'PlayfairDisplay-Regular'; font-size:36;">information</tspan><tspan x="718.573" y="46" style="fill:#1B2528; font-family:'PlayfairDisplay-Regular'; font-size:36;"> </tspan><tspan x="727.329" y="46" style="fill:#1B2528; font-family:'PlayfairDisplay-Regular'; font-size:36;">gathered </tspan><tspan x="0" y="92" style="fill:#1B2528; font-family:'PlayfairDisplay-Regular'; font-size:36;">by</tspan><tspan x="38.408" y="92" style="fill:#1B2528; font-family:'PlayfairDisplay-Regular'; font-size:36; letter-spacing:7;"> </tspan><tspan x="54.976" y="92" style="fill:#1B2528; font-family:'PlayfairDisplay-Regular'; font-size:36;">the</tspan><tspan x="107.095" y="92" style="fill:#1B2528; font-family:'PlayfairDisplay-Regular'; font-size:36; letter-spacing:7;"> </tspan><tspan x="123.662" y="92" style="fill:#1B2528; font-family:'PlayfairDisplay-Regular'; font-size:36;">product</tspan><tspan x="252.387" y="92" style="fill:#1B2528; font-family:'PlayfairDisplay-Regular'; font-size:36; letter-spacing:7;"> </tspan><tspan x="268.954" y="92" style="fill:#1B2528; font-family:'PlayfairDisplay-Regular'; font-size:36;">is</tspan><tspan x="295.549" y="92" style="fill:#1B2528; font-family:'PlayfairDisplay-Regular'; font-size:36; letter-spacing:7;"> </tspan><tspan x="312.117" y="92" style="fill:#1B2528; font-family:'PlayfairDisplay-Regular'; font-size:36;">handled</tspan><tspan x="443.056" y="92" style="fill:#1B2528; font-family:'PlayfairDisplay-Regular'; font-size:36; letter-spacing:7;"> </tspan><tspan x="459.624" y="92" style="fill:#1B2528; font-family:'PlayfairDisplay-Regular'; font-size:36;">carelessly.</tspan><tspan x="627.389" y="92" style="fill:#1B2528; font-family:'PlayfairDisplay-Regular'; font-size:36; letter-spacing:7;"> </tspan><tspan x="643.956" y="92" style="fill:#1B2528; font-family:'PlayfairDisplay-Regular'; font-size:36;">We</tspan><tspan x="694.739" y="92" style="fill:#1B2528; font-family:'PlayfairDisplay-Regular'; font-size:36; letter-spacing:7;"> </tspan><tspan x="711.307" y="92" style="fill:#1B2528; font-family:'PlayfairDisplay-Regular'; font-size:36;">build</tspan><tspan x="794.258" y="92" style="fill:#1B2528; font-family:'PlayfairDisplay-Regular'; font-size:36; letter-spacing:7;"> </tspan><tspan x="810.825" y="92" style="fill:#1B2528; font-family:'PlayfairDisplay-Regular'; font-size:36;">and </tspan><tspan x="0" y="138" style="fill:#1B2528; font-family:'PlayfairDisplay-Regular'; font-size:36;">promote</tspan><tspan x="139.307" y="138" style="fill:#1B2528; font-family:'PlayfairDisplay-Regular'; font-size:36; letter-spacing:3;"> </tspan><tspan x="152.205" y="138" style="fill:#1B2528; font-family:'PlayfairDisplay-Regular'; font-size:36;">a</tspan><tspan x="170.135" y="138" style="fill:#1B2528; font-family:'PlayfairDisplay-Regular'; font-size:36; letter-spacing:3;"> </tspan><tspan x="183.033" y="138" style="fill:#1B2528; font-family:'PlayfairDisplay-Regular'; font-size:36;">culture</tspan><tspan x="299.629" y="138" style="fill:#1B2528; font-family:'PlayfairDisplay-Regular'; font-size:36; letter-spacing:3;"> </tspan><tspan x="312.527" y="138" style="fill:#1B2528; font-family:'PlayfairDisplay-Regular'; font-size:36;">where</tspan><tspan x="413.847" y="138" style="fill:#1B2528; font-family:'PlayfairDisplay-Regular'; font-size:36; letter-spacing:3;"> </tspan><tspan x="426.746" y="138" style="fill:#1B2528; font-family:'PlayfairDisplay-Regular'; font-size:36;">the</tspan><tspan x="478.865" y="138" style="fill:#1B2528; font-family:'PlayfairDisplay-Regular'; font-size:36; letter-spacing:3;"> </tspan><tspan x="491.763" y="138" style="fill:#1B2528; font-family:'PlayfairDisplay-Regular'; font-size:36;">norm</tspan><tspan x="580.972" y="138" style="fill:#1B2528; font-family:'PlayfairDisplay-Regular'; font-size:36; letter-spacing:3;"> </tspan><tspan x="593.871" y="138" style="fill:#1B2528; font-family:'PlayfairDisplay-Regular'; font-size:36;">is</tspan><tspan x="620.466" y="138" style="fill:#1B2528; font-family:'PlayfairDisplay-Regular'; font-size:36; letter-spacing:3;"> </tspan><tspan x="633.364" y="138" style="fill:#1B2528; font-family:'PlayfairDisplay-Regular'; font-size:36;">to</tspan><tspan x="665.831" y="138" style="fill:#1B2528; font-family:'PlayfairDisplay-Regular'; font-size:36; letter-spacing:3;"> </tspan><tspan x="678.729" y="138" style="fill:#1B2528; font-family:'PlayfairDisplay-Regular'; font-size:36;">handle</tspan><tspan x="788.751" y="138" style="fill:#1B2528; font-family:'PlayfairDisplay-Regular'; font-size:36; letter-spacing:3;"> </tspan><tspan x="801.649" y="138" style="fill:#1B2528; font-family:'PlayfairDisplay-Regular'; font-size:36;">data </tspan><tspan x="0" y="184" style="fill:#1B2528; font-family:'PlayfairDisplay-Regular'; font-size:36;">with the utmost discretion. </tspan></text>
	</g>
	<g style="display:inline;">
		
			<rect x="1868.752" y="357.251" style="opacity:0.3;fill:none;stroke:#FFFFFF;stroke-width:2;stroke-miterlimit:10;" width="24.431" height="24.431"/>
		
			<circle style="opacity:0.3;fill:none;stroke:#FFFFFF;stroke-width:2;stroke-miterlimit:10;" cx="1880.968" cy="409.771" r="13.384"/>
		<path style="fill:none;stroke:#FFFFFF;stroke-width:2;stroke-miterlimit:10;" d="M1896.365,602.824
			c0-8.505-6.894-15.398-15.397-15.398c-8.505,0-15.398,6.894-15.398,15.398H1896.365z"/>
		
			<rect x="1870.782" y="658.252" transform="matrix(0.7071 0.7071 -0.7071 0.7071 1023.5801 -1134.2639)" style="fill:none;stroke:#FFFFFF;stroke-width:2;stroke-miterlimit:10;" width="20.372" height="20.372"/>
		<polygon style="opacity:0.3;fill:none;stroke:#FFFFFF;stroke-width:2;stroke-miterlimit:10;" points="1873.703,497.806 
			1866.439,485.224 1873.703,472.642 1888.231,472.642 1895.495,485.224 1888.231,497.806 		"/>
		
			<rect x="1873.89" y="512.512" style="fill:#FFFFFF;stroke:#FFFFFF;stroke-width:2;stroke-miterlimit:10;" width="14.156" height="25.163"/>
		<path style="fill:none;stroke:#FFFFFF;stroke-width:2;stroke-miterlimit:10;" d="M1875.421,572.721
			c-5.618,0-10.171-4.554-10.171-10.17c0-5.617,4.553-10.17,10.171-10.17h11.094c5.616,0,10.169,4.553,10.169,10.17
			c0,5.616-4.553,10.17-10.169,10.17H1875.421z"/>
		<polygon style="fill:none;stroke:#FFFFFF;stroke-width:2;stroke-miterlimit:10;" points="1868.382,639.328 1880.968,617.529 
			1893.552,639.328 		"/>
		<polygon style="opacity:0.3;fill:none;stroke:#FFFFFF;stroke-width:2;stroke-miterlimit:10;" points="1895.075,457.936 
			1866.859,457.936 1872.914,437.86 1889.021,437.86 		"/>
		<polygon style="fill:none;stroke:#FFFFFF;stroke-width:2;stroke-miterlimit:10;" points="1872.778,722.749 1867.718,707.174 
			1880.968,697.549 1894.218,707.174 1889.155,722.749 		"/>
	</g>
	<g style="display:inline;">
		<rect x="1805.452" y="50" style="fill:#FFFFFF;" width="61.826" height="61.828"/>
		<text transform="matrix(1 0 0 1 1828.5273 99.04)" style="fill:#229F86; font-family:'LeagueGothic'; font-size:44.7768;">V</text>
	</g>
	<g style="display:inline;">
		<text transform="matrix(1 0 0 1 50 99.4395)" style="fill:#FFFFFF; font-family:'LeagueGothic'; font-size:60;">iot design manifesto 1.0</text>
	</g>
	
		<text transform="matrix(1 0 0 1 1749.8359 1027.0645)" style="display:inline;fill:#FFFFFF; font-family:'LeagueGothic'; font-size:36;">initiators?</text>
	<g style="display:inline;">
		<polygon style="fill:#FFFFFF;" points="50,980.133 50,1017.486 75.095,1017.486 86.562,1030 86.562,1017.486 93.221,1017.486 
			93.221,980.133 		"/>
		<text transform="matrix(1 0 0 1 67.5903 1007.7949)" style="font-family:'LeagueGothic'; font-size:24;">3</text>
	</g>
</g>
<g id="assets" style="display:none;">
</g>
</svg>
