<?xml version="1.0" encoding="iso-8859-1"?>
<!-- Generator: Adobe Illustrator 16.0.4, SVG Export Plug-In . SVG Version: 6.00 Build 0)  -->
<!DOCTYPE svg PUBLIC "-//W3C//DTD SVG 1.1//EN" "http://www.w3.org/Graphics/SVG/1.1/DTD/svg11.dtd">
<svg version="1.1" xmlns="http://www.w3.org/2000/svg" xmlns:xlink="http://www.w3.org/1999/xlink" x="0px" y="0px" width="1920px"
	 height="1080px" viewBox="0 0 1920 1080" style="enable-background:new 0 0 1920 1080;" xml:space="preserve">
<g id="backdrop" style="display:none;">
	<rect y="-1080" style="display:inline;fill:#229F86;" width="1920" height="1080"/>
	<rect style="display:inline;fill:#A16FBC;" width="1920" height="1080"/>
	<rect y="1080" style="display:inline;fill:#76D3CE;" width="1920" height="1080"/>
</g>
<g id="lines">
	<g>
		<path style="fill:#FFFFFF;" d="M539.844,591.13H342.064c-107.86,0-195.61-87.751-195.61-195.612
			c0-107.862,87.75-195.614,195.61-195.614h197.779c107.858,0,195.608,87.752,195.608,195.614
			C735.452,503.379,647.702,591.13,539.844,591.13z M342.064,228.534c-92.073,0-166.979,74.908-166.979,166.983
			c0,92.074,74.906,166.981,166.979,166.981h197.779c92.071,0,166.978-74.907,166.978-166.981
			c0-92.075-74.906-166.983-166.978-166.983H342.064z"/>
	</g>
	<g style="opacity:0.4;">
		<path style="fill:#FFFFFF;" d="M440.95,786.818c5.529,0,10-4.48,10-10c0-5.53-4.471-10-10-10c-5.521,0-10,4.47-10,10
			C430.95,782.338,435.43,786.818,440.95,786.818z"/>
		<path style="fill:#FFFFFF;" d="M440.95,866.818c5.529,0,10-4.48,10-10c0-5.53-4.471-10-10-10c-5.521,0-10,4.47-10,10
			C430.95,862.338,435.43,866.818,440.95,866.818z"/>
		<path style="fill:#FFFFFF;" d="M440.95,826.818c5.529,0,10-4.48,10-10c0-5.53-4.471-10.011-10-10.011c-5.521,0-10,4.48-10,10.011
			C430.95,822.338,435.43,826.818,440.95,826.818z"/>
		<path style="fill:#FFFFFF;" d="M440.95,706.818c5.529,0,10-4.48,10-10c0-5.53-4.471-10-10-10c-5.521,0-10,4.47-10,10
			C430.95,702.338,435.43,706.818,440.95,706.818z"/>
		<path style="fill:#FFFFFF;" d="M440.95,746.818c5.529,0,10-4.48,10-10c0-5.53-4.471-10-10-10c-5.521,0-10,4.47-10,10
			C430.95,742.338,435.43,746.818,440.95,746.818z"/>
		<path style="fill:#FFFFFF;" d="M440.95,666.818c5.529,0,10-4.48,10-10.011c0-5.52-4.471-9.989-10-9.989c-5.521,0-10,4.47-10,9.989
			C430.95,662.338,435.43,666.818,440.95,666.818z"/>
		<path style="fill:#FFFFFF;" d="M440.95,946.818c5.529,0,10-4.48,10-10c0-5.53-4.471-10-10-10c-5.521,0-10,4.47-10,10
			C430.95,942.338,435.43,946.818,440.95,946.818z"/>
		<path style="fill:#FFFFFF;" d="M440.95,1066.808c5.529,0,10-4.47,10-9.989c0-5.53-4.471-10-10-10c-5.521,0-10,4.47-10,10
			C430.95,1062.338,435.43,1066.808,440.95,1066.808z"/>
		<path style="fill:#FFFFFF;" d="M440.95,906.818c5.529,0,10-4.48,10-10.011c0-5.52-4.471-10-10-10c-5.521,0-10,4.48-10,10
			C430.95,902.338,435.43,906.818,440.95,906.818z"/>
		<path style="fill:#FFFFFF;" d="M440.95,606.818c-5.521,0-10,4.47-10,10c0,5.52,4.479,10,10,10c5.529,0,10-4.48,10-10
			C450.95,611.288,446.479,606.818,440.95,606.818z"/>
		<path style="fill:#FFFFFF;" d="M440.95,1026.818c5.529,0,10-4.48,10-10c0-5.53-4.471-10-10-10c-5.521,0-10,4.47-10,10
			C430.95,1022.338,435.43,1026.818,440.95,1026.818z"/>
		<path style="fill:#FFFFFF;" d="M440.95,986.808c5.529,0,10-4.47,10-10c0-5.52-4.471-9.989-10-9.989c-5.521,0-10,4.47-10,9.989
			C430.95,982.338,435.43,986.808,440.95,986.808z"/>
	</g>
	<g style="opacity:0.4;">
		<path style="fill:#FFFFFF;" d="M1230.8,395.518c0-5.529-4.47-10-10-10c-5.521,0-10,4.471-10,10c0,5.521,4.479,10,10,10
			C1226.33,405.518,1230.8,401.038,1230.8,395.518z"/>
		<path style="fill:#FFFFFF;" d="M1270.8,395.518c0-5.529-4.48-10-10-10c-5.521,0-10,4.471-10,10c0,5.521,4.479,10,10,10
			C1266.319,405.518,1270.8,401.038,1270.8,395.518z"/>
		<path style="fill:#FFFFFF;" d="M1150.8,395.518c0-5.529-4.48-10-10-10c-5.521,0-10,4.471-10,10c0,5.521,4.479,10,10,10
			C1146.319,405.518,1150.8,401.038,1150.8,395.518z"/>
		<path style="fill:#FFFFFF;" d="M1310.8,395.518c0-5.529-4.47-10-10-10c-5.521,0-10,4.471-10,10c0,5.521,4.479,10,10,10
			C1306.33,405.518,1310.8,401.038,1310.8,395.518z"/>
		<path style="fill:#FFFFFF;" d="M1110.8,395.518c0-5.529-4.47-10-10-10c-5.521,0-10,4.471-10,10c0,5.521,4.479,10,10,10
			C1106.33,405.518,1110.8,401.038,1110.8,395.518z"/>
		<path style="fill:#FFFFFF;" d="M1430.8,395.518c0-5.529-4.47-10-10-10c-5.521,0-10,4.471-10,10c0,5.521,4.479,10,10,10
			C1426.33,405.518,1430.8,401.038,1430.8,395.518z"/>
		<path style="fill:#FFFFFF;" d="M1350.8,395.518c0-5.529-4.47-10-10-10c-5.521,0-10,4.471-10,10c0,5.521,4.479,10,10,10
			C1346.33,405.518,1350.8,401.038,1350.8,395.518z"/>
		<path style="fill:#FFFFFF;" d="M1390.8,395.518c0-5.529-4.48-10-10-10c-5.521,0-10,4.471-10,10c0,5.521,4.479,10,10,10
			C1386.319,405.518,1390.8,401.038,1390.8,395.518z"/>
		<path style="fill:#FFFFFF;" d="M830.8,395.518c0-5.529-4.48-10-10-10c-5.521,0-10,4.471-10,10c0,5.521,4.479,10,10,10
			C826.319,405.518,830.8,401.038,830.8,395.518z"/>
		<path style="fill:#FFFFFF;" d="M910.8,395.518c0-5.529-4.48-10-10-10c-5.521,0-10,4.471-10,10c0,5.521,4.479,10,10,10
			C906.319,405.518,910.8,401.038,910.8,395.518z"/>
		<path style="fill:#FFFFFF;" d="M1070.8,395.518c0-5.529-4.48-10-10-10c-5.521,0-10,4.471-10,10c0,5.521,4.479,10,10,10
			C1066.319,405.518,1070.8,401.038,1070.8,395.518z"/>
		<path style="fill:#FFFFFF;" d="M790.8,395.518c0-5.529-4.47-10-10-10c-5.521,0-10,4.471-10,10c0,5.521,4.479,10,10,10
			C786.33,405.518,790.8,401.038,790.8,395.518z"/>
		<path style="fill:#FFFFFF;" d="M870.8,395.518c0-5.529-4.47-10-10-10c-5.521,0-10,4.471-10,10c0,5.521,4.479,10,10,10
			C866.33,405.518,870.8,401.038,870.8,395.518z"/>
		<path style="fill:#FFFFFF;" d="M1030.8,395.518c0-5.529-4.48-10-10-10c-5.521,0-10,4.471-10,10c0,5.521,4.479,10,10,10
			C1026.319,405.518,1030.8,401.038,1030.8,395.518z"/>
		<path style="fill:#FFFFFF;" d="M990.8,395.518c0-5.529-4.47-10-10-10c-5.521,0-10,4.471-10,10c0,5.521,4.479,10,10,10
			C986.33,405.518,990.8,401.038,990.8,395.518z"/>
		<path style="fill:#FFFFFF;" d="M950.8,395.518c0-5.529-4.48-10-10-10c-5.521,0-10,4.471-10,10c0,5.521,4.479,10,10,10
			C946.319,405.518,950.8,401.038,950.8,395.518z"/>
		<path style="fill:#FFFFFF;" d="M1190.8,395.518c0-5.529-4.48-10-10-10c-5.521,0-10,4.471-10,10c0,5.521,4.479,10,10,10
			C1186.319,405.518,1190.8,401.038,1190.8,395.518z"/>
		<path style="fill:#FFFFFF;" d="M1722.49,264.248c5.529,0,10-4.48,10-10c0-5.521-4.471-10-10-10c-5.521,0-10,4.479-10,10
			C1712.49,259.768,1716.97,264.248,1722.49,264.248z"/>
		<path style="fill:#FFFFFF;" d="M1722.49,64.248c5.529,0,10-4.48,10-10c0-5.521-4.471-10-10-10c-5.521,0-10,4.479-10,10
			C1712.49,59.768,1716.97,64.248,1722.49,64.248z"/>
		<path style="fill:#FFFFFF;" d="M1722.49,224.248c5.529,0,10-4.48,10-10c0-5.521-4.471-10-10-10c-5.521,0-10,4.479-10,10
			C1712.49,219.768,1716.97,224.248,1722.49,224.248z"/>
		<path style="fill:#FFFFFF;" d="M1722.49,144.248c5.529,0,10-4.48,10-10c0-5.521-4.471-10-10-10c-5.521,0-10,4.479-10,10
			C1712.49,139.768,1716.97,144.248,1722.49,144.248z"/>
		<path style="fill:#FFFFFF;" d="M1470.8,395.518c0-5.529-4.47-10-10-10c-5.521,0-10,4.471-10,10c0,5.521,4.479,10,10,10
			C1466.33,405.518,1470.8,401.038,1470.8,395.518z"/>
		<path style="fill:#FFFFFF;" d="M1722.49,4.248c-5.521,0-10,4.479-10,10c0,5.52,4.479,10,10,10c5.529,0,10-4.48,10-10
			C1732.49,8.728,1728.02,4.248,1722.49,4.248z"/>
		<path style="fill:#FFFFFF;" d="M1705.8,329.468c-2.1,5.101,0.34,10.95,5.45,13.05c1.25,0.511,2.529,0.75,3.8,0.75
			c3.93,0,7.66-2.33,9.25-6.199c2.1-5.11-0.34-10.95-5.44-13.051C1713.75,321.918,1707.899,324.358,1705.8,329.468z"/>
		<path style="fill:#FFFFFF;" d="M1722.49,304.248c5.529,0,10-4.48,10-10c0-5.521-4.471-10-10-10c-5.521,0-10,4.479-10,10
			C1712.49,299.768,1716.97,304.248,1722.49,304.248z"/>
		<path style="fill:#FFFFFF;" d="M1722.49,184.248c5.529,0,10-4.48,10-10c0-5.521-4.471-10-10-10c-5.521,0-10,4.479-10,10
			C1712.49,179.768,1716.97,184.248,1722.49,184.248z"/>
		<path style="fill:#FFFFFF;" d="M1590.8,395.518c0-5.529-4.47-10-10-10c-5.521,0-10,4.471-10,10c0,5.521,4.479,10,10,10
			C1586.33,405.518,1590.8,401.038,1590.8,395.518z"/>
		<path style="fill:#FFFFFF;" d="M1550.8,395.518c0-5.529-4.47-10-10-10c-5.521,0-10,4.471-10,10c0,5.521,4.479,10,10,10
			C1546.33,405.518,1550.8,401.038,1550.8,395.518z"/>
		<path style="fill:#FFFFFF;" d="M1722.49,104.248c5.529,0,10-4.48,10-10c0-5.521-4.471-10-10-10c-5.521,0-10,4.479-10,10
			C1712.49,99.768,1716.97,104.248,1722.49,104.248z"/>
		<path style="fill:#FFFFFF;" d="M1510.8,395.518c0-5.529-4.48-10-10-10c-5.521,0-10,4.471-10,10c0,5.521,4.479,10,10,10
			C1506.319,405.518,1510.8,401.038,1510.8,395.518z"/>
		<path style="fill:#FFFFFF;" d="M1700.02,373.378c3.91-3.9,3.931-10.229,0.03-14.14c-3.9-3.92-10.23-3.931-14.14-0.03
			c-3.91,3.89-3.931,10.229-0.03,14.14c1.95,1.96,4.52,2.95,7.09,2.95C1695.52,376.298,1698.069,375.328,1700.02,373.378z"/>
		<path style="fill:#FFFFFF;" d="M1669.12,384.478c-2.08-5.119-7.91-7.59-13.03-5.51s-7.58,7.92-5.51,13.03
			c1.58,3.89,5.319,6.24,9.27,6.24c1.26,0,2.53-0.24,3.771-0.74c-0.011,0-0.011,0-0.011,0
			C1668.729,395.428,1671.189,389.588,1669.12,384.478z"/>
		<path style="fill:#FFFFFF;" d="M1630.8,395.518c0-5.529-4.47-10-10-10c-5.521,0-10,4.471-10,10c0,5.521,4.479,10,10,10
			C1626.33,405.518,1630.8,401.038,1630.8,395.518z"/>
	</g>
</g>
<g id="content" style="display:none;">
	<g style="display:inline;">
		<text transform="matrix(1 0 0 1 678.1426 379.1377)"><tspan x="0" y="0" style="fill:#1B2528; font-family:'LeagueGothic'; font-size:102.347;">We are deliberate </tspan><tspan x="-151.778" y="117.346" style="fill:#1B2528; font-family:'LeagueGothic'; font-size:102.347;">about what data we collect</tspan></text>
		<rect x="524.414" y="563.083" style="fill:none;" width="871.172" height="226.564"/>
		<text transform="matrix(1 0 0 1 524.4146 591.3135)"><tspan x="0" y="0" style="fill:#1B2528; font-family:'PlayfairDisplay-Regular'; font-size:36;">This</tspan><tspan x="70.119" y="0" style="fill:#1B2528; font-family:'PlayfairDisplay-Regular'; font-size:36; letter-spacing:8;"> </tspan><tspan x="87.469" y="0" style="fill:#1B2528; font-family:'PlayfairDisplay-Regular'; font-size:36;">is</tspan><tspan x="114.064" y="0" style="fill:#1B2528; font-family:'PlayfairDisplay-Regular'; font-size:36; letter-spacing:8;"> </tspan><tspan x="131.414" y="0" style="fill:#1B2528; font-family:'PlayfairDisplay-Regular'; font-size:36;">not</tspan><tspan x="185.379" y="0" style="fill:#1B2528; font-family:'PlayfairDisplay-Regular'; font-size:36; letter-spacing:8;"> </tspan><tspan x="202.728" y="0" style="fill:#1B2528; font-family:'PlayfairDisplay-Regular'; font-size:36;">the</tspan><tspan x="254.847" y="0" style="fill:#1B2528; font-family:'PlayfairDisplay-Regular'; font-size:36; letter-spacing:8;"> </tspan><tspan x="272.197" y="0" style="fill:#1B2528; font-family:'PlayfairDisplay-Regular'; font-size:36;">business</tspan><tspan x="411.785" y="0" style="fill:#1B2528; font-family:'PlayfairDisplay-Regular'; font-size:36; letter-spacing:8;"> </tspan><tspan x="429.134" y="0" style="fill:#1B2528; font-family:'PlayfairDisplay-Regular'; font-size:36;">of</tspan><tspan x="460.81" y="0" style="fill:#1B2528; font-family:'PlayfairDisplay-Regular'; font-size:36; letter-spacing:8;"> </tspan><tspan x="478.16" y="0" style="fill:#1B2528; font-family:'PlayfairDisplay-Regular'; font-size:36;">hoarding</tspan><tspan x="624.603" y="0" style="fill:#1B2528; font-family:'PlayfairDisplay-Regular'; font-size:36; letter-spacing:8;"> </tspan><tspan x="641.952" y="0" style="fill:#1B2528; font-family:'PlayfairDisplay-Regular'; font-size:36;">data,</tspan><tspan x="720.878" y="0" style="fill:#1B2528; font-family:'PlayfairDisplay-Regular'; font-size:36; letter-spacing:8;"> </tspan><tspan x="738.228" y="0" style="fill:#1B2528; font-family:'PlayfairDisplay-Regular'; font-size:36;">we</tspan><tspan x="784.159" y="0" style="fill:#1B2528; font-family:'PlayfairDisplay-Regular'; font-size:36; letter-spacing:8;"> </tspan><tspan x="801.509" y="0" style="fill:#1B2528; font-family:'PlayfairDisplay-Regular'; font-size:36;">only </tspan><tspan x="0" y="46" style="fill:#1B2528; font-family:'PlayfairDisplay-Regular'; font-size:36;">collect</tspan><tspan x="106.26" y="46" style="fill:#1B2528; font-family:'PlayfairDisplay-Regular'; font-size:36; letter-spacing:3;"> </tspan><tspan x="118.232" y="46" style="fill:#1B2528; font-family:'PlayfairDisplay-Regular'; font-size:36;">data</tspan><tspan x="187.754" y="46" style="fill:#1B2528; font-family:'PlayfairDisplay-Regular'; font-size:36; letter-spacing:3;"> </tspan><tspan x="199.727" y="46" style="fill:#1B2528; font-family:'PlayfairDisplay-Regular'; font-size:36;">that</tspan><tspan x="264.309" y="46" style="fill:#1B2528; font-family:'PlayfairDisplay-Regular'; font-size:36; letter-spacing:3;"> </tspan><tspan x="276.281" y="46" style="fill:#1B2528; font-family:'PlayfairDisplay-Regular'; font-size:36;">serves</tspan><tspan x="378.41" y="46" style="fill:#1B2528; font-family:'PlayfairDisplay-Regular'; font-size:36; letter-spacing:3;"> </tspan><tspan x="390.382" y="46" style="fill:#1B2528; font-family:'PlayfairDisplay-Regular'; font-size:36;">the</tspan><tspan x="442.501" y="46" style="fill:#1B2528; font-family:'PlayfairDisplay-Regular'; font-size:36; letter-spacing:3;"> </tspan><tspan x="454.474" y="46" style="fill:#1B2528; font-family:'PlayfairDisplay-Regular'; font-size:36;">utility</tspan><tspan x="550.416" y="46" style="fill:#1B2528; font-family:'PlayfairDisplay-Regular'; font-size:36; letter-spacing:3;"> </tspan><tspan x="562.388" y="46" style="fill:#1B2528; font-family:'PlayfairDisplay-Regular'; font-size:36;">of</tspan><tspan x="594.064" y="46" style="fill:#1B2528; font-family:'PlayfairDisplay-Regular'; font-size:36; letter-spacing:3;"> </tspan><tspan x="606.036" y="46" style="fill:#1B2528; font-family:'PlayfairDisplay-Regular'; font-size:36;">the</tspan><tspan x="658.155" y="46" style="fill:#1B2528; font-family:'PlayfairDisplay-Regular'; font-size:36; letter-spacing:3;"> </tspan><tspan x="670.128" y="46" style="fill:#1B2528; font-family:'PlayfairDisplay-Regular'; font-size:36;">product</tspan><tspan x="798.853" y="46" style="fill:#1B2528; font-family:'PlayfairDisplay-Regular'; font-size:36; letter-spacing:3;"> </tspan><tspan x="810.825" y="46" style="fill:#1B2528; font-family:'PlayfairDisplay-Regular'; font-size:36;">and </tspan><tspan x="0" y="92" style="fill:#1B2528; font-family:'PlayfairDisplay-Regular'; font-size:36;">service.</tspan><tspan x="123.188" y="92" style="fill:#1B2528; font-family:'PlayfairDisplay-Regular'; font-size:36; letter-spacing:1;"> </tspan><tspan x="133.69" y="92" style="fill:#1B2528; font-family:'PlayfairDisplay-Regular'; font-size:36;">Therefore,</tspan><tspan x="304.954" y="92" style="fill:#1B2528; font-family:'PlayfairDisplay-Regular'; font-size:36; letter-spacing:1;"> </tspan><tspan x="315.457" y="92" style="fill:#1B2528; font-family:'PlayfairDisplay-Regular'; font-size:36;">identifying</tspan><tspan x="490.71" y="92" style="fill:#1B2528; font-family:'PlayfairDisplay-Regular'; font-size:36; letter-spacing:1;"> </tspan><tspan x="501.213" y="92" style="fill:#1B2528; font-family:'PlayfairDisplay-Regular'; font-size:36;">what</tspan><tspan x="580.772" y="92" style="fill:#1B2528; font-family:'PlayfairDisplay-Regular'; font-size:36; letter-spacing:1;"> </tspan><tspan x="591.275" y="92" style="fill:#1B2528; font-family:'PlayfairDisplay-Regular'; font-size:36;">those</tspan><tspan x="679.166" y="92" style="fill:#1B2528; font-family:'PlayfairDisplay-Regular'; font-size:36; letter-spacing:1;"> </tspan><tspan x="689.668" y="92" style="fill:#1B2528; font-family:'PlayfairDisplay-Regular'; font-size:36;">data</tspan><tspan x="759.189" y="92" style="fill:#1B2528; font-family:'PlayfairDisplay-Regular'; font-size:36; letter-spacing:1;"> </tspan><tspan x="769.692" y="92" style="fill:#1B2528; font-family:'PlayfairDisplay-Regular'; font-size:36;">points </tspan><tspan x="0" y="138" style="fill:#1B2528; font-family:'PlayfairDisplay-Regular'; font-size:36;">are</tspan><tspan x="52.154" y="138" style="fill:#1B2528; font-family:'PlayfairDisplay-Regular'; font-size:36; letter-spacing:8;"> </tspan><tspan x="69.888" y="138" style="fill:#1B2528; font-family:'PlayfairDisplay-Regular'; font-size:36;">must</tspan><tspan x="151.574" y="138" style="fill:#1B2528; font-family:'PlayfairDisplay-Regular'; font-size:36; letter-spacing:8;"> </tspan><tspan x="169.307" y="138" style="fill:#1B2528; font-family:'PlayfairDisplay-Regular'; font-size:36;">be</tspan><tspan x="207.786" y="138" style="fill:#1B2528; font-family:'PlayfairDisplay-Regular'; font-size:36; letter-spacing:8;"> </tspan><tspan x="225.52" y="138" style="fill:#1B2528; font-family:'PlayfairDisplay-Regular'; font-size:36;">conscientious</tspan><tspan x="448.006" y="138" style="fill:#1B2528; font-family:'PlayfairDisplay-Regular'; font-size:36; letter-spacing:8;"> </tspan><tspan x="465.739" y="138" style="fill:#1B2528; font-family:'PlayfairDisplay-Regular'; font-size:36;">and</tspan><tspan x="526.085" y="138" style="fill:#1B2528; font-family:'PlayfairDisplay-Regular'; font-size:36; letter-spacing:8;"> </tspan><tspan x="543.819" y="138" style="fill:#1B2528; font-family:'PlayfairDisplay-Regular'; font-size:36;">deliberate.</tspan><tspan x="716.243" y="138" style="fill:#1B2528; font-family:'PlayfairDisplay-Regular'; font-size:36; letter-spacing:8;"> </tspan><tspan x="733.976" y="138" style="fill:#1B2528; font-family:'PlayfairDisplay-Regular'; font-size:36;">We</tspan><tspan x="784.759" y="138" style="fill:#1B2528; font-family:'PlayfairDisplay-Regular'; font-size:36; letter-spacing:8;"> </tspan><tspan x="802.493" y="138" style="fill:#1B2528; font-family:'PlayfairDisplay-Regular'; font-size:36;">take </tspan><tspan x="0" y="184" style="fill:#1B2528; font-family:'PlayfairDisplay-Regular'; font-size:36;">nothing more, and nothing less. </tspan></text>
	</g>
	
		<text transform="matrix(1 0 0 1 1749.8359 1027.0645)" style="display:inline;fill:#FFFFFF; font-family:'LeagueGothic'; font-size:36;">initiators?</text>
	<g style="display:inline;">
		
			<rect x="1868.752" y="357.251" style="opacity:0.3;fill:none;stroke:#FFFFFF;stroke-width:2;stroke-miterlimit:10;" width="24.431" height="24.431"/>
		
			<circle style="opacity:0.3;fill:none;stroke:#FFFFFF;stroke-width:2;stroke-miterlimit:10;" cx="1880.968" cy="409.771" r="13.384"/>
		<path style="fill:none;stroke:#FFFFFF;stroke-width:2;stroke-miterlimit:10;" d="M1896.365,602.824
			c0-8.505-6.894-15.398-15.397-15.398c-8.505,0-15.398,6.894-15.398,15.398H1896.365z"/>
		
			<rect x="1870.782" y="658.252" transform="matrix(0.7071 0.7071 -0.7071 0.7071 1023.5801 -1134.2639)" style="fill:none;stroke:#FFFFFF;stroke-width:2;stroke-miterlimit:10;" width="20.372" height="20.372"/>
		<polygon style="opacity:0.3;fill:none;stroke:#FFFFFF;stroke-width:2;stroke-miterlimit:10;" points="1873.703,497.806 
			1866.439,485.224 1873.703,472.642 1888.231,472.642 1895.495,485.224 1888.231,497.806 		"/>
		
			<rect x="1873.89" y="512.512" style="opacity:0.3;fill:none;stroke:#FFFFFF;stroke-width:2;stroke-miterlimit:10;" width="14.156" height="25.163"/>
		<path style="fill:#FFFFFF;stroke:#FFFFFF;stroke-width:2;stroke-miterlimit:10;" d="M1875.421,572.721
			c-5.618,0-10.171-4.554-10.171-10.17c0-5.617,4.553-10.17,10.171-10.17h11.094c5.616,0,10.169,4.553,10.169,10.17
			c0,5.616-4.553,10.17-10.169,10.17H1875.421z"/>
		<polygon style="fill:none;stroke:#FFFFFF;stroke-width:2;stroke-miterlimit:10;" points="1868.382,639.328 1880.968,617.529 
			1893.552,639.328 		"/>
		<polygon style="opacity:0.3;fill:none;stroke:#FFFFFF;stroke-width:2;stroke-miterlimit:10;" points="1895.075,457.936 
			1866.859,457.936 1872.914,437.86 1889.021,437.86 		"/>
		<polygon style="fill:none;stroke:#FFFFFF;stroke-width:2;stroke-miterlimit:10;" points="1872.778,722.749 1867.718,707.174 
			1880.968,697.549 1894.218,707.174 1889.155,722.749 		"/>
	</g>
	<g style="display:inline;">
		<rect x="1805.452" y="50" style="fill:#FFFFFF;" width="61.826" height="61.828"/>
		<text transform="matrix(1 0 0 1 1824.3184 99.04)" style="fill:#A16FBC; font-family:'LeagueGothic'; font-size:44.7768;">Vi</text>
	</g>
	<g style="display:inline;">
		<text transform="matrix(1 0 0 1 50 99.4395)" style="fill:#FFFFFF; font-family:'LeagueGothic'; font-size:60;">iot design manifesto 1.0</text>
	</g>
	<g style="display:inline;">
		<polygon style="fill:#FFFFFF;" points="50,980.133 50,1017.486 75.095,1017.486 86.562,1030 86.562,1017.486 93.221,1017.486 
			93.221,980.133 		"/>
		<text transform="matrix(1 0 0 1 67.5903 1007.7949)" style="font-family:'LeagueGothic'; font-size:24;">3</text>
	</g>
</g>
<g id="assets" style="display:none;">
</g>
</svg>
