<?xml version="1.0" encoding="iso-8859-1"?>
<!-- Generator: Adobe Illustrator 16.0.4, SVG Export Plug-In . SVG Version: 6.00 Build 0)  -->
<!DOCTYPE svg PUBLIC "-//W3C//DTD SVG 1.1//EN" "http://www.w3.org/Graphics/SVG/1.1/DTD/svg11.dtd">
<svg version="1.1" xmlns="http://www.w3.org/2000/svg" xmlns:xlink="http://www.w3.org/1999/xlink" x="0px" y="0px" width="1920px"
	 height="1080px" viewBox="0 0 1920 1080" style="enable-background:new 0 0 1920 1080;" xml:space="preserve">
<g id="backdrop" style="display:none;">
	<rect y="-1080" style="display:inline;fill:#A16FBC;" width="1920" height="1080"/>
	<rect style="display:inline;fill:#76D3CE;" width="1920" height="1080"/>
	<rect y="1080" style="display:inline;fill:#CC413E;" width="1920" height="1080"/>
</g>
<g id="lines">
	<g>
		<path style="fill:#FFFFFF;" d="M1798.36,691.569h-577.646v-14.315c0-77.146,30.042-149.676,84.593-204.227
			s127.079-84.593,204.227-84.593c77.148,0,149.68,30.042,204.231,84.593c54.553,54.551,84.596,127.079,84.596,204.227V691.569z
			 M1249.729,662.938h519.615c-3.453-64.118-30.069-123.912-75.824-169.666c-49.145-49.143-114.486-76.207-183.987-76.207
			c-69.499,0-134.839,27.064-183.981,76.207C1279.798,539.026,1253.183,598.82,1249.729,662.938z"/>
	</g>
	<g style="opacity:0.4;">
		<path style="fill:#FFFFFF;" d="M1509.54,887.248c5.52,0,10-4.47,10-9.99c0-5.53-4.48-10.01-10-10.01c-5.521,0-10,4.479-10,10.01
			C1499.54,882.778,1504.02,887.248,1509.54,887.248z"/>
		<path style="fill:#FFFFFF;" d="M1509.54,847.258c5.52,0,10-4.479,10-10.01c0-5.521-4.48-9.99-10-9.99c-5.521,0-10,4.47-10,9.99
			C1499.54,842.778,1504.02,847.258,1509.54,847.258z"/>
		<path style="fill:#FFFFFF;" d="M1509.54,767.258c5.52,0,10-4.479,10-10c0-5.53-4.48-10-10-10c-5.521,0-10,4.47-10,10
			C1499.54,762.778,1504.02,767.258,1509.54,767.258z"/>
		<path style="fill:#FFFFFF;" d="M1509.54,1067.258c-5.521,0-10,4.47-10,9.99c0,0.955,0.142,1.877,0.392,2.752h19.217
			c0.25-0.875,0.392-1.797,0.392-2.752C1519.54,1071.728,1515.06,1067.258,1509.54,1067.258z"/>
		<path style="fill:#FFFFFF;" d="M1509.54,807.248c5.52,0,10-4.47,10-9.99c0-5.53-4.48-10.01-10-10.01c-5.521,0-10,4.479-10,10.01
			C1499.54,802.778,1504.02,807.248,1509.54,807.248z"/>
		<path style="fill:#FFFFFF;" d="M1509.54,707.248c-5.521,0-10,4.479-10,10.01c0,5.521,4.479,10,10,10c5.52,0,10-4.479,10-10
			C1519.54,711.728,1515.06,707.248,1509.54,707.248z"/>
		<path style="fill:#FFFFFF;" d="M1509.54,1047.248c5.52,0,10-4.47,10-9.99c0-5.53-4.48-10.01-10-10.01c-5.521,0-10,4.479-10,10.01
			C1499.54,1042.778,1504.02,1047.248,1509.54,1047.248z"/>
		<path style="fill:#FFFFFF;" d="M1509.54,1007.258c5.52,0,10-4.479,10-10.01c0-5.521-4.48-9.99-10-9.99c-5.521,0-10,4.47-10,9.99
			C1499.54,1002.778,1504.02,1007.258,1509.54,1007.258z"/>
		<path style="fill:#FFFFFF;" d="M1509.54,967.248c5.52,0,10-4.47,10-9.99c0-5.53-4.48-10.01-10-10.01c-5.521,0-10,4.479-10,10.01
			C1499.54,962.778,1504.02,967.248,1509.54,967.248z"/>
		<path style="fill:#FFFFFF;" d="M1509.54,927.258c5.52,0,10-4.479,10-10.01c0-5.521-4.48-9.99-10-9.99c-5.521,0-10,4.47-10,9.99
			C1499.54,922.778,1504.02,927.258,1509.54,927.258z"/>
	</g>
	<g style="opacity:0.4;">
		<path style="fill:#FFFFFF;" d="M755.46,155.258c0-5.52-4.48-10-10-10c-5.521,0-10,4.48-10,10c0,5.53,4.479,10,10,10
			C750.979,165.258,755.46,160.788,755.46,155.258z"/>
		<path style="fill:#FFFFFF;" d="M715.46,155.258c0-5.52-4.48-10-10-10c-5.521,0-10,4.48-10,10c0,5.53,4.479,10,10,10
			C710.979,165.258,715.46,160.788,715.46,155.258z"/>
		<path style="fill:#FFFFFF;" d="M795.46,155.258c0-5.52-4.48-10-10-10c-5.521,0-10,4.48-10,10c0,5.53,4.479,10,10,10
			C790.979,165.258,795.46,160.788,795.46,155.258z"/>
		<path style="fill:#FFFFFF;" d="M675.46,155.258c0-5.52-4.48-10-10-10c-5.521,0-10,4.48-10,10c0,5.53,4.479,10,10,10
			C670.979,165.258,675.46,160.788,675.46,155.258z"/>
		<path style="fill:#FFFFFF;" d="M835.46,155.258c0-5.52-4.48-10-10-10c-5.521,0-10,4.48-10,10c0,5.53,4.479,10,10,10
			C830.979,165.258,835.46,160.788,835.46,155.258z"/>
		<path style="fill:#FFFFFF;" d="M955.46,155.258c0-5.52-4.48-10-10-10c-5.521,0-10,4.48-10,10c0,5.53,4.479,10,10,10
			C950.979,165.258,955.46,160.788,955.46,155.258z"/>
		<path style="fill:#FFFFFF;" d="M875.46,155.258c0-5.52-4.48-10-10-10c-5.521,0-10,4.48-10,10c0,5.53,4.479,10,10,10
			C870.979,165.258,875.46,160.788,875.46,155.258z"/>
		<path style="fill:#FFFFFF;" d="M995.46,155.258c0-5.52-4.48-10-10-10c-5.521,0-10,4.48-10,10c0,5.53,4.479,10,10,10
			C990.979,165.258,995.46,160.788,995.46,155.258z"/>
		<path style="fill:#FFFFFF;" d="M479.78,134.858c3.789-4.021,3.6-10.351-0.421-14.141c-4.02-3.79-10.35-3.6-14.14,0.42
			c-3.78,4.021-3.59,10.351,0.43,14.141c1.931,1.819,4.391,2.72,6.851,2.72C475.16,137.998,477.81,136.948,479.78,134.858z"/>
		<path style="fill:#FFFFFF;" d="M440.95,6.818c-5.521,0-10,4.47-10,10c0,5.52,4.479,10,10,10c5.529,0,10-4.48,10-10
			C450.95,11.288,446.479,6.818,440.95,6.818z"/>
		<path style="fill:#FFFFFF;" d="M440.359,99.668c1.66,3.72,5.32,5.94,9.15,5.94c1.36,0,2.73-0.28,4.05-0.87
			c5.05-2.24,7.32-8.15,5.08-13.2c-2.25-5.05-8.149-7.32-13.2-5.07C440.39,88.708,438.12,94.618,440.359,99.668z"/>
		<path style="fill:#FFFFFF;" d="M440.81,46.818c-5.52,0.08-9.93,4.63-9.84,10.149c0.08,5.47,4.54,9.851,9.99,9.851
			c0.06,0,0.109,0,0.16-0.011c5.52-0.08,9.93-4.63,9.84-10.149C450.88,51.138,446.33,46.728,440.81,46.818z"/>
		<path style="fill:#FFFFFF;" d="M506.22,159.008c4.05,0,7.87-2.479,9.37-6.51c1.93-5.17-0.7-10.93-5.87-12.86
			c-5.18-1.93-10.939,0.69-12.87,5.87c-1.93,5.17,0.7,10.93,5.87,12.86C503.87,158.808,505.06,159.008,506.22,159.008z"/>
		<path style="fill:#FFFFFF;" d="M595.46,155.258c0-5.52-4.48-10-10-10c-5.521,0-10,4.48-10,10c0,5.53,4.479,10,10,10
			C590.979,165.258,595.46,160.788,595.46,155.258z"/>
		<path style="fill:#FFFFFF;" d="M635.46,155.258c0-5.52-4.48-10-10-10c-5.521,0-10,4.48-10,10c0,5.53,4.479,10,10,10
			C630.979,165.258,635.46,160.788,635.46,155.258z"/>
		<path style="fill:#FFFFFF;" d="M555.46,155.258c0-5.52-4.48-10-10-10c-5.521,0-10,4.48-10,10c0,5.53,4.479,10,10,10
			C550.979,165.258,555.46,160.788,555.46,155.258z"/>
		<path style="fill:#FFFFFF;" d="M915.46,155.258c0-5.52-4.48-10-10-10c-5.521,0-10,4.48-10,10c0,5.53,4.479,10,10,10
			C910.979,165.258,915.46,160.788,915.46,155.258z"/>
		<path style="fill:#FFFFFF;" d="M1462.529,180.568c3.33,0,6.58-1.65,8.471-4.67c2.95-4.681,1.55-10.851-3.13-13.79
			c-4.67-2.95-10.851-1.54-13.79,3.13c-2.94,4.68-1.54,10.85,3.13,13.79C1458.87,180.078,1460.71,180.568,1462.529,180.568z"/>
		<path style="fill:#FFFFFF;" d="M1035.46,155.258c0-5.52-4.48-10-10-10c-5.521,0-10,4.48-10,10c0,5.53,4.479,10,10,10
			C1030.979,165.258,1035.46,160.788,1035.46,155.258z"/>
		<path style="fill:#FFFFFF;" d="M1415.51,154.938c-0.88,5.45,2.83,10.58,8.28,11.461h0.01c0.54,0.09,1.07,0.13,1.6,0.13
			c4.82,0,9.07-3.5,9.86-8.41c0.87-5.46-2.83-10.59-8.29-11.46c0.01,0,0.01,0,0.01,0
			C1421.52,145.778,1416.39,149.478,1415.51,154.938z"/>
		<path style="fill:#FFFFFF;" d="M1509.54,344.138c-5.521,0-10,4.48-10,10.011c0,5.52,4.479,10,10,10c5.52,0,10-4.48,10-10
			C1519.54,348.618,1515.06,344.138,1509.54,344.138z"/>
		<path style="fill:#FFFFFF;" d="M1485.6,189.758c-4.52,3.18-5.6,9.42-2.43,13.93c1.95,2.771,5.05,4.25,8.189,4.25
			c1.99,0,4-0.6,5.75-1.829c4.511-3.181,5.601-9.421,2.42-13.931C1496.35,187.658,1490.109,186.578,1485.6,189.758z"/>
		<path style="fill:#FFFFFF;" d="M1507.3,244.308c0.7,0,1.41-0.069,2.12-0.229c5.399-1.16,8.83-6.48,7.67-11.88
			c-1.16-5.4-6.48-8.83-11.88-7.67c-5.4,1.17-8.83,6.489-7.67,11.88C1498.55,241.098,1502.689,244.308,1507.3,244.308z"/>
		<path style="fill:#FFFFFF;" d="M1509.54,264.148c-5.521,0-10,4.47-10,10c0,5.52,4.479,10,10,10c5.52,0,10-4.48,10-10
			C1519.54,268.618,1515.06,264.148,1509.54,264.148z"/>
		<path style="fill:#FFFFFF;" d="M1395.46,155.258c0-5.52-4.48-10-10-10c-5.521,0-10,4.48-10,10c0,5.53,4.479,10,10,10
			C1390.979,165.258,1395.46,160.788,1395.46,155.258z"/>
		<path style="fill:#FFFFFF;" d="M1509.54,304.148c-5.521,0-10,4.47-10,9.989c0,5.53,4.479,10,10,10c5.52,0,10-4.47,10-10
			C1519.54,308.618,1515.06,304.148,1509.54,304.148z"/>
		<path style="fill:#FFFFFF;" d="M1155.46,155.258c0-5.52-4.48-10-10-10c-5.521,0-10,4.48-10,10c0,5.53,4.479,10,10,10
			C1150.979,165.258,1155.46,160.788,1155.46,155.258z"/>
		<path style="fill:#FFFFFF;" d="M1195.46,155.258c0-5.52-4.48-10-10-10c-5.521,0-10,4.48-10,10c0,5.53,4.479,10,10,10
			C1190.979,165.258,1195.46,160.788,1195.46,155.258z"/>
		<path style="fill:#FFFFFF;" d="M1115.46,155.258c0-5.52-4.48-10-10-10c-5.521,0-10,4.48-10,10c0,5.53,4.479,10,10,10
			C1110.979,165.258,1115.46,160.788,1115.46,155.258z"/>
		<path style="fill:#FFFFFF;" d="M1075.46,155.258c0-5.52-4.48-10-10-10c-5.521,0-10,4.48-10,10c0,5.53,4.479,10,10,10
			C1070.979,165.258,1075.46,160.788,1075.46,155.258z"/>
		<path style="fill:#FFFFFF;" d="M1235.46,155.258c0-5.52-4.48-10-10-10c-5.521,0-10,4.48-10,10c0,5.53,4.479,10,10,10
			C1230.979,165.258,1235.46,160.788,1235.46,155.258z"/>
		<path style="fill:#FFFFFF;" d="M1315.46,155.258c0-5.52-4.48-10-10-10c-5.521,0-10,4.48-10,10c0,5.53,4.479,10,10,10
			C1310.979,165.258,1315.46,160.788,1315.46,155.258z"/>
		<path style="fill:#FFFFFF;" d="M1355.46,155.258c0-5.52-4.48-10-10-10c-5.521,0-10,4.48-10,10c0,5.53,4.479,10,10,10
			C1350.979,165.258,1355.46,160.788,1355.46,155.258z"/>
		<path style="fill:#FFFFFF;" d="M1275.46,155.258c0-5.52-4.48-10-10-10c-5.521,0-10,4.48-10,10c0,5.53,4.479,10,10,10
			C1270.979,165.258,1275.46,160.788,1275.46,155.258z"/>
	</g>
	<g style="opacity:0.4;">
		<path style="fill:#FFFFFF;" d="M1509.54,1087.258c4.565,0,8.412-3.068,9.608-7.258h-19.217
			C1501.127,1084.189,1504.974,1087.258,1509.54,1087.258z"/>
	</g>
</g>
<g id="content" style="display:none;">
	<g style="display:inline;">
		<text transform="matrix(1 0 0 1 630.8579 377.4316)"><tspan x="0" y="0" style="fill:#1B2528; font-family:'LeagueGothic'; font-size:102.347;">We make the network</tspan><tspan x="-40.984" y="119.346" style="fill:#1B2528; font-family:'LeagueGothic'; font-size:102.347;">of associations explicit</tspan></text>
		<rect x="524.414" y="564.789" style="fill:none;" width="871.172" height="226.564"/>
		<text transform="matrix(1 0 0 1 524.4146 593.0195)"><tspan x="0" y="0" style="fill:#1B2528; font-family:'PlayfairDisplay-Regular'; font-size:36;">IoT</tspan><tspan x="54.281" y="0" style="fill:#1B2528; font-family:'PlayfairDisplay-Regular'; font-size:36;"> </tspan><tspan x="62.804" y="0" style="fill:#1B2528; font-family:'PlayfairDisplay-Regular'; font-size:36;">products</tspan><tspan x="207.578" y="0" style="fill:#1B2528; font-family:'PlayfairDisplay-Regular'; font-size:36;"> </tspan><tspan x="216.1" y="0" style="fill:#1B2528; font-family:'PlayfairDisplay-Regular'; font-size:36;">are</tspan><tspan x="268.254" y="0" style="fill:#1B2528; font-family:'PlayfairDisplay-Regular'; font-size:36;"> </tspan><tspan x="276.777" y="0" style="fill:#1B2528; font-family:'PlayfairDisplay-Regular'; font-size:36;">uniquely</tspan><tspan x="417.578" y="0" style="fill:#1B2528; font-family:'PlayfairDisplay-Regular'; font-size:36;"> </tspan><tspan x="426.101" y="0" style="fill:#1B2528; font-family:'PlayfairDisplay-Regular'; font-size:36;">connected,</tspan><tspan x="603.288" y="0" style="fill:#1B2528; font-family:'PlayfairDisplay-Regular'; font-size:36;"> </tspan><tspan x="611.811" y="0" style="fill:#1B2528; font-family:'PlayfairDisplay-Regular'; font-size:36;">making</tspan><tspan x="732.204" y="0" style="fill:#1B2528; font-family:'PlayfairDisplay-Regular'; font-size:36;"> </tspan><tspan x="740.726" y="0" style="fill:#1B2528; font-family:'PlayfairDisplay-Regular'; font-size:36;">the</tspan><tspan x="792.845" y="0" style="fill:#1B2528; font-family:'PlayfairDisplay-Regular'; font-size:36;"> </tspan><tspan x="801.368" y="0" style="fill:#1B2528; font-family:'PlayfairDisplay-Regular'; font-size:36;">flow </tspan><tspan x="0" y="46" style="fill:#1B2528; font-family:'PlayfairDisplay-Regular'; font-size:36;">of</tspan><tspan x="31.676" y="46" style="fill:#1B2528; font-family:'PlayfairDisplay-Regular'; font-size:36; letter-spacing:1;"> </tspan><tspan x="42.384" y="46" style="fill:#1B2528; font-family:'PlayfairDisplay-Regular'; font-size:36;">information</tspan><tspan x="236.534" y="46" style="fill:#1B2528; font-family:'PlayfairDisplay-Regular'; font-size:36; letter-spacing:1;"> </tspan><tspan x="247.242" y="46" style="fill:#1B2528; font-family:'PlayfairDisplay-Regular'; font-size:36;">among</tspan><tspan x="357.017" y="46" style="fill:#1B2528; font-family:'PlayfairDisplay-Regular'; font-size:36; letter-spacing:1;"> </tspan><tspan x="367.725" y="46" style="fill:#1B2528; font-family:'PlayfairDisplay-Regular'; font-size:36;">stakeholders</tspan><tspan x="574.831" y="46" style="fill:#1B2528; font-family:'PlayfairDisplay-Regular'; font-size:36; letter-spacing:1;"> </tspan><tspan x="585.539" y="46" style="fill:#1B2528; font-family:'PlayfairDisplay-Regular'; font-size:36;">fluid.</tspan><tspan x="669.351" y="46" style="fill:#1B2528; font-family:'PlayfairDisplay-Regular'; font-size:36; letter-spacing:1;"> </tspan><tspan x="680.059" y="46" style="fill:#1B2528; font-family:'PlayfairDisplay-Regular'; font-size:36;">This</tspan><tspan x="750.178" y="46" style="fill:#1B2528; font-family:'PlayfairDisplay-Regular'; font-size:36; letter-spacing:1;"> </tspan><tspan x="760.886" y="46" style="fill:#1B2528; font-family:'PlayfairDisplay-Regular'; font-size:36;">results </tspan><tspan x="0" y="92" style="fill:#1B2528; font-family:'PlayfairDisplay-Regular'; font-size:36;">in</tspan><tspan x="32.045" y="92" style="fill:#1B2528; font-family:'PlayfairDisplay-Regular'; font-size:36; letter-spacing:3;"> </tspan><tspan x="44.018" y="92" style="fill:#1B2528; font-family:'PlayfairDisplay-Regular'; font-size:36;">a</tspan><tspan x="61.948" y="92" style="fill:#1B2528; font-family:'PlayfairDisplay-Regular'; font-size:36; letter-spacing:3;"> </tspan><tspan x="73.921" y="92" style="fill:#1B2528; font-family:'PlayfairDisplay-Regular'; font-size:36;">complex,</tspan><tspan x="220.628" y="92" style="fill:#1B2528; font-family:'PlayfairDisplay-Regular'; font-size:36; letter-spacing:3;"> </tspan><tspan x="232.601" y="92" style="fill:#1B2528; font-family:'PlayfairDisplay-Regular'; font-size:36;">ambiguous,</tspan><tspan x="418.982" y="92" style="fill:#1B2528; font-family:'PlayfairDisplay-Regular'; font-size:36; letter-spacing:3;"> </tspan><tspan x="430.955" y="92" style="fill:#1B2528; font-family:'PlayfairDisplay-Regular'; font-size:36;">and</tspan><tspan x="491.3" y="92" style="fill:#1B2528; font-family:'PlayfairDisplay-Regular'; font-size:36; letter-spacing:3;"> </tspan><tspan x="503.273" y="92" style="fill:#1B2528; font-family:'PlayfairDisplay-Regular'; font-size:36;">invisible</tspan><tspan x="638.836" y="92" style="fill:#1B2528; font-family:'PlayfairDisplay-Regular'; font-size:36; letter-spacing:3;"> </tspan><tspan x="650.809" y="92" style="fill:#1B2528; font-family:'PlayfairDisplay-Regular'; font-size:36;">network.</tspan><tspan x="795.583" y="92" style="fill:#1B2528; font-family:'PlayfairDisplay-Regular'; font-size:36; letter-spacing:3;"> </tspan><tspan x="807.556" y="92" style="fill:#1B2528; font-family:'PlayfairDisplay-Regular'; font-size:36;">Our </tspan><tspan x="0" y="138" style="fill:#1B2528; font-family:'PlayfairDisplay-Regular'; font-size:36;">responsibility</tspan><tspan x="221.555" y="138" style="fill:#1B2528; font-family:'PlayfairDisplay-Regular'; font-size:36; letter-spacing:5;"> </tspan><tspan x="235.6" y="138" style="fill:#1B2528; font-family:'PlayfairDisplay-Regular'; font-size:36;">is</tspan><tspan x="262.195" y="138" style="fill:#1B2528; font-family:'PlayfairDisplay-Regular'; font-size:36; letter-spacing:5;"> </tspan><tspan x="276.24" y="138" style="fill:#1B2528; font-family:'PlayfairDisplay-Regular'; font-size:36;">to</tspan><tspan x="308.707" y="138" style="fill:#1B2528; font-family:'PlayfairDisplay-Regular'; font-size:36; letter-spacing:5;"> </tspan><tspan x="322.751" y="138" style="fill:#1B2528; font-family:'PlayfairDisplay-Regular'; font-size:36;">make</tspan><tspan x="410.66" y="138" style="fill:#1B2528; font-family:'PlayfairDisplay-Regular'; font-size:36; letter-spacing:5;"> </tspan><tspan x="424.705" y="138" style="fill:#1B2528; font-family:'PlayfairDisplay-Regular'; font-size:36;">the</tspan><tspan x="476.824" y="138" style="fill:#1B2528; font-family:'PlayfairDisplay-Regular'; font-size:36; letter-spacing:5;"> </tspan><tspan x="490.869" y="138" style="fill:#1B2528; font-family:'PlayfairDisplay-Regular'; font-size:36;">dynamics</tspan><tspan x="645.416" y="138" style="fill:#1B2528; font-family:'PlayfairDisplay-Regular'; font-size:36; letter-spacing:5;"> </tspan><tspan x="659.46" y="138" style="fill:#1B2528; font-family:'PlayfairDisplay-Regular'; font-size:36;">among</tspan><tspan x="769.235" y="138" style="fill:#1B2528; font-family:'PlayfairDisplay-Regular'; font-size:36; letter-spacing:5;"> </tspan><tspan x="783.28" y="138" style="fill:#1B2528; font-family:'PlayfairDisplay-Regular'; font-size:36;">those </tspan><tspan x="0" y="184" style="fill:#1B2528; font-family:'PlayfairDisplay-Regular'; font-size:36;">parties more visible and understandable to everyone.  </tspan></text>
	</g>
	
		<text transform="matrix(1 0 0 1 1749.8359 1027.0645)" style="display:inline;fill:#FFFFFF; font-family:'LeagueGothic'; font-size:36;">initiators?</text>
	<g style="display:inline;">
		
			<rect x="1868.752" y="357.251" style="opacity:0.3;fill:none;stroke:#FFFFFF;stroke-width:2;stroke-miterlimit:10;" width="24.431" height="24.431"/>
		
			<circle style="opacity:0.3;fill:none;stroke:#FFFFFF;stroke-width:2;stroke-miterlimit:10;" cx="1880.968" cy="409.771" r="13.384"/>
		<path style="fill:#FFFFFF;stroke:#FFFFFF;stroke-width:2;stroke-miterlimit:10;" d="M1896.365,602.824
			c0-8.505-6.894-15.398-15.397-15.398c-8.505,0-15.398,6.894-15.398,15.398H1896.365z"/>
		
			<rect x="1870.782" y="658.252" transform="matrix(0.7071 0.7071 -0.7071 0.7071 1023.5801 -1134.2639)" style="fill:none;stroke:#FFFFFF;stroke-width:2;stroke-miterlimit:10;" width="20.372" height="20.372"/>
		<polygon style="opacity:0.3;fill:none;stroke:#FFFFFF;stroke-width:2;stroke-miterlimit:10;" points="1873.703,497.806 
			1866.439,485.224 1873.703,472.642 1888.231,472.642 1895.495,485.224 1888.231,497.806 		"/>
		
			<rect x="1873.89" y="512.512" style="opacity:0.3;fill:none;stroke:#FFFFFF;stroke-width:2;stroke-miterlimit:10;" width="14.156" height="25.163"/>
		<path style="opacity:0.3;fill:none;stroke:#FFFFFF;stroke-width:2;stroke-miterlimit:10;" d="M1875.421,572.721
			c-5.618,0-10.171-4.554-10.171-10.17c0-5.617,4.553-10.17,10.171-10.17h11.094c5.616,0,10.169,4.553,10.169,10.17
			c0,5.616-4.553,10.17-10.169,10.17H1875.421z"/>
		<polygon style="fill:none;stroke:#FFFFFF;stroke-width:2;stroke-miterlimit:10;" points="1868.382,639.328 1880.968,617.529 
			1893.552,639.328 		"/>
		<polygon style="opacity:0.3;fill:none;stroke:#FFFFFF;stroke-width:2;stroke-miterlimit:10;" points="1895.075,457.936 
			1866.859,457.936 1872.914,437.86 1889.021,437.86 		"/>
		<polygon style="fill:none;stroke:#FFFFFF;stroke-width:2;stroke-miterlimit:10;" points="1872.778,722.749 1867.718,707.174 
			1880.968,697.549 1894.218,707.174 1889.155,722.749 		"/>
	</g>
	<g style="display:inline;">
		<rect x="1805.452" y="50" style="fill:#FFFFFF;" width="61.826" height="61.828"/>
		<text transform="matrix(1 0 0 1 1820.1104 99.04)" style="fill:#76D3CE; font-family:'LeagueGothic'; font-size:44.7768;">vii</text>
	</g>
	<g style="display:inline;">
		<text transform="matrix(1 0 0 1 50 99.4395)" style="fill:#FFFFFF; font-family:'LeagueGothic'; font-size:60;">iot design manifesto 1.0</text>
	</g>
	<g style="display:inline;">
		<polygon style="fill:#FFFFFF;" points="50,980.133 50,1017.486 75.095,1017.486 86.562,1030 86.562,1017.486 93.221,1017.486 
			93.221,980.133 		"/>
		<text transform="matrix(1 0 0 1 67.5903 1007.7949)" style="font-family:'LeagueGothic'; font-size:24;">3</text>
	</g>
</g>
<g id="assets" style="display:none;">
</g>
</svg>
