<?xml version="1.0" encoding="iso-8859-1"?>
<!-- Generator: Adobe Illustrator 16.0.4, SVG Export Plug-In . SVG Version: 6.00 Build 0)  -->
<!DOCTYPE svg PUBLIC "-//W3C//DTD SVG 1.1//EN" "http://www.w3.org/Graphics/SVG/1.1/DTD/svg11.dtd">
<svg version="1.1" xmlns="http://www.w3.org/2000/svg" xmlns:xlink="http://www.w3.org/1999/xlink" x="0px" y="0px" width="1920px"
	 height="1080px" viewBox="0 0 1920 1080" style="enable-background:new 0 0 1920 1080;" xml:space="preserve">
<g id="backdrop" style="display:none;">
	<rect y="-1080" style="display:inline;fill:#76D3CE;" width="1920" height="1080"/>
	<rect style="display:inline;fill:#CC413E;" width="1920" height="1080"/>
	<rect y="1080" style="display:inline;fill:#F0C330;" width="1920" height="1080"/>
</g>
<g id="lines">
	<g>
		<path style="fill:#FFFFFF;" d="M676.247,917.818H177.955l249.15-431.561L676.247,917.818z M227.545,889.188h399.114
			L427.105,543.521L227.545,889.188z"/>
	</g>
	<g style="opacity:0.4;">
		<path style="fill:#FFFFFF;" d="M1509.54-12.742c-5.521,0-10,4.47-10,9.99c0,0.955,0.142,1.877,0.392,2.752h19.217
			c0.25-0.875,0.392-1.797,0.392-2.752C1519.54-8.272,1515.06-12.742,1509.54-12.742z"/>
	</g>
	<g style="opacity:0.4;">
		<path style="fill:#FFFFFF;" d="M427.1,989.938c5.521,0,10-4.47,10-10c0-5.52-4.479-10-10-10c-5.52,0-10,4.48-10,10
			C417.1,985.468,421.58,989.938,427.1,989.938z"/>
		<path style="fill:#FFFFFF;" d="M427.1,1028.158c5.521,0,10-4.48,10-10c0-5.521-4.479-10-10-10c-5.52,0-10,4.479-10,10
			C417.1,1023.678,421.58,1028.158,427.1,1028.158z"/>
		<path style="fill:#FFFFFF;" d="M427.1,931.718c-5.52,0-10,4.48-10,10.01c0,5.521,4.48,10,10,10c5.521,0,10-4.479,10-10
			C437.1,936.198,432.62,931.718,427.1,931.718z"/>
		<path style="fill:#FFFFFF;" d="M427.1,1066.378c5.521,0,10-4.47,10-10c0-5.52-4.479-10-10-10c-5.52,0-10,4.48-10,10
			C417.1,1061.908,421.58,1066.378,427.1,1066.378z"/>
	</g>
	<g style="opacity:0.4;">
		<path style="fill:#FFFFFF;" d="M1160.609,330.068c-4.779,2.76-6.42,8.88-3.659,13.659c1.85,3.21,5.21,5,8.67,5
			c1.699,0,3.409-0.43,4.989-1.34c4.78-2.76,6.42-8.88,3.66-13.66C1171.51,328.948,1165.39,327.308,1160.609,330.068z"/>
		<path style="fill:#FFFFFF;" d="M1195.25,310.068c-4.78,2.76-6.42,8.88-3.66,13.659c1.85,3.21,5.22,5,8.67,5
			c1.7,0,3.42-0.43,4.99-1.34c4.779-2.76,6.42-8.88,3.66-13.66C1206.149,308.948,1200.029,307.308,1195.25,310.068z"/>
		<path style="fill:#FFFFFF;" d="M1229.89,290.068c-4.78,2.76-6.42,8.88-3.66,13.659c1.851,3.21,5.221,5,8.67,5
			c1.7,0,3.42-0.43,4.99-1.34c4.78-2.76,6.42-8.88,3.66-13.66C1240.79,288.948,1234.68,287.308,1229.89,290.068z"/>
		<path style="fill:#FFFFFF;" d="M1022.05,410.068c-4.79,2.76-6.43,8.88-3.66,13.659c1.851,3.21,5.21,5,8.67,5
			c1.69,0,3.41-0.43,4.99-1.34c4.78-2.76,6.42-8.88,3.66-13.66C1032.95,408.948,1026.83,407.308,1022.05,410.068z"/>
		<path style="fill:#FFFFFF;" d="M1264.529,270.068c-4.779,2.76-6.42,8.88-3.659,13.659c1.85,3.21,5.22,5,8.67,5
			c1.7,0,3.42-0.43,4.989-1.34c4.78-2.76,6.421-8.88,3.66-13.66C1275.43,268.948,1269.319,267.308,1264.529,270.068z"/>
		<path style="fill:#FFFFFF;" d="M1125.97,350.068c-4.78,2.76-6.42,8.88-3.66,13.659c1.851,3.21,5.21,5,8.67,5
			c1.69,0,3.41-0.43,4.99-1.34c4.78-2.76,6.42-8.88,3.66-13.66C1136.87,348.948,1130.75,347.308,1125.97,350.068z"/>
		<path style="fill:#FFFFFF;" d="M1091.33,370.068c-4.79,2.76-6.42,8.88-3.66,13.659c1.85,3.21,5.21,5,8.67,5
			c1.7,0,3.41-0.43,4.99-1.34c4.779-2.76,6.42-8.88,3.66-13.66C1102.229,368.948,1096.109,367.308,1091.33,370.068z"/>
		<path style="fill:#FFFFFF;" d="M1461.13,141.958c-3.351,4.39-2.51,10.67,1.88,14.02c1.81,1.381,3.95,2.051,6.06,2.051
			c3.011,0,5.99-1.351,7.96-3.931c3.351-4.39,2.511-10.66-1.88-14.02C1470.76,136.728,1464.479,137.578,1461.13,141.958z"/>
		<path style="fill:#FFFFFF;" d="M1494.67,105.168c-4.93-2.46-10.94-0.46-13.41,4.479c-2.47,4.94-0.46,10.95,4.47,13.41
			c1.44,0.721,2.96,1.061,4.471,1.061c3.67,0,7.199-2.03,8.949-5.53C1501.62,113.647,1499.609,107.638,1494.67,105.168z"/>
		<path style="fill:#FFFFFF;" d="M1504.45,86.808c4.43,0,8.479-2.96,9.659-7.439c1.41-5.34-1.77-10.82-7.109-12.23
			s-10.811,1.771-12.221,7.11c-1.42,5.34,1.771,10.81,7.101,12.22C1502.74,86.698,1503.6,86.808,1504.45,86.808z"/>
		<path style="fill:#FFFFFF;" d="M1299.17,250.068c-4.78,2.76-6.42,8.88-3.66,13.659c1.85,3.21,5.22,5,8.67,5
			c1.7,0,3.42-0.43,4.99-1.34c4.78-2.76,6.42-8.88,3.66-13.66C1310.069,248.948,1303.96,247.308,1299.17,250.068z"/>
		<path style="fill:#FFFFFF;" d="M1435.21,169.338c-4.24,3.53-4.811,9.84-1.28,14.08c1.98,2.37,4.83,3.6,7.69,3.6
			c2.26,0,4.529-0.76,6.399-2.319c4.24-3.54,4.811-9.84,1.28-14.09C1445.76,166.368,1439.45,165.798,1435.21,169.338z"/>
		<path style="fill:#FFFFFF;" d="M1403.1,190.068c-4.79,2.76-6.42,8.88-3.66,13.659c1.851,3.21,5.21,5,8.66,5
			c1.7,0,3.42-0.43,5-1.34c4.78-2.76,6.42-8.88,3.66-13.66C1413.99,188.938,1407.88,187.308,1403.1,190.068z"/>
		<path style="fill:#FFFFFF;" d="M1333.81,230.068c-4.78,2.76-6.42,8.88-3.66,13.659c1.86,3.21,5.221,5,8.67,5
			c1.7,0,3.421-0.43,4.99-1.34c4.79-2.76,6.42-8.88,3.66-13.66C1344.71,228.948,1338.6,227.308,1333.81,230.068z"/>
		<path style="fill:#FFFFFF;" d="M1368.45,210.068c-4.78,2.76-6.421,8.869-3.65,13.659c1.85,3.21,5.21,5,8.67,5
			c1.69,0,3.41-0.43,4.99-1.34c4.78-2.76,6.42-8.88,3.66-13.66C1379.359,208.948,1373.24,207.308,1368.45,210.068z"/>
		<path style="fill:#FFFFFF;" d="M1056.689,390.068c-4.79,2.76-6.42,8.88-3.66,13.659c1.851,3.21,5.211,5,8.671,5
			c1.689,0,3.409-0.43,4.989-1.34c4.78-2.76,6.42-8.88,3.66-13.66C1067.59,388.948,1061.47,387.308,1056.689,390.068z"/>
		<path style="fill:#FFFFFF;" d="M987.41,430.068c-4.79,2.76-6.431,8.88-3.67,13.659c1.859,3.21,5.22,5,8.68,5
			c1.689,0,3.41-0.43,4.99-1.34c4.779-2.76,6.42-8.88,3.659-13.66C998.31,428.948,992.189,427.308,987.41,430.068z"/>
		<path style="fill:#FFFFFF;" d="M641,630.068c-4.78,2.77-6.42,8.88-3.66,13.67c1.85,3.199,5.21,5,8.67,5
			c1.7,0,3.41-0.44,4.99-1.351c4.78-2.76,6.42-8.87,3.66-13.66C651.899,628.948,645.78,627.308,641,630.068z"/>
		<path style="fill:#FFFFFF;" d="M675.64,610.068c-4.78,2.77-6.42,8.88-3.66,13.659c1.851,3.21,5.21,5.011,8.67,5.011
			c1.7,0,3.41-0.44,4.99-1.341c4.78-2.77,6.42-8.88,3.66-13.67C686.54,608.948,680.42,607.308,675.64,610.068z"/>
		<path style="fill:#FFFFFF;" d="M606.359,650.068c-4.79,2.76-6.42,8.88-3.659,13.67c1.85,3.199,5.21,5,8.67,5
			c1.699,0,3.41-0.431,4.989-1.341c4.78-2.77,6.421-8.88,3.66-13.67C617.25,648.948,611.14,647.318,606.359,650.068z"/>
		<path style="fill:#FFFFFF;" d="M1509.54,7.258c4.565,0,8.412-3.068,9.608-7.258h-19.217
			C1501.127,4.189,1504.974,7.258,1509.54,7.258z"/>
		<path style="fill:#FFFFFF;" d="M576.729,688.738c1.7,0,3.41-0.44,4.99-1.341c4.78-2.77,6.42-8.88,3.66-13.659
			c-2.771-4.79-8.88-6.431-13.66-3.67c-4.79,2.77-6.42,8.88-3.66,13.659C569.91,686.938,573.27,688.738,576.729,688.738z"/>
		<path style="fill:#FFFFFF;" d="M1509.54,27.248c-5.521,0-10,4.479-10,10.01c0,5.521,4.479,9.99,10,9.99c5.52,0,10-4.47,10-9.99
			C1519.54,31.728,1515.06,27.248,1509.54,27.248z"/>
		<path style="fill:#FFFFFF;" d="M710.279,590.068c-4.779,2.76-6.42,8.88-3.659,13.659c1.85,3.21,5.21,5.011,8.67,5.011
			c1.7,0,3.42-0.44,4.989-1.341c4.78-2.77,6.421-8.88,3.66-13.67C721.18,588.948,715.06,587.308,710.279,590.068z"/>
		<path style="fill:#FFFFFF;" d="M918.13,470.068c-4.79,2.76-6.43,8.88-3.67,13.659c1.859,3.21,5.22,5,8.67,5
			c1.7,0,3.42-0.43,5-1.34c4.78-2.76,6.41-8.88,3.649-13.66C929.02,468.948,922.91,467.308,918.13,470.068z"/>
		<path style="fill:#FFFFFF;" d="M952.77,450.068c-4.79,2.76-6.43,8.88-3.67,13.659c1.86,3.21,5.22,5,8.68,5
			c1.69,0,3.41-0.43,4.99-1.34c4.78-2.76,6.42-8.87,3.66-13.66C963.67,448.948,957.55,447.308,952.77,450.068z"/>
		<path style="fill:#FFFFFF;" d="M883.479,490.068c-4.779,2.76-6.42,8.88-3.66,13.659c1.86,3.21,5.221,5,8.681,5
			c1.689,0,3.41-0.43,4.99-1.34c4.779-2.76,6.409-8.88,3.649-13.66C894.38,488.948,888.27,487.308,883.479,490.068z"/>
		<path style="fill:#FFFFFF;" d="M848.84,510.068c-4.78,2.76-6.42,8.88-3.66,13.659c1.86,3.21,5.22,5,8.67,5c1.7,0,3.42-0.43,5-1.34
			c4.78-2.76,6.41-8.87,3.65-13.66C859.74,508.948,853.63,507.308,848.84,510.068z"/>
		<path style="fill:#FFFFFF;" d="M744.92,570.068c-4.78,2.76-6.42,8.88-3.66,13.67c1.85,3.199,5.21,4.989,8.67,4.989
			c1.7,0,3.42-0.43,4.99-1.34c4.78-2.76,6.42-8.87,3.66-13.66C755.819,568.948,749.7,567.308,744.92,570.068z"/>
		<path style="fill:#FFFFFF;" d="M779.56,550.068c-4.78,2.76-6.42,8.88-3.66,13.659c1.851,3.21,5.21,5.011,8.67,5.011
			c1.7,0,3.421-0.44,4.99-1.351c4.78-2.76,6.42-8.88,3.66-13.66C790.46,548.948,784.34,547.308,779.56,550.068z"/>
		<path style="fill:#FFFFFF;" d="M814.2,530.068c-4.78,2.76-6.421,8.88-3.66,13.659c1.85,3.21,5.21,5,8.67,5.011
			c1.7,0,3.42-0.44,4.99-1.351c4.779-2.76,6.42-8.87,3.659-13.66C825.1,528.948,818.979,527.308,814.2,530.068z"/>
	</g>
</g>
<g id="content" style="display:none;">
	<g style="display:inline;">
		<text transform="matrix(1 0 0 1 585.6753 302.8379)"><tspan x="0" y="0" style="fill:#1B2528; font-family:'LeagueGothic'; font-size:102.347;">We empower users to be </tspan><tspan x="-57.056" y="109.346" style="fill:#1B2528; font-family:'LeagueGothic'; font-size:102.347;">master of their own domain</tspan></text>
		<rect x="524.414" y="488.883" style="fill:none;" width="871.172" height="377.064"/>
		<text transform="matrix(1 0 0 1 524.4141 517.1133)"><tspan x="0" y="0" style="fill:#1B2528; font-family:'PlayfairDisplay-Regular'; font-size:36;">Users</tspan><tspan x="90.879" y="0" style="fill:#1B2528; font-family:'PlayfairDisplay-Regular'; font-size:36;"> </tspan><tspan x="99.25" y="0" style="fill:#1B2528; font-family:'PlayfairDisplay-Regular'; font-size:36;">often</tspan><tspan x="183.378" y="0" style="fill:#1B2528; font-family:'PlayfairDisplay-Regular'; font-size:36;"> </tspan><tspan x="191.749" y="0" style="fill:#1B2528; font-family:'PlayfairDisplay-Regular'; font-size:36;">do</tspan><tspan x="232.39" y="0" style="fill:#1B2528; font-family:'PlayfairDisplay-Regular'; font-size:36;"> </tspan><tspan x="240.761" y="0" style="fill:#1B2528; font-family:'PlayfairDisplay-Regular'; font-size:36;">not</tspan><tspan x="294.726" y="0" style="fill:#1B2528; font-family:'PlayfairDisplay-Regular'; font-size:36;"> </tspan><tspan x="303.096" y="0" style="fill:#1B2528; font-family:'PlayfairDisplay-Regular'; font-size:36;">have</tspan><tspan x="377.997" y="0" style="fill:#1B2528; font-family:'PlayfairDisplay-Regular'; font-size:36;"> </tspan><tspan x="386.367" y="0" style="fill:#1B2528; font-family:'PlayfairDisplay-Regular'; font-size:36;">control</tspan><tspan x="503.859" y="0" style="fill:#1B2528; font-family:'PlayfairDisplay-Regular'; font-size:36;"> </tspan><tspan x="512.23" y="0" style="fill:#1B2528; font-family:'PlayfairDisplay-Regular'; font-size:36;">over</tspan><tspan x="583.773" y="0" style="fill:#1B2528; font-family:'PlayfairDisplay-Regular'; font-size:36;"> </tspan><tspan x="592.144" y="0" style="fill:#1B2528; font-family:'PlayfairDisplay-Regular'; font-size:36;">the</tspan><tspan x="644.263" y="0" style="fill:#1B2528; font-family:'PlayfairDisplay-Regular'; font-size:36;"> </tspan><tspan x="652.634" y="0" style="fill:#1B2528; font-family:'PlayfairDisplay-Regular'; font-size:36;">role</tspan><tspan x="716.882" y="0" style="fill:#1B2528; font-family:'PlayfairDisplay-Regular'; font-size:36;"> </tspan><tspan x="725.252" y="0" style="fill:#1B2528; font-family:'PlayfairDisplay-Regular'; font-size:36;">they</tspan><tspan x="795.512" y="0" style="fill:#1B2528; font-family:'PlayfairDisplay-Regular'; font-size:36;"> </tspan><tspan x="803.883" y="0" style="fill:#1B2528; font-family:'PlayfairDisplay-Regular'; font-size:36;">play </tspan><tspan x="0" y="46" style="fill:#1B2528; font-family:'PlayfairDisplay-Regular'; font-size:36;">within</tspan><tspan x="104.221" y="46" style="fill:#1B2528; font-family:'PlayfairDisplay-Regular'; font-size:36; letter-spacing:7;"> </tspan><tspan x="120.583" y="46" style="fill:#1B2528; font-family:'PlayfairDisplay-Regular'; font-size:36;">the</tspan><tspan x="172.702" y="46" style="fill:#1B2528; font-family:'PlayfairDisplay-Regular'; font-size:36; letter-spacing:7;"> </tspan><tspan x="189.064" y="46" style="fill:#1B2528; font-family:'PlayfairDisplay-Regular'; font-size:36;">network</tspan><tspan x="324.768" y="46" style="fill:#1B2528; font-family:'PlayfairDisplay-Regular'; font-size:36; letter-spacing:7;"> </tspan><tspan x="341.13" y="46" style="fill:#1B2528; font-family:'PlayfairDisplay-Regular'; font-size:36;">of</tspan><tspan x="372.806" y="46" style="fill:#1B2528; font-family:'PlayfairDisplay-Regular'; font-size:36; letter-spacing:7;"> </tspan><tspan x="389.168" y="46" style="fill:#1B2528; font-family:'PlayfairDisplay-Regular'; font-size:36;">stakeholders</tspan><tspan x="596.273" y="46" style="fill:#1B2528; font-family:'PlayfairDisplay-Regular'; font-size:36; letter-spacing:7;"> </tspan><tspan x="612.636" y="46" style="fill:#1B2528; font-family:'PlayfairDisplay-Regular'; font-size:36;">surrounding</tspan><tspan x="815.382" y="46" style="fill:#1B2528; font-family:'PlayfairDisplay-Regular'; font-size:36; letter-spacing:7;"> </tspan><tspan x="831.744" y="46" style="fill:#1B2528; font-family:'PlayfairDisplay-Regular'; font-size:36;">an </tspan><tspan x="0" y="92" style="fill:#1B2528; font-family:'PlayfairDisplay-Regular'; font-size:36;">IoT</tspan><tspan x="54.281" y="92" style="fill:#1B2528; font-family:'PlayfairDisplay-Regular'; font-size:36; letter-spacing:21;"> </tspan><tspan x="85.081" y="92" style="fill:#1B2528; font-family:'PlayfairDisplay-Regular'; font-size:36;">product.</tspan><tspan x="222.875" y="92" style="fill:#1B2528; font-family:'PlayfairDisplay-Regular'; font-size:36; letter-spacing:21;"> </tspan><tspan x="253.675" y="92" style="fill:#1B2528; font-family:'PlayfairDisplay-Regular'; font-size:36;">We</tspan><tspan x="304.458" y="92" style="fill:#1B2528; font-family:'PlayfairDisplay-Regular'; font-size:36; letter-spacing:21;"> </tspan><tspan x="335.257" y="92" style="fill:#1B2528; font-family:'PlayfairDisplay-Regular'; font-size:36;">believe</tspan><tspan x="448.601" y="92" style="fill:#1B2528; font-family:'PlayfairDisplay-Regular'; font-size:36; letter-spacing:21;"> </tspan><tspan x="479.401" y="92" style="fill:#1B2528; font-family:'PlayfairDisplay-Regular'; font-size:36;">that</tspan><tspan x="543.983" y="92" style="fill:#1B2528; font-family:'PlayfairDisplay-Regular'; font-size:36; letter-spacing:21;"> </tspan><tspan x="574.782" y="92" style="fill:#1B2528; font-family:'PlayfairDisplay-Regular'; font-size:36;">users</tspan><tspan x="662.022" y="92" style="fill:#1B2528; font-family:'PlayfairDisplay-Regular'; font-size:36; letter-spacing:21;"> </tspan><tspan x="692.822" y="92" style="fill:#1B2528; font-family:'PlayfairDisplay-Regular'; font-size:36;">should</tspan><tspan x="801.894" y="92" style="fill:#1B2528; font-family:'PlayfairDisplay-Regular'; font-size:36; letter-spacing:21;"> </tspan><tspan x="832.693" y="92" style="fill:#1B2528; font-family:'PlayfairDisplay-Regular'; font-size:36;">be </tspan><tspan x="0" y="138" style="fill:#1B2528; font-family:'PlayfairDisplay-Regular'; font-size:36;">empowered</tspan><tspan x="191.9" y="138" style="fill:#1B2528; font-family:'PlayfairDisplay-Regular'; font-size:36; letter-spacing:1;"> </tspan><tspan x="201.959" y="138" style="fill:#1B2528; font-family:'PlayfairDisplay-Regular'; font-size:36;">to</tspan><tspan x="234.426" y="138" style="fill:#1B2528; font-family:'PlayfairDisplay-Regular'; font-size:36; letter-spacing:1;"> </tspan><tspan x="244.484" y="138" style="fill:#1B2528; font-family:'PlayfairDisplay-Regular'; font-size:36;">set</tspan><tspan x="291.488" y="138" style="fill:#1B2528; font-family:'PlayfairDisplay-Regular'; font-size:36; letter-spacing:1;"> </tspan><tspan x="301.547" y="138" style="fill:#1B2528; font-family:'PlayfairDisplay-Regular'; font-size:36;">the</tspan><tspan x="353.666" y="138" style="fill:#1B2528; font-family:'PlayfairDisplay-Regular'; font-size:36; letter-spacing:1;"> </tspan><tspan x="363.725" y="138" style="fill:#1B2528; font-family:'PlayfairDisplay-Regular'; font-size:36;">boundaries</tspan><tspan x="545.799" y="138" style="fill:#1B2528; font-family:'PlayfairDisplay-Regular'; font-size:36; letter-spacing:1;"> </tspan><tspan x="555.857" y="138" style="fill:#1B2528; font-family:'PlayfairDisplay-Regular'; font-size:36;">of</tspan><tspan x="587.533" y="138" style="fill:#1B2528; font-family:'PlayfairDisplay-Regular'; font-size:36; letter-spacing:1;"> </tspan><tspan x="597.592" y="138" style="fill:#1B2528; font-family:'PlayfairDisplay-Regular'; font-size:36;">how</tspan><tspan x="666.199" y="138" style="fill:#1B2528; font-family:'PlayfairDisplay-Regular'; font-size:36; letter-spacing:1;"> </tspan><tspan x="676.258" y="138" style="fill:#1B2528; font-family:'PlayfairDisplay-Regular'; font-size:36;">their</tspan><tspan x="754.938" y="138" style="fill:#1B2528; font-family:'PlayfairDisplay-Regular'; font-size:36; letter-spacing:1;"> </tspan><tspan x="764.996" y="138" style="fill:#1B2528; font-family:'PlayfairDisplay-Regular'; font-size:36;">data</tspan><tspan x="834.518" y="138" style="fill:#1B2528; font-family:'PlayfairDisplay-Regular'; font-size:36; letter-spacing:1;"> </tspan><tspan x="844.576" y="138" style="fill:#1B2528; font-family:'PlayfairDisplay-Regular'; font-size:36;">is </tspan><tspan x="0" y="184" style="fill:#1B2528; font-family:'PlayfairDisplay-Regular'; font-size:36;">accessed</tspan><tspan x="142.348" y="184" style="fill:#1B2528; font-family:'PlayfairDisplay-Regular'; font-size:36; letter-spacing:12;"> </tspan><tspan x="163.975" y="184" style="fill:#1B2528; font-family:'PlayfairDisplay-Regular'; font-size:36;">and</tspan><tspan x="224.321" y="184" style="fill:#1B2528; font-family:'PlayfairDisplay-Regular'; font-size:36; letter-spacing:12;"> </tspan><tspan x="245.949" y="184" style="fill:#1B2528; font-family:'PlayfairDisplay-Regular'; font-size:36;">how</tspan><tspan x="314.556" y="184" style="fill:#1B2528; font-family:'PlayfairDisplay-Regular'; font-size:36; letter-spacing:12;"> </tspan><tspan x="336.184" y="184" style="fill:#1B2528; font-family:'PlayfairDisplay-Regular'; font-size:36;">they</tspan><tspan x="406.444" y="184" style="fill:#1B2528; font-family:'PlayfairDisplay-Regular'; font-size:36; letter-spacing:12;"> </tspan><tspan x="428.071" y="184" style="fill:#1B2528; font-family:'PlayfairDisplay-Regular'; font-size:36;">are</tspan><tspan x="480.226" y="184" style="fill:#1B2528; font-family:'PlayfairDisplay-Regular'; font-size:36; letter-spacing:12;"> </tspan><tspan x="501.853" y="184" style="fill:#1B2528; font-family:'PlayfairDisplay-Regular'; font-size:36;">engaged</tspan><tspan x="635.921" y="184" style="fill:#1B2528; font-family:'PlayfairDisplay-Regular'; font-size:36; letter-spacing:12;"> </tspan><tspan x="657.549" y="184" style="fill:#1B2528; font-family:'PlayfairDisplay-Regular'; font-size:36;">with</tspan><tspan x="729.725" y="184" style="fill:#1B2528; font-family:'PlayfairDisplay-Regular'; font-size:36; letter-spacing:12;"> </tspan><tspan x="751.353" y="184" style="fill:#1B2528; font-family:'PlayfairDisplay-Regular'; font-size:36;">via</tspan><tspan x="797.425" y="184" style="fill:#1B2528; font-family:'PlayfairDisplay-Regular'; font-size:36; letter-spacing:12;"> </tspan><tspan x="819.053" y="184" style="fill:#1B2528; font-family:'PlayfairDisplay-Regular'; font-size:36;">the </tspan><tspan x="0" y="230" style="fill:#1B2528; font-family:'PlayfairDisplay-Regular'; font-size:36;">product.</tspan></text>
	</g>
	<g style="display:inline;">
		<rect x="1808.174" y="50" style="fill:#FFFFFF;" width="61.826" height="61.828"/>
		<text transform="matrix(1 0 0 1 1818.623 99.04)" style="fill:#CC413E; font-family:'LeagueGothic'; font-size:44.7768;">viii</text>
	</g>
	
		<text transform="matrix(1 0 0 1 1749.8359 1027.0645)" style="display:inline;fill:#FFFFFF; font-family:'LeagueGothic'; font-size:36;">initiators?</text>
	<g style="display:inline;">
		
			<rect x="1868.752" y="357.251" style="opacity:0.3;fill:none;stroke:#FFFFFF;stroke-width:2;stroke-miterlimit:10;" width="24.431" height="24.431"/>
		
			<circle style="opacity:0.3;fill:none;stroke:#FFFFFF;stroke-width:2;stroke-miterlimit:10;" cx="1880.968" cy="409.771" r="13.384"/>
		<path style="opacity:0.3;fill:none;stroke:#FFFFFF;stroke-width:2;stroke-miterlimit:10;" d="M1896.365,602.824
			c0-8.505-6.894-15.398-15.397-15.398c-8.505,0-15.398,6.894-15.398,15.398H1896.365z"/>
		
			<rect x="1870.782" y="658.252" transform="matrix(0.7071 0.7071 -0.7071 0.7071 1023.5801 -1134.2639)" style="fill:none;stroke:#FFFFFF;stroke-width:2;stroke-miterlimit:10;" width="20.372" height="20.372"/>
		<polygon style="opacity:0.3;fill:none;stroke:#FFFFFF;stroke-width:2;stroke-miterlimit:10;" points="1873.703,497.806 
			1866.439,485.224 1873.703,472.642 1888.231,472.642 1895.495,485.224 1888.231,497.806 		"/>
		
			<rect x="1873.89" y="512.512" style="opacity:0.3;fill:none;stroke:#FFFFFF;stroke-width:2;stroke-miterlimit:10;" width="14.156" height="25.163"/>
		<path style="opacity:0.3;fill:none;stroke:#FFFFFF;stroke-width:2;stroke-miterlimit:10;" d="M1875.421,572.721
			c-5.618,0-10.171-4.554-10.171-10.17c0-5.617,4.553-10.17,10.171-10.17h11.094c5.616,0,10.169,4.553,10.169,10.17
			c0,5.616-4.553,10.17-10.169,10.17H1875.421z"/>
		<polygon style="fill:#FFFFFF;stroke:#FFFFFF;stroke-width:2;stroke-miterlimit:10;" points="1868.382,639.328 1880.968,617.529 
			1893.552,639.328 		"/>
		<polygon style="opacity:0.3;fill:none;stroke:#FFFFFF;stroke-width:2;stroke-miterlimit:10;" points="1895.075,457.936 
			1866.859,457.936 1872.914,437.86 1889.021,437.86 		"/>
		<polygon style="fill:none;stroke:#FFFFFF;stroke-width:2;stroke-miterlimit:10;" points="1872.778,722.749 1867.718,707.174 
			1880.968,697.549 1894.218,707.174 1889.155,722.749 		"/>
	</g>
	<g style="display:inline;">
		<text transform="matrix(1 0 0 1 50 99.4395)" style="fill:#FFFFFF; font-family:'LeagueGothic'; font-size:60;">iot design manifesto 1.0</text>
	</g>
	<g style="display:inline;">
		<polygon style="fill:#FFFFFF;" points="50,980.133 50,1017.486 75.095,1017.486 86.562,1030 86.562,1017.486 93.221,1017.486 
			93.221,980.133 		"/>
		<text transform="matrix(1 0 0 1 67.5903 1007.7949)" style="font-family:'LeagueGothic'; font-size:24;">3</text>
	</g>
</g>
<g id="assets" style="display:none;">
</g>
</svg>
