<?xml version="1.0" encoding="iso-8859-1"?>
<!-- Generator: Adobe Illustrator 16.0.4, SVG Export Plug-In . SVG Version: 6.00 Build 0)  -->
<!DOCTYPE svg PUBLIC "-//W3C//DTD SVG 1.1//EN" "http://www.w3.org/Graphics/SVG/1.1/DTD/svg11.dtd">
<svg version="1.1" xmlns="http://www.w3.org/2000/svg" xmlns:xlink="http://www.w3.org/1999/xlink" x="0px" y="0px" width="1920px"
	 height="1080px" viewBox="0 0 1920 1080" style="enable-background:new 0 0 1920 1080;" xml:space="preserve">
<g id="backdrop" style="display:none;">
	<rect y="-1080" style="display:inline;fill:#CC413E;" width="1920" height="1080"/>
	<rect style="display:inline;fill:#F0C330;" width="1920" height="1080"/>
	<rect y="1080" style="display:inline;fill:#C45FA0;" width="1920" height="1080"/>
</g>
<g id="lines">
	<g>
		<path style="fill:#FFFFFF;" d="M1066.682,853.751L789.64,576.713l277.038-277.038l277.03,277.038L1066.682,853.751z
			 M830.13,576.713l236.552,236.548l236.536-236.548l-236.54-236.548L830.13,576.713z"/>
	</g>
	<g style="opacity:0.4;">
		<path style="fill:#FFFFFF;" d="M1066.68,1068.528c-5.52,0-10,4.479-10,10c0,0.501,0.049,0.99,0.12,1.472h19.76
			c0.071-0.481,0.12-0.971,0.12-1.472C1076.68,1073.008,1072.2,1068.528,1066.68,1068.528z"/>
		<path style="fill:#FFFFFF;" d="M1066.68,925.178c5.521,0,10-4.479,10-10c0-5.52-4.479-10-10-10c-5.52,0-10,4.48-10,10
			C1056.68,920.698,1061.16,925.178,1066.68,925.178z"/>
		<path style="fill:#FFFFFF;" d="M1066.68,966.018c5.521,0,10-4.479,10-10c0-5.52-4.479-10-10-10c-5.52,0-10,4.48-10,10
			C1056.68,961.538,1061.16,966.018,1066.68,966.018z"/>
		<path style="fill:#FFFFFF;" d="M1066.68,864.338c-5.52,0-10,4.48-10,10.01c0,5.521,4.48,10,10,10c5.521,0,10-4.479,10-10
			C1076.68,868.818,1072.2,864.338,1066.68,864.338z"/>
		<path style="fill:#FFFFFF;" d="M1066.68,1047.698c5.521,0,10-4.48,10-10c0-5.53-4.479-10-10-10c-5.52,0-10,4.47-10,10
			C1056.68,1043.218,1061.16,1047.698,1066.68,1047.698z"/>
		<path style="fill:#FFFFFF;" d="M1066.68,1006.857c5.521,0,10-4.479,10-10c0-5.529-4.479-10-10-10c-5.52,0-10,4.471-10,10
			C1056.68,1002.378,1061.16,1006.857,1066.68,1006.857z"/>
	</g>
	<g style="opacity:0.4;">
		<path style="fill:#FFFFFF;" d="M477.08,167.478c0-5.529-4.48-10-10.011-10c-5.52,0-10,4.471-10,10c0,5.521,4.48,10,10,10
			C472.6,177.478,477.08,172.998,477.08,167.478z"/>
		<path style="fill:#FFFFFF;" d="M557.02,167.478c0-5.529-4.479-10-10-10c-5.52,0-10,4.471-10,10c0,5.521,4.48,10,10,10
			C552.54,177.478,557.02,172.998,557.02,167.478z"/>
		<path style="fill:#FFFFFF;" d="M716.91,167.478c0-5.529-4.471-10-10-10c-5.521,0-10,4.471-10,10c0,5.521,4.479,10,10,10
			C712.439,177.478,716.91,172.998,716.91,167.478z"/>
		<path style="fill:#FFFFFF;" d="M596.99,167.478c0-5.529-4.471-10-10-10c-5.521,0-10,4.471-10,10c0,5.521,4.479,10,10,10
			C592.52,177.478,596.99,172.998,596.99,167.478z"/>
		<path style="fill:#FFFFFF;" d="M636.97,167.478c0-5.529-4.479-10-10-10c-5.53,0-10,4.471-10,10c0,5.521,4.47,10,10,10
			C632.49,177.478,636.97,172.998,636.97,167.478z"/>
		<path style="fill:#FFFFFF;" d="M517.05,167.478c0-5.529-4.48-10-10-10c-5.53,0-10,4.471-10,10c0,5.521,4.47,10,10,10
			C512.569,177.478,517.05,172.998,517.05,167.478z"/>
		<path style="fill:#FFFFFF;" d="M427.1,24.598c5.521,0,10-4.479,10-10c0-5.52-4.479-10-10-10c-5.52,0-10,4.48-10,10
			C417.1,20.118,421.58,24.598,427.1,24.598z"/>
		<path style="fill:#FFFFFF;" d="M427.1,62.818c5.521,0,10-4.48,10-10c0-5.521-4.479-10-10-10c-5.52,0-10,4.479-10,10
			C417.1,58.338,421.58,62.818,427.1,62.818z"/>
		<path style="fill:#FFFFFF;" d="M420.03,174.548c1.859,1.86,4.439,2.93,7.069,2.93s5.21-1.069,7.07-2.93s2.93-4.44,2.93-7.07
			s-1.069-5.21-2.93-7.069c-1.86-1.86-4.44-2.931-7.07-2.931s-5.21,1.07-7.069,2.931c-1.86,1.859-2.931,4.439-2.931,7.069
			S418.17,172.688,420.03,174.548z"/>
		<path style="fill:#FFFFFF;" d="M427.1,139.258c5.521,0,10-4.479,10-10c0-5.52-4.479-10-10-10c-5.52,0-10,4.48-10,10
			C417.1,134.778,421.58,139.258,427.1,139.258z"/>
		<path style="fill:#FFFFFF;" d="M427.1,101.038c5.521,0,10-4.48,10-10c0-5.53-4.479-10-10-10c-5.52,0-10,4.47-10,10
			C417.1,96.558,421.58,101.038,427.1,101.038z"/>
		<path style="fill:#FFFFFF;" d="M676.939,167.478c0-5.529-4.479-10-10-10c-5.52,0-10,4.471-10,10c0,5.521,4.48,10,10,10
			C672.46,177.478,676.939,172.998,676.939,167.478z"/>
		<path style="fill:#FFFFFF;" d="M1066.67,253.698c5.53,0,10-4.48,10-10c0-5.521-4.47-10-10-10c-5.521,0-10,4.479-10,10
			C1056.67,249.218,1061.149,253.698,1066.67,253.698z"/>
		<path style="fill:#FFFFFF;" d="M1066.67,215.588c5.53,0,10-4.48,10-10s-4.47-10-10-10c-5.521,0-10,4.48-10,10
			S1061.149,215.588,1066.67,215.588z"/>
		<path style="fill:#FFFFFF;" d="M996.729,167.478c0-5.529-4.479-10-10-10c-5.529,0-10,4.471-10,10c0,5.521,4.471,10,10,10
			C992.25,177.478,996.729,172.998,996.729,167.478z"/>
		<path style="fill:#FFFFFF;" d="M1036.7,167.478c0-5.529-4.48-10-10-10c-5.521,0-10,4.471-10,10c0,5.521,4.479,10,10,10
			C1032.22,177.478,1036.7,172.998,1036.7,167.478z"/>
		<path style="fill:#FFFFFF;" d="M1066.67,291.808c5.53,0,10-4.479,10-10c0-5.52-4.47-10-10-10c-5.521,0-10,4.48-10,10
			C1056.67,287.328,1061.149,291.808,1066.67,291.808z"/>
		<path style="fill:#FFFFFF;" d="M1066.67,157.478c-2.63,0-5.21,1.07-7.07,2.931c-1.859,1.859-2.92,4.43-2.92,7.069
			c0,2.63,1.061,5.21,2.92,7.07c1.86,1.86,4.44,2.93,7.07,2.93c2.64,0,5.21-1.069,7.07-2.93c1.869-1.86,2.93-4.44,2.93-7.07
			s-1.061-5.21-2.93-7.069C1071.88,158.548,1069.31,157.478,1066.67,157.478z"/>
		<path style="fill:#FFFFFF;" d="M796.859,167.478c0-5.529-4.479-10-10-10c-5.52,0-10,4.471-10,10c0,5.521,4.48,10,10,10
			C792.38,177.478,796.859,172.998,796.859,167.478z"/>
		<path style="fill:#FFFFFF;" d="M956.75,167.478c0-5.529-4.471-10-10-10c-5.521,0-10,4.471-10,10c0,5.521,4.479,10,10,10
			C952.279,177.478,956.75,172.998,956.75,167.478z"/>
		<path style="fill:#FFFFFF;" d="M756.89,167.478c0-5.529-4.479-10-10-10c-5.53,0-10,4.471-10,10c0,5.521,4.47,10,10,10
			C752.41,177.478,756.89,172.998,756.89,167.478z"/>
		<path style="fill:#FFFFFF;" d="M836.83,167.478c0-5.529-4.471-10-10-10c-5.521,0-10,4.471-10,10c0,5.521,4.479,10,10,10
			C832.359,177.478,836.83,172.998,836.83,167.478z"/>
		<path style="fill:#FFFFFF;" d="M876.81,167.478c0-5.529-4.479-10-10-10c-5.53,0-10,4.471-10,10c0,5.521,4.47,10,10,10
			C872.33,177.478,876.81,172.998,876.81,167.478z"/>
		<path style="fill:#FFFFFF;" d="M916.779,167.478c0-5.529-4.479-10-10-10c-5.52,0-10,4.471-10,10c0,5.521,4.48,10,10,10
			C912.3,177.478,916.779,172.998,916.779,167.478z"/>
	</g>
	<g style="opacity:0.4;">
		<path style="fill:#FFFFFF;" d="M1066.68,1088.528c5.02,0,9.167-3.7,9.88-8.528h-19.76
			C1057.513,1084.828,1061.66,1088.528,1066.68,1088.528z"/>
	</g>
</g>
<g id="content" style="display:none;">
	<g style="display:inline;">
		<text transform="matrix(1 0 0 1 692.7803 292.1699)"><tspan x="0" y="0" style="fill:#1B2528; font-family:'LeagueGothic'; font-size:102.347;">We design things </tspan><tspan x="-2.048" y="115.346" style="fill:#1B2528; font-family:'LeagueGothic'; font-size:102.347;">for their lifetime</tspan></text>
		<rect x="524.414" y="487.961" style="fill:none;" width="871.172" height="391.654"/>
		<text transform="matrix(1 0 0 1 524.4146 516.1914)"><tspan x="0" y="0" style="fill:#1B2528; font-family:'PlayfairDisplay-Regular'; font-size:36;">Currently,</tspan><tspan x="168.012" y="0" style="fill:#1B2528; font-family:'PlayfairDisplay-Regular'; font-size:36; letter-spacing:1;"> </tspan><tspan x="178.066" y="0" style="fill:#1B2528; font-family:'PlayfairDisplay-Regular'; font-size:36;">physical</tspan><tspan x="310.605" y="0" style="fill:#1B2528; font-family:'PlayfairDisplay-Regular'; font-size:36; letter-spacing:1;"> </tspan><tspan x="320.66" y="0" style="fill:#1B2528; font-family:'PlayfairDisplay-Regular'; font-size:36;">products</tspan><tspan x="465.433" y="0" style="fill:#1B2528; font-family:'PlayfairDisplay-Regular'; font-size:36; letter-spacing:1;"> </tspan><tspan x="475.488" y="0" style="fill:#1B2528; font-family:'PlayfairDisplay-Regular'; font-size:36;">and</tspan><tspan x="535.833" y="0" style="fill:#1B2528; font-family:'PlayfairDisplay-Regular'; font-size:36; letter-spacing:1;"> </tspan><tspan x="545.888" y="0" style="fill:#1B2528; font-family:'PlayfairDisplay-Regular'; font-size:36;">digital</tspan><tspan x="647.525" y="0" style="fill:#1B2528; font-family:'PlayfairDisplay-Regular'; font-size:36; letter-spacing:1;"> </tspan><tspan x="657.579" y="0" style="fill:#1B2528; font-family:'PlayfairDisplay-Regular'; font-size:36;">services</tspan><tspan x="787.745" y="0" style="fill:#1B2528; font-family:'PlayfairDisplay-Regular'; font-size:36; letter-spacing:1;"> </tspan><tspan x="797.8" y="0" style="fill:#1B2528; font-family:'PlayfairDisplay-Regular'; font-size:36;">tend </tspan><tspan x="0" y="46" style="fill:#1B2528; font-family:'PlayfairDisplay-Regular'; font-size:36;">to</tspan><tspan x="32.467" y="46" style="fill:#1B2528; font-family:'PlayfairDisplay-Regular'; font-size:36; letter-spacing:1;"> </tspan><tspan x="42.697" y="46" style="fill:#1B2528; font-family:'PlayfairDisplay-Regular'; font-size:36;">be</tspan><tspan x="81.176" y="46" style="fill:#1B2528; font-family:'PlayfairDisplay-Regular'; font-size:36; letter-spacing:1;"> </tspan><tspan x="91.406" y="46" style="fill:#1B2528; font-family:'PlayfairDisplay-Regular'; font-size:36;">built</tspan><tspan x="166.184" y="46" style="fill:#1B2528; font-family:'PlayfairDisplay-Regular'; font-size:36; letter-spacing:1;"> </tspan><tspan x="176.414" y="46" style="fill:#1B2528; font-family:'PlayfairDisplay-Regular'; font-size:36;">to</tspan><tspan x="208.88" y="46" style="fill:#1B2528; font-family:'PlayfairDisplay-Regular'; font-size:36; letter-spacing:1;"> </tspan><tspan x="219.111" y="46" style="fill:#1B2528; font-family:'PlayfairDisplay-Regular'; font-size:36;">have</tspan><tspan x="294.011" y="46" style="fill:#1B2528; font-family:'PlayfairDisplay-Regular'; font-size:36; letter-spacing:1;"> </tspan><tspan x="304.242" y="46" style="fill:#1B2528; font-family:'PlayfairDisplay-Regular'; font-size:36;">different</tspan><tspan x="445.886" y="46" style="fill:#1B2528; font-family:'PlayfairDisplay-Regular'; font-size:36; letter-spacing:1;"> </tspan><tspan x="456.117" y="46" style="fill:#1B2528; font-family:'PlayfairDisplay-Regular'; font-size:36;">lifespans.</tspan><tspan x="608.642" y="46" style="fill:#1B2528; font-family:'PlayfairDisplay-Regular'; font-size:36; letter-spacing:1;"> </tspan><tspan x="618.872" y="46" style="fill:#1B2528; font-family:'PlayfairDisplay-Regular'; font-size:36;">However</tspan><tspan x="763.593" y="46" style="fill:#1B2528; font-family:'PlayfairDisplay-Regular'; font-size:36; letter-spacing:1;"> </tspan><tspan x="773.823" y="46" style="fill:#1B2528; font-family:'PlayfairDisplay-Regular'; font-size:36;">for</tspan><tspan x="821.513" y="46" style="fill:#1B2528; font-family:'PlayfairDisplay-Regular'; font-size:36; letter-spacing:1;"> </tspan><tspan x="831.743" y="46" style="fill:#1B2528; font-family:'PlayfairDisplay-Regular'; font-size:36;">an </tspan><tspan x="0" y="92" style="fill:#1B2528; font-family:'PlayfairDisplay-Regular'; font-size:36;">IoT</tspan><tspan x="54.281" y="92" style="fill:#1B2528; font-family:'PlayfairDisplay-Regular'; font-size:36; letter-spacing:7;"> </tspan><tspan x="70.371" y="92" style="fill:#1B2528; font-family:'PlayfairDisplay-Regular'; font-size:36;">product</tspan><tspan x="199.096" y="92" style="fill:#1B2528; font-family:'PlayfairDisplay-Regular'; font-size:36; letter-spacing:7;"> </tspan><tspan x="215.185" y="92" style="fill:#1B2528; font-family:'PlayfairDisplay-Regular'; font-size:36;">where</tspan><tspan x="316.505" y="92" style="fill:#1B2528; font-family:'PlayfairDisplay-Regular'; font-size:36; letter-spacing:7;"> </tspan><tspan x="332.595" y="92" style="fill:#1B2528; font-family:'PlayfairDisplay-Regular'; font-size:36;">these</tspan><tspan x="418.974" y="92" style="fill:#1B2528; font-family:'PlayfairDisplay-Regular'; font-size:36; letter-spacing:7;"> </tspan><tspan x="435.064" y="92" style="fill:#1B2528; font-family:'PlayfairDisplay-Regular'; font-size:36;">features</tspan><tspan x="567.093" y="92" style="fill:#1B2528; font-family:'PlayfairDisplay-Regular'; font-size:36; letter-spacing:7;"> </tspan><tspan x="583.183" y="92" style="fill:#1B2528; font-family:'PlayfairDisplay-Regular'; font-size:36;">are</tspan><tspan x="635.337" y="92" style="fill:#1B2528; font-family:'PlayfairDisplay-Regular'; font-size:36; letter-spacing:7;"> </tspan><tspan x="651.427" y="92" style="fill:#1B2528; font-family:'PlayfairDisplay-Regular'; font-size:36;">codependent, </tspan><tspan x="0" y="138" style="fill:#1B2528; font-family:'PlayfairDisplay-Regular'; font-size:36;">their</tspan><tspan x="78.68" y="138" style="fill:#1B2528; font-family:'PlayfairDisplay-Regular'; font-size:36; letter-spacing:5;"> </tspan><tspan x="92.834" y="138" style="fill:#1B2528; font-family:'PlayfairDisplay-Regular'; font-size:36;">lifespans</tspan><tspan x="236.29" y="138" style="fill:#1B2528; font-family:'PlayfairDisplay-Regular'; font-size:36; letter-spacing:5;"> </tspan><tspan x="250.444" y="138" style="fill:#1B2528; font-family:'PlayfairDisplay-Regular'; font-size:36;">need</tspan><tspan x="329.282" y="138" style="fill:#1B2528; font-family:'PlayfairDisplay-Regular'; font-size:36; letter-spacing:5;"> </tspan><tspan x="343.437" y="138" style="fill:#1B2528; font-family:'PlayfairDisplay-Regular'; font-size:36;">to</tspan><tspan x="375.903" y="138" style="fill:#1B2528; font-family:'PlayfairDisplay-Regular'; font-size:36; letter-spacing:5;"> </tspan><tspan x="390.058" y="138" style="fill:#1B2528; font-family:'PlayfairDisplay-Regular'; font-size:36;">be</tspan><tspan x="428.537" y="138" style="fill:#1B2528; font-family:'PlayfairDisplay-Regular'; font-size:36; letter-spacing:5;"> </tspan><tspan x="442.691" y="138" style="fill:#1B2528; font-family:'PlayfairDisplay-Regular'; font-size:36;">aligned</tspan><tspan x="560.746" y="138" style="fill:#1B2528; font-family:'PlayfairDisplay-Regular'; font-size:36; letter-spacing:5;"> </tspan><tspan x="574.9" y="138" style="fill:#1B2528; font-family:'PlayfairDisplay-Regular'; font-size:36;">with</tspan><tspan x="647.076" y="138" style="fill:#1B2528; font-family:'PlayfairDisplay-Regular'; font-size:36; letter-spacing:5;"> </tspan><tspan x="661.231" y="138" style="fill:#1B2528; font-family:'PlayfairDisplay-Regular'; font-size:36;">one</tspan><tspan x="720.663" y="138" style="fill:#1B2528; font-family:'PlayfairDisplay-Regular'; font-size:36; letter-spacing:5;"> </tspan><tspan x="734.817" y="138" style="fill:#1B2528; font-family:'PlayfairDisplay-Regular'; font-size:36;">another. </tspan><tspan x="0" y="184" style="fill:#1B2528; font-family:'PlayfairDisplay-Regular'; font-size:36;">We</tspan><tspan x="50.783" y="184" style="fill:#1B2528; font-family:'PlayfairDisplay-Regular'; font-size:36; letter-spacing:1;"> </tspan><tspan x="61.039" y="184" style="fill:#1B2528; font-family:'PlayfairDisplay-Regular'; font-size:36;">design</tspan><tspan x="166.912" y="184" style="fill:#1B2528; font-family:'PlayfairDisplay-Regular'; font-size:36; letter-spacing:1;"> </tspan><tspan x="177.168" y="184" style="fill:#1B2528; font-family:'PlayfairDisplay-Regular'; font-size:36;">products</tspan><tspan x="321.941" y="184" style="fill:#1B2528; font-family:'PlayfairDisplay-Regular'; font-size:36; letter-spacing:1;"> </tspan><tspan x="332.197" y="184" style="fill:#1B2528; font-family:'PlayfairDisplay-Regular'; font-size:36;">and</tspan><tspan x="392.542" y="184" style="fill:#1B2528; font-family:'PlayfairDisplay-Regular'; font-size:36; letter-spacing:1;"> </tspan><tspan x="402.798" y="184" style="fill:#1B2528; font-family:'PlayfairDisplay-Regular'; font-size:36;">their</tspan><tspan x="481.478" y="184" style="fill:#1B2528; font-family:'PlayfairDisplay-Regular'; font-size:36; letter-spacing:1;"> </tspan><tspan x="491.734" y="184" style="fill:#1B2528; font-family:'PlayfairDisplay-Regular'; font-size:36;">services</tspan><tspan x="621.9" y="184" style="fill:#1B2528; font-family:'PlayfairDisplay-Regular'; font-size:36; letter-spacing:1;"> </tspan><tspan x="632.156" y="184" style="fill:#1B2528; font-family:'PlayfairDisplay-Regular'; font-size:36;">to</tspan><tspan x="664.623" y="184" style="fill:#1B2528; font-family:'PlayfairDisplay-Regular'; font-size:36; letter-spacing:1;"> </tspan><tspan x="674.878" y="184" style="fill:#1B2528; font-family:'PlayfairDisplay-Regular'; font-size:36;">be</tspan><tspan x="713.356" y="184" style="fill:#1B2528; font-family:'PlayfairDisplay-Regular'; font-size:36; letter-spacing:1;"> </tspan><tspan x="723.612" y="184" style="fill:#1B2528; font-family:'PlayfairDisplay-Regular'; font-size:36;">bound</tspan><tspan x="826.937" y="184" style="fill:#1B2528; font-family:'PlayfairDisplay-Regular'; font-size:36; letter-spacing:1;"> </tspan><tspan x="837.192" y="184" style="fill:#1B2528; font-family:'PlayfairDisplay-Regular'; font-size:36;">as </tspan><tspan x="0" y="230" style="fill:#1B2528; font-family:'PlayfairDisplay-Regular'; font-size:36;">a single, durable entity. </tspan></text>
	</g>
	
		<text transform="matrix(1 0 0 1 1749.8359 1027.0645)" style="display:inline;fill:#FFFFFF; font-family:'LeagueGothic'; font-size:36;">initiators?</text>
	<g style="display:inline;">
		<rect x="1808.174" y="47.961" style="fill:#FFFFFF;" width="61.826" height="61.828"/>
		<text transform="matrix(1 0 0 1 1826.8164 97.001)" style="fill:#F0C330; font-family:'LeagueGothic'; font-size:44.7768;">ix</text>
	</g>
	<g style="display:inline;">
		
			<rect x="1868.752" y="355.212" style="opacity:0.3;fill:none;stroke:#FFFFFF;stroke-width:2;stroke-miterlimit:10;" width="24.431" height="24.431"/>
		
			<circle style="opacity:0.3;fill:none;stroke:#FFFFFF;stroke-width:2;stroke-miterlimit:10;" cx="1880.968" cy="407.732" r="13.384"/>
		<path style="opacity:0.3;fill:none;stroke:#FFFFFF;stroke-width:2;stroke-miterlimit:10;" d="M1896.365,600.785
			c0-8.505-6.894-15.398-15.397-15.398c-8.505,0-15.398,6.894-15.398,15.398H1896.365z"/>
		
			<rect x="1870.782" y="656.213" transform="matrix(0.7071 0.7071 -0.7071 0.7071 1022.1383 -1134.8612)" style="fill:#FFFFFF;stroke:#FFFFFF;stroke-width:2;stroke-miterlimit:10;" width="20.372" height="20.372"/>
		<polygon style="opacity:0.3;fill:none;stroke:#FFFFFF;stroke-width:2;stroke-miterlimit:10;" points="1873.703,495.767 
			1866.439,483.185 1873.703,470.603 1888.231,470.603 1895.495,483.185 1888.231,495.767 		"/>
		
			<rect x="1873.89" y="510.473" style="opacity:0.3;fill:none;stroke:#FFFFFF;stroke-width:2;stroke-miterlimit:10;" width="14.156" height="25.163"/>
		<path style="opacity:0.3;fill:none;stroke:#FFFFFF;stroke-width:2;stroke-miterlimit:10;" d="M1875.421,570.682
			c-5.618,0-10.171-4.554-10.171-10.17c0-5.617,4.553-10.17,10.171-10.17h11.094c5.616,0,10.169,4.553,10.169,10.17
			c0,5.616-4.553,10.17-10.169,10.17H1875.421z"/>
		<polygon style="opacity:0.3;fill:none;stroke:#FFFFFF;stroke-width:2;stroke-miterlimit:10;" points="1868.382,637.289 
			1880.968,615.49 1893.552,637.289 		"/>
		<polygon style="opacity:0.3;fill:none;stroke:#FFFFFF;stroke-width:2;stroke-miterlimit:10;" points="1895.075,455.896 
			1866.859,455.896 1872.914,435.821 1889.021,435.821 		"/>
		<polygon style="fill:none;stroke:#FFFFFF;stroke-width:2;stroke-miterlimit:10;" points="1872.778,720.71 1867.718,705.135 
			1880.968,695.51 1894.218,705.135 1889.155,720.71 		"/>
	</g>
	<g style="display:inline;">
		<text transform="matrix(1 0 0 1 50 97.4004)" style="fill:#FFFFFF; font-family:'LeagueGothic'; font-size:60;">iot design manifesto 1.0</text>
	</g>
	<g style="display:inline;">
		<polygon style="fill:#FFFFFF;" points="50,978.094 50,1015.447 75.095,1015.447 86.562,1027.961 86.562,1015.447 93.221,1015.447 
			93.221,978.094 		"/>
		<text transform="matrix(1 0 0 1 67.5903 1005.7559)" style="font-family:'LeagueGothic'; font-size:24;">3</text>
	</g>
</g>
<g id="assets" style="display:none;">
</g>
</svg>
